<svg width="40" height="40" viewBox="0 0 40 40" fill="none" xmlns="http://www.w3.org/2000/svg">
<path d="M36.25 12.79C36.2612 12.2452 36.1238 11.7076 35.8525 11.235C35.5671 10.7712 35.1632 10.392 34.6825 10.1362C30.3542 7.74625 26.0238 5.35749 21.6913 2.96999C21.169 2.65547 20.5698 2.49178 19.9601 2.49707C19.3505 2.50237 18.7542 2.67645 18.2375 3C16.515 3.97375 7.89375 8.70624 5.32375 10.1325C4.83499 10.3785 4.42698 10.7595 4.14806 11.2303C3.86914 11.701 3.731 12.2419 3.75 12.7887V27.2125C3.73737 27.7451 3.86681 28.2715 4.125 28.7375C4.41188 29.2147 4.8244 29.6039 5.3175 29.8625C7.8875 31.2887 16.51 36.0212 18.2325 36.995C18.749 37.3189 19.3451 37.4934 19.9548 37.4992C20.5644 37.5049 21.1637 37.3416 21.6863 37.0275C26.0113 34.635 30.3388 32.2462 34.6687 29.8612C35.1619 29.6023 35.5748 29.2132 35.8625 28.7362C36.1207 28.2702 36.2501 27.7439 36.2375 27.2112V12.79" fill="#659AD2"/>
<path d="M35.6862 28.9637C35.7519 28.8915 35.8132 28.8156 35.87 28.7362C36.1282 28.2702 36.2576 27.7438 36.245 27.2112V12.79C36.2562 12.2452 36.1188 11.7076 35.8475 11.235C35.8025 11.1612 35.7363 11.1037 35.685 11.035L20 20L35.6862 28.9637Z" fill="#00599C"/>
<path d="M35.6863 28.9637L20 20L4.31375 28.9637C4.57786 29.3369 4.92375 29.6447 5.325 29.8638C7.895 31.29 16.5175 36.0225 18.24 36.9963C18.7565 37.3202 19.3526 37.4947 19.9623 37.5004C20.5719 37.5062 21.1712 37.3429 21.6938 37.0287C26.0188 34.6362 30.3463 32.2475 34.6763 29.8625C35.0769 29.6437 35.4224 29.3363 35.6863 28.9637Z" fill="#004482"/>
<path d="M24.5 22.525C23.9432 23.5152 23.0746 24.2936 22.0295 24.739C20.9844 25.1844 19.8214 25.2718 18.7214 24.9877C17.6215 24.7035 16.6463 24.0637 15.9477 23.1678C15.2491 22.2719 14.8663 21.1702 14.8588 20.0342C14.8513 18.8982 15.2195 17.7915 15.9062 16.8865C16.5929 15.9815 17.5595 15.3288 18.6556 15.0301C19.7517 14.7315 20.9158 14.8035 21.9667 15.2351C23.0176 15.6666 23.8964 16.4335 24.4663 17.4163L28.985 14.825C27.838 12.8566 26.0757 11.3199 23.9694 10.4517C21.8632 9.58347 19.5299 9.43183 17.329 10.0201C15.1281 10.6084 13.1817 11.9041 11.7895 13.7074C10.3974 15.5108 9.63687 17.7219 9.625 20C9.6218 21.8066 10.0961 23.582 11 25.1463C11.9144 26.7266 13.2287 28.0383 14.8109 28.9496C16.393 29.8608 18.1872 30.3394 20.013 30.3372C21.8388 30.3351 23.6319 29.8523 25.2119 28.9373C26.7919 28.0223 28.1031 26.7075 29.0138 25.125L24.5 22.525Z" fill="white"/>
<path d="M30.095 19.4225H28.9375V18.2712H27.7812V19.4225H26.6237V20.5762H27.7812V21.7262H28.9375V20.5762H30.095V19.4225ZM34.4362 19.4225H33.2787V18.2712H32.1212V19.4225H30.9637V20.5762H32.1212V21.7262H33.2787V20.5762H34.4362V19.4225Z" fill="white"/>
</svg>
