<svg width="59" height="59" viewBox="0 0 59 59" fill="none" xmlns="http://www.w3.org/2000/svg">
<g clip-path="url(#clip0_243_256)">
<path d="M45.0266 0.453125H13.9734C6.40711 0.453125 0.273438 6.5868 0.273438 14.1531V45.2063C0.273438 52.7726 6.40711 58.9062 13.9734 58.9062H45.0266C52.5929 58.9062 58.7266 52.7726 58.7266 45.2063V14.1531C58.7266 6.5868 52.5929 0.453125 45.0266 0.453125Z" fill="#5865F2"/>
<mask id="mask0_243_256" style="mask-type:luminance" maskUnits="userSpaceOnUse" x="6" y="12" width="47" height="36">
<path d="M6.66675 12.0981H52.3333V47.4737H6.66675V12.0981Z" fill="white"/>
</mask>
<g mask="url(#mask0_243_256)">
<path d="M45.3253 15.2482C42.3645 13.8894 39.2401 12.9202 36.0301 12.3651C36.0009 12.3598 35.9708 12.3637 35.944 12.3764C35.9172 12.3891 35.8951 12.4099 35.8807 12.4359C35.4793 13.1496 35.0345 14.0812 34.7233 14.8133C31.2132 14.2877 27.7213 14.2877 24.2833 14.8133C23.9718 14.0648 23.511 13.1496 23.1078 12.4359C23.093 12.4103 23.0707 12.3899 23.044 12.3773C23.0173 12.3646 22.9874 12.3604 22.9583 12.3651C19.7479 12.919 16.6233 13.8882 13.6631 15.2482C13.6379 15.2592 13.6165 15.2775 13.6019 15.3008C7.68167 24.1455 6.06005 32.7728 6.85556 41.2932C6.86041 41.3353 6.88176 41.3737 6.91493 41.4001C10.8208 44.2686 14.6045 46.0101 18.3179 47.1643C18.3467 47.1729 18.3776 47.1724 18.4062 47.1631C18.4348 47.1537 18.4599 47.1358 18.4781 47.1118C19.3565 45.9122 20.1395 44.6474 20.811 43.3174C20.8203 43.2992 20.8255 43.2792 20.8265 43.2588C20.8275 43.2384 20.8241 43.218 20.8166 43.199C20.8091 43.18 20.7977 43.1628 20.7831 43.1485C20.7685 43.1343 20.751 43.1233 20.7318 43.1162C19.4897 42.645 18.3071 42.0707 17.1696 41.4184C17.1489 41.4061 17.1315 41.389 17.1189 41.3685C17.1064 41.348 17.0991 41.3247 17.0976 41.3007C17.0962 41.2767 17.1007 41.2527 17.1108 41.2309C17.1208 41.209 17.1361 41.19 17.1552 41.1754C17.3952 40.996 17.631 40.8112 17.8626 40.621C17.8829 40.6043 17.9074 40.5936 17.9335 40.59C17.9595 40.5865 17.986 40.5902 18.0101 40.6009C25.4838 44.0131 33.5748 44.0131 40.9602 40.6009C40.9843 40.5896 41.0112 40.5853 41.0376 40.5885C41.0641 40.5917 41.0891 40.6024 41.1098 40.6192C41.3416 40.8104 41.578 40.9959 41.819 41.1754C41.8382 41.1898 41.8536 41.2088 41.8638 41.2305C41.874 41.2523 41.8786 41.2762 41.8774 41.3002C41.8761 41.3242 41.869 41.3475 41.8567 41.3681C41.8443 41.3887 41.827 41.406 41.8064 41.4184C40.6682 42.083 39.476 42.6503 38.2424 43.1144C38.2233 43.1218 38.2059 43.1331 38.1915 43.1476C38.177 43.1621 38.1658 43.1795 38.1585 43.1987C38.1512 43.2178 38.148 43.2383 38.1491 43.2587C38.1502 43.2792 38.1556 43.2992 38.165 43.3174C38.8481 44.6369 39.6271 45.9045 40.4958 47.11C40.5136 47.1346 40.5385 47.153 40.5673 47.1627C40.596 47.1725 40.627 47.173 40.6561 47.1643C44.3875 46.0101 48.1712 44.2686 52.0773 41.4001C52.094 41.3877 52.1079 41.372 52.1181 41.3539C52.1283 41.3358 52.1347 41.3157 52.1366 41.2951C53.0888 31.4446 50.5417 22.8878 45.3846 15.3026C45.3721 15.2779 45.351 15.2586 45.3253 15.2482ZM21.9271 36.1053C19.6769 36.1053 17.8228 34.0396 17.8228 31.5026C17.8228 28.9656 19.641 26.8998 21.9271 26.8998C24.231 26.8998 26.067 28.9838 26.0309 31.5026C26.0309 34.0396 24.2129 36.1053 21.9271 36.1053ZM37.1012 36.1053C34.851 36.1053 32.9971 34.0396 32.9971 31.5026C32.9971 28.9656 34.8151 26.8998 37.1012 26.8998C39.405 26.8998 41.2411 28.9838 41.2052 31.5026C41.2052 34.0396 39.405 36.1053 37.1012 36.1053Z" fill="white"/>
</g>
</g>
<defs>
<clipPath id="clip0_243_256">
<rect width="58.4531" height="58.4531" fill="white" transform="translate(0.273438 0.453125)"/>
</clipPath>
</defs>
</svg>
