<svg width="40" height="40" viewBox="0 0 40 40" fill="none" xmlns="http://www.w3.org/2000/svg">
<path d="M17.6688 5H22.625V27.7113C20.5096 28.1472 18.3561 28.3713 16.1963 28.38C10.1438 28.3738 6.99375 25.67 6.99375 20.4775C6.99375 15.4775 10.335 12.2275 15.5138 12.2275C16.24 12.2141 16.9648 12.2982 17.6688 12.4775V5ZM17.6688 16.4275C17.1299 16.25 16.5647 16.1654 15.9975 16.1775C13.4975 16.1775 12.0438 17.7063 12.0438 20.385C12.0438 22.9938 13.4275 24.4338 15.9663 24.4338C16.5361 24.4353 17.1052 24.3935 17.6688 24.3088V16.4338V16.4275Z" fill="#44B78B"/>
<path d="M30.5 12.5738V23.9488C30.5 27.865 30.2062 29.7475 29.3462 31.3713C28.4682 33.022 27.0331 34.3078 25.2962 35L20.6987 32.8338C22.3695 32.2627 23.7686 31.0916 24.625 29.5475C25.3325 28.1463 25.5562 26.5225 25.5562 22.2513V12.5738H30.5ZM25.5512 5.02502H30.5062V10.06H25.5512V5.02502Z" fill="#44B78B"/>
</svg>
