<svg width="278" height="278" viewBox="0 0 278 278" fill="none" xmlns="http://www.w3.org/2000/svg">
<path d="M265.585 128.347C262.671 114.097 257.556 100.186 251.473 87.3977C240.987 65.3356 223.807 47.0154 201.828 36.14C147.896 9.452 108.976 20.572 87.848 42.256C66.72 63.94 72.836 101.192 50.04 117.316C27.244 133.44 11.12 140.668 10.008 170.136C8.896 199.604 23.352 221.844 46.704 229.072C70.056 236.3 105.084 259.652 175.14 246.308C245.196 232.964 262.432 195.712 266.88 169.024C269.104 155.597 268.337 141.819 265.585 128.347Z" fill="#92E3A9"/>
<path opacity="0.7" d="M265.585 128.347C262.671 114.097 257.556 100.186 251.473 87.3977C240.987 65.3356 223.807 47.0154 201.828 36.14C147.896 9.452 108.976 20.572 87.848 42.256C66.72 63.94 72.836 101.192 50.04 117.316C27.244 133.44 11.12 140.668 10.008 170.136C8.896 199.604 23.352 221.844 46.704 229.072C70.056 236.3 105.084 259.652 175.14 246.308C245.196 232.964 262.432 195.712 266.88 169.024C269.104 155.597 268.337 141.819 265.585 128.347Z" fill="white"/>
<path d="M101.37 46.9931H96.3326V69.3165H101.37V46.9931Z" fill="#C9C9C9" stroke="#263238" stroke-linecap="round" stroke-linejoin="round"/>
<path d="M101.37 50.3514H96.3326V52.5309H101.37V50.3514Z" fill="white" stroke="#263238" stroke-linecap="round" stroke-linejoin="round"/>
<path d="M101.37 64.2013H96.3326V66.3808H101.37V64.2013Z" fill="white" stroke="#263238" stroke-linecap="round" stroke-linejoin="round"/>
<path d="M107.247 46.9931H100.197V69.3165H107.247V46.9931Z" fill="#878787" stroke="#263238" stroke-linecap="round" stroke-linejoin="round"/>
<path d="M106.746 46.9931H101.709V69.3165H106.746V46.9931Z" fill="#C9C9C9" stroke="#263238" stroke-linecap="round" stroke-linejoin="round"/>
<path d="M106.746 50.3514H101.709V52.5309H106.746V50.3514Z" fill="white" stroke="#263238" stroke-linecap="round" stroke-linejoin="round"/>
<path d="M106.746 64.2013H101.709V66.3808H106.746V64.2013Z" fill="white" stroke="#263238" stroke-linecap="round" stroke-linejoin="round"/>
<path d="M112.618 46.9931H105.568V69.3165H112.618V46.9931Z" fill="#878787" stroke="#263238" stroke-linecap="round" stroke-linejoin="round"/>
<path d="M112.117 46.9931H107.08V69.3165H112.117V46.9931Z" fill="#C9C9C9" stroke="#263238" stroke-linecap="round" stroke-linejoin="round"/>
<path d="M112.117 50.3514H107.08V52.5309H112.117V50.3514Z" fill="white" stroke="#263238" stroke-linecap="round" stroke-linejoin="round"/>
<path d="M112.117 64.2013H107.08V66.3808H112.117V64.2013Z" fill="white" stroke="#263238" stroke-linecap="round" stroke-linejoin="round"/>
<path d="M117.989 46.9931H110.939V69.3165H117.989V46.9931Z" fill="#C9C9C9" stroke="#263238" stroke-linecap="round" stroke-linejoin="round"/>
<path d="M122.581 69.5445H134.413L137.56 66.6978H122.581V69.5445Z" fill="white" stroke="#263238" stroke-linecap="round" stroke-linejoin="round"/>
<path d="M136.22 69.6891L135.842 69.0385L122.337 69.0107L122.726 69.6891H136.22Z" fill="white" stroke="#263238" stroke-linecap="round" stroke-linejoin="round"/>
<path d="M115.731 47.4579L111.371 49.9796L122.546 69.3045L126.907 66.7828L115.731 47.4579Z" fill="#C9C9C9" stroke="#263238" stroke-linecap="round" stroke-linejoin="round"/>
<path d="M117.414 50.3573L113.053 52.879L114.144 54.7658L118.505 52.2441L117.414 50.3573Z" fill="white" stroke="#263238" stroke-linecap="round" stroke-linejoin="round"/>
<path d="M124.352 62.3455L119.991 64.8672L121.082 66.7539L125.443 64.2322L124.352 62.3455Z" fill="white" stroke="#263238" stroke-linecap="round" stroke-linejoin="round"/>
<path d="M137.482 66.8924L126.79 66.8646L115.615 47.538L126.307 47.5658L137.482 66.8924Z" fill="#C9C9C9" stroke="#263238" stroke-linecap="round" stroke-linejoin="round"/>
<path d="M143.309 58.241C143.309 58.241 141.363 57.546 140.807 54.488C140.251 51.43 139.278 47.121 140.39 46.148C141.502 45.175 143.587 44.619 143.865 46.565C144.143 48.511 143.726 52.264 144.143 53.098C144.56 53.932 145.95 53.376 145.95 51.708C145.95 48.9614 144.838 46.148 145.233 43.368C145.789 39.5261 149.681 39.1035 150.098 43.368C150.331 45.7255 150.398 48.1329 150.398 50.5015C150.398 51.4745 152.066 52.0305 151.927 49.6675C151.827 47.9995 153.039 46.0535 154.707 46.6095C156.375 47.1655 154.985 54.5325 154.429 55.7835C153.873 57.0345 150.398 57.268 150.398 57.268V60.465L146.228 60.604L146.089 57.407C145.24 57.8978 144.288 58.1834 143.309 58.241Z" fill="#92E3A9" stroke="#263238" stroke-linecap="round" stroke-linejoin="round"/>
<path d="M147.062 52.1472C147.112 52.8422 147.145 53.2592 147.145 53.2592" stroke="#263238" stroke-linecap="round" stroke-linejoin="round"/>
<path d="M147.34 41.3664C147.34 41.3664 146.428 42.0003 146.495 43.9018C146.539 45.0583 146.762 48.2608 146.934 50.6016" stroke="#263238" stroke-linecap="round" stroke-linejoin="round"/>
<path d="M148.908 47.9217L149.052 52.5754" stroke="#263238" stroke-linecap="round" stroke-linejoin="round"/>
<path d="M150.943 55.6C150.621 55.6501 150.296 55.678 149.97 55.6834" stroke="#263238" stroke-linecap="round" stroke-linejoin="round"/>
<path d="M153.845 47.7827C153.524 48.3913 153.354 49.0683 153.35 49.7565C153.35 50.8685 153.423 53.9876 152.717 54.8327C152.544 55.0225 152.334 55.174 152.099 55.2775" stroke="#263238" stroke-linecap="round" stroke-linejoin="round"/>
<path d="M141.78 54.0377C141.947 54.8736 142.348 55.6449 142.936 56.2617C143.285 56.5402 143.714 56.6974 144.16 56.7094C144.605 56.7215 145.043 56.5877 145.405 56.3284" stroke="#263238" stroke-linecap="round" stroke-linejoin="round"/>
<path d="M141.647 46.515C141.647 46.515 140.24 46.515 140.729 48.9781C140.94 50.0178 141.135 51.2966 141.385 52.5031" stroke="#263238" stroke-linecap="round" stroke-linejoin="round"/>
<path d="M146.934 55.8891L147.218 58.9193" stroke="#263238" stroke-linecap="round" stroke-linejoin="round"/>
<path d="M154.151 59.214L153.645 63.3618L153.3 66.1863L152.9 69.4722H142.898L142.497 66.1863L142.153 63.3618L141.647 59.214H154.151Z" fill="white" stroke="#263238" stroke-linecap="round" stroke-linejoin="round"/>
<path d="M153.645 63.3618L153.3 66.1862H142.497L142.153 63.3618H153.645Z" fill="#92E3A9" stroke="#263238" stroke-linecap="round" stroke-linejoin="round"/>
<path d="M159.644 69.4722H95.443V73.7256H159.644V69.4722Z" fill="white" stroke="#263238" stroke-linecap="round" stroke-linejoin="round"/>
<path d="M159.644 69.4722H144.844V73.7256H159.644V69.4722Z" fill="white" stroke="#263238" stroke-linecap="round" stroke-linejoin="round"/>
<path d="M143.404 73.7423C150.281 76.2777 149.041 81.0704 149.041 81.0704H155.552V73.7423H143.404Z" fill="#919191" stroke="#263238" stroke-linecap="round" stroke-linejoin="round"/>
<path d="M145.6 73.7423C152.472 76.2777 151.232 81.0704 151.232 81.0704H157.748V73.7423H145.6Z" fill="white" stroke="#263238" stroke-linecap="round" stroke-linejoin="round"/>
<path d="M99.3405 73.7423C106.218 76.2777 104.978 81.0704 104.978 81.0704H111.489V73.7423H99.3405Z" fill="#919191" stroke="#263238" stroke-linecap="round" stroke-linejoin="round"/>
<path d="M101.537 73.7423C108.409 76.2777 107.169 81.0704 107.169 81.0704H113.685V73.7423H101.537Z" fill="white" stroke="#263238" stroke-linecap="round" stroke-linejoin="round"/>
<path d="M249.11 47.7882H191.531V127.719H249.11V47.7882Z" fill="#919191" stroke="#263238" stroke-linecap="round" stroke-linejoin="round"/>
<path d="M246.614 51.2577H194.033V124.249H246.614V51.2577Z" fill="#92E3A9"/>
<path opacity="0.5" d="M246.614 51.2577H194.033V124.249H246.614V51.2577Z" fill="white"/>
<path d="M205.592 118.706C204.182 120.857 202.401 122.739 200.332 124.266H246.614V51.2577H238.085L236.973 51.6079C228.633 54.2378 220.015 61.8495 215.128 75.6827" stroke="#263238" stroke-linecap="round" stroke-linejoin="round"/>
<path d="M214.316 78.1069C212.374 84.704 211.301 91.5262 211.124 98.4009C210.819 106.652 209.062 112.584 206.715 116.849" stroke="#263238" stroke-linecap="round" stroke-linejoin="round"/>
<path d="M241.471 69.7836C233.826 74.2316 224.924 81.7042 221.599 93.1634C219.815 99.2794 221.488 104.795 224.796 109.515" stroke="#263238" stroke-linecap="round" stroke-linejoin="round"/>
<path d="M226.587 111.817C231.174 117.188 237.707 121.414 242.994 124.255H246.614V67.087C245.58 67.5707 244.479 68.1156 243.333 68.755" stroke="#263238" stroke-linecap="round" stroke-linejoin="round"/>
<path d="M202.773 70.2895C206.799 62.083 207.221 55.5722 206.76 51.2577H194.044V84.651C195.923 81.9767 198.225 78.4016 201.005 73.6089C201.177 73.3142 201.339 73.0529 201.5 72.7415" stroke="#263238" stroke-linecap="round" stroke-linejoin="round"/>
<path d="M207.755 101.898C207.138 105.94 205.281 108.876 203.09 108.876C200.394 108.876 198.203 104.428 198.203 98.9235C198.203 93.4191 200.394 88.9711 203.09 88.9711C205.787 88.9711 207.977 93.4191 207.977 98.9235" stroke="#263238" stroke-linecap="round" stroke-linejoin="round"/>
<path d="M210.073 78.4961C210.073 80.6145 209.139 82.3381 207.977 82.3381C206.815 82.3381 205.887 80.6145 205.887 78.4961C205.887 76.3777 206.821 74.6541 207.977 74.6541C209.134 74.6541 210.073 76.3722 210.073 78.4961Z" stroke="#263238" stroke-linecap="round" stroke-linejoin="round"/>
<path d="M236.75 94.7257C238.769 95.6876 240.086 97.3667 240.086 99.2738C240.086 102.26 236.806 104.684 232.753 104.684C228.699 104.684 225.425 102.26 225.425 99.2738C225.425 96.2881 228.705 93.8584 232.753 93.8584C233.399 93.8579 234.043 93.9212 234.676 94.0474" stroke="#263238" stroke-linecap="round" stroke-linejoin="round"/>
<path d="M235.844 99.2738C235.844 100.525 234.471 101.542 232.769 101.542C231.068 101.542 229.695 100.525 229.695 99.2738C229.695 98.0228 231.074 96.9998 232.769 96.9998C234.465 96.9998 235.844 98.0172 235.844 99.2738Z" stroke="#263238" stroke-linecap="round" stroke-linejoin="round"/>
<path d="M240.804 85.4794C240.804 87.2142 239.086 88.6208 236.962 88.6208C234.838 88.6208 233.12 87.2142 233.12 85.4794C233.12 83.7447 234.838 82.338 236.962 82.338C239.086 82.338 240.804 83.7447 240.804 85.4794Z" stroke="#263238" stroke-linecap="round" stroke-linejoin="round"/>
<path d="M213.043 68.021C214.489 68.021 215.661 65.1285 215.661 61.5603C215.661 57.9922 214.489 55.0996 213.043 55.0996C211.596 55.0996 210.424 57.9922 210.424 61.5603C210.424 65.1285 211.596 68.021 213.043 68.021Z" stroke="#263238" stroke-linecap="round" stroke-linejoin="round"/>
<path d="M220.204 117.082C220.204 117.808 219.989 118.518 219.585 119.121C219.182 119.725 218.609 120.195 217.938 120.473C217.268 120.751 216.53 120.823 215.818 120.682C215.106 120.54 214.453 120.19 213.939 119.677C213.426 119.164 213.077 118.51 212.935 117.798C212.793 117.087 212.866 116.349 213.144 115.678C213.422 115.008 213.892 114.435 214.495 114.031C215.099 113.628 215.808 113.413 216.534 113.413C217.507 113.413 218.441 113.8 219.129 114.488C219.817 115.176 220.204 116.109 220.204 117.082Z" stroke="#263238" stroke-linecap="round" stroke-linejoin="round"/>
<path d="M237.312 62.6056C237.313 63.0558 237.18 63.4963 236.931 63.8711C236.682 64.2459 236.326 64.5382 235.911 64.711C235.495 64.8839 235.037 64.9294 234.596 64.8418C234.154 64.7542 233.748 64.5375 233.43 64.2192C233.112 63.9008 232.895 63.4951 232.807 63.0535C232.72 62.6118 232.765 62.1541 232.938 61.7384C233.111 61.3226 233.403 60.9675 233.778 60.7181C234.153 60.4686 234.593 60.336 235.043 60.3371C235.645 60.3386 236.221 60.5781 236.646 61.0032C237.071 61.4283 237.31 62.0044 237.312 62.6056Z" stroke="#263238" stroke-linecap="round" stroke-linejoin="round"/>
<path d="M222.995 78.6685C222.996 78.9106 222.925 79.1477 222.791 79.3495C222.658 79.5514 222.467 79.7091 222.244 79.8025C222.02 79.8959 221.774 79.921 221.536 79.8744C221.299 79.8278 221.08 79.7118 220.909 79.5409C220.737 79.3701 220.62 79.1521 220.572 78.9147C220.525 78.6773 220.549 78.431 220.641 78.2072C220.734 77.9834 220.89 77.792 221.092 77.6574C221.293 77.5227 221.53 77.4508 221.772 77.4508C221.932 77.4501 222.091 77.481 222.239 77.5419C222.388 77.6028 222.523 77.6923 222.636 77.8055C222.75 77.9186 222.84 78.0531 222.902 78.2012C222.963 78.3493 222.995 78.5081 222.995 78.6685Z" stroke="#263238" stroke-linecap="round" stroke-linejoin="round"/>
<path d="M246.614 51.2577H194.033V124.249H246.614V51.2577Z" stroke="#263238" stroke-linecap="round" stroke-linejoin="round"/>
<path d="M160.678 155.341H146.395V160.717H160.678V155.341Z" fill="#263238" stroke="#263238" stroke-linecap="round" stroke-linejoin="round"/>
<path d="M179.844 156.153H122.993L125.684 112.084H182.54L179.844 156.153Z" fill="#919191" stroke="#263238" stroke-linecap="round" stroke-linejoin="round"/>
<path d="M178.215 156.153H121.364L124.055 112.084H180.906L178.215 156.153Z" fill="#263238" stroke="#263238" stroke-linecap="round" stroke-linejoin="round"/>
<path d="M175.207 153.701H124.672L127.063 114.53H177.598L175.207 153.701Z" fill="white" stroke="#263238" stroke-linecap="round" stroke-linejoin="round"/>
<path d="M160.506 147.863H126.179L128.019 117.677H162.352L160.506 147.863Z" fill="#919191" stroke="#263238" stroke-linecap="round" stroke-linejoin="round"/>
<path d="M139.723 134.897C139.723 134.897 132.573 137.727 132.528 138.488C132.484 139.25 131.083 147.863 131.083 147.863H152.344L150.554 137.944L142.686 134.674L139.723 134.897Z" fill="white" stroke="#263238" stroke-linecap="round" stroke-linejoin="round"/>
<path d="M139.934 133.151C139.396 133.293 138.896 133.553 138.472 133.913C137.916 134.469 137.237 136.309 137.237 136.309L137.21 138.488L140.029 136.965L142.892 136.776L145.572 139.284L145.917 135.469C145.917 135.469 145.505 133.29 144.638 133.179C143.77 133.067 139.934 133.151 139.934 133.151Z" fill="white" stroke="#263238" stroke-linecap="round" stroke-linejoin="round"/>
<path d="M139.845 131.083L139.723 134.897L141.407 137.621L144.193 134.786L144.627 131.299L139.845 131.083Z" fill="white" stroke="#263238" stroke-linecap="round" stroke-linejoin="round"/>
<path d="M146.717 126.623C146.517 129.82 144.393 133.696 142.064 133.696C139.734 133.696 138.083 129.804 138.277 126.623C138.472 123.443 140.501 120.835 142.848 120.835C145.194 120.835 146.912 123.432 146.717 126.623Z" fill="white" stroke="#263238" stroke-linecap="round" stroke-linejoin="round"/>
<path d="M138.238 127.046C138.238 127.046 137.488 125.089 137.176 126.612C136.865 128.136 138.4 129.77 138.4 129.77L138.238 127.046Z" fill="white" stroke="#263238" stroke-linecap="round" stroke-linejoin="round"/>
<path d="M146.717 126.623C146.717 126.623 148.558 125.851 148.018 127.485C147.881 127.948 147.643 128.374 147.319 128.732C146.996 129.09 146.596 129.37 146.15 129.554L146.717 126.623Z" fill="white" stroke="#263238" stroke-linecap="round" stroke-linejoin="round"/>
<path d="M141.836 127.046C141.85 126.85 141.824 126.653 141.758 126.467C141.693 126.281 141.589 126.112 141.454 125.968C141.319 125.825 141.156 125.711 140.974 125.635C140.793 125.558 140.598 125.52 140.401 125.523C139.991 125.533 139.6 125.695 139.301 125.976C139.003 126.257 138.819 126.638 138.783 127.046C138.769 127.243 138.795 127.44 138.861 127.626C138.926 127.812 139.03 127.982 139.165 128.126C139.299 128.269 139.463 128.384 139.644 128.461C139.825 128.538 140.021 128.577 140.218 128.575C140.628 128.564 141.02 128.402 141.319 128.12C141.618 127.838 141.802 127.455 141.836 127.046Z" fill="white" stroke="#263238" stroke-linecap="round" stroke-linejoin="round"/>
<path d="M145.539 127.046L147.201 126.612" stroke="#263238" stroke-linecap="round" stroke-linejoin="round"/>
<path d="M145.539 127.046C145.553 126.85 145.527 126.653 145.462 126.468C145.396 126.283 145.293 126.114 145.159 125.97C145.024 125.827 144.862 125.713 144.681 125.636C144.501 125.559 144.306 125.52 144.11 125.523C143.699 125.532 143.306 125.693 143.007 125.974C142.707 126.255 142.522 126.637 142.486 127.046C142.471 127.243 142.498 127.44 142.563 127.626C142.629 127.812 142.733 127.982 142.868 128.126C143.002 128.269 143.166 128.384 143.347 128.461C143.528 128.538 143.724 128.577 143.921 128.575C144.331 128.564 144.723 128.402 145.022 128.12C145.321 127.838 145.504 127.455 145.539 127.046Z" fill="white" stroke="#263238" stroke-linecap="round" stroke-linejoin="round"/>
<path d="M142.469 120.179C142.469 120.179 140.801 119.312 139.55 119.857C138.299 120.402 137.376 123.343 137.438 124.105C137.634 125.103 137.901 126.086 138.238 127.046L139.562 123.232L143.031 121.708L142.469 120.179Z" fill="#263238" stroke="#263238" stroke-linecap="round" stroke-linejoin="round"/>
<path d="M140.79 120.947C140.79 120.947 143.537 118.767 145.761 119.835C146.442 120.131 147.004 120.645 147.36 121.296C147.715 121.948 147.843 122.7 147.724 123.432C147.69 123.988 147.646 126.479 147.646 126.479L146.323 126.701L145.672 124.65C144.92 124.352 144.189 124.007 143.481 123.615C143.481 123.615 140.54 123.232 140.79 120.947Z" fill="#263238" stroke="#263238" stroke-linecap="round" stroke-linejoin="round"/>
<path d="M141.836 127.046L141.641 130.21H142.403" fill="white"/>
<path d="M141.836 127.046L141.641 130.21H142.403" stroke="#263238" stroke-linecap="round" stroke-linejoin="round"/>
<path d="M141.241 131.405H142.875" stroke="#263238" stroke-linecap="round" stroke-linejoin="round"/>
<path d="M141.407 137.621L140.801 147.535" stroke="#263238" stroke-linecap="round" stroke-linejoin="round"/>
<path d="M150.543 137.944C150.543 137.944 148.269 143.07 148.202 144.16C148.135 145.249 147.879 147.646 147.879 147.646" stroke="#263238" stroke-linecap="round" stroke-linejoin="round"/>
<path d="M132.528 138.488C132.528 138.488 134.791 142.414 135.086 142.936C135.38 143.459 135.019 147.624 135.019 147.624" stroke="#263238" stroke-linecap="round" stroke-linejoin="round"/>
<path d="M152.06 141.652L152.811 138.272L154.09 136.965L155.296 135.002H155.841L155.174 137.076L156.864 136.092L157.954 134.352L158.588 134.674L157.031 138.711L154.562 139.906L154.134 141.541L152.06 141.652Z" fill="white" stroke="#263238" stroke-linecap="round" stroke-linejoin="round"/>
<path d="M154.173 147.863L154.379 141.107L151.899 140.668L149.942 147.863H154.173Z" fill="white" stroke="#263238" stroke-linecap="round" stroke-linejoin="round"/>
<path d="M160.356 150.37H126.023L126.179 147.863H160.506L160.356 150.37Z" fill="white" stroke="#263238" stroke-linecap="round" stroke-linejoin="round"/>
<path d="M127.424 148.847H158.921" stroke="#263238" stroke-linecap="round" stroke-linejoin="round"/>
<path d="M175.262 125.734H163.709L164.198 117.777H175.752L175.262 125.734Z" fill="#92E3A9" stroke="#263238" stroke-linecap="round" stroke-linejoin="round"/>
<path d="M175.262 125.734H163.709L163.792 124.427H175.346L175.262 125.734Z" fill="white" stroke="#263238" stroke-linecap="round" stroke-linejoin="round"/>
<path d="M171.532 121.291L168.529 119.496L168.312 123.087L171.532 121.291Z" fill="white" stroke="#263238" stroke-linecap="round" stroke-linejoin="round"/>
<path d="M174.512 138.049H162.958L163.442 130.098H174.995L174.512 138.049Z" fill="#92E3A9" stroke="#263238" stroke-linecap="round" stroke-linejoin="round"/>
<path d="M174.512 138.049H162.958L163.041 136.743H174.59L174.512 138.049Z" fill="white" stroke="#263238" stroke-linecap="round" stroke-linejoin="round"/>
<path d="M170.781 133.612L167.779 131.816L167.562 135.408L170.781 133.612Z" fill="white" stroke="#263238" stroke-linecap="round" stroke-linejoin="round"/>
<path d="M173.756 150.37H162.207L162.691 142.414H174.245L173.756 150.37Z" fill="#92E3A9" stroke="#263238" stroke-linecap="round" stroke-linejoin="round"/>
<path d="M173.756 150.37H162.207L162.285 149.064H173.839L173.756 150.37Z" fill="white" stroke="#263238" stroke-linecap="round" stroke-linejoin="round"/>
<path d="M170.025 145.928L167.028 144.132L166.806 147.724L170.025 145.928Z" fill="white" stroke="#263238" stroke-linecap="round" stroke-linejoin="round"/>
<path d="M163.742 127.046H174.962" stroke="#263238" stroke-linecap="round" stroke-linejoin="round"/>
<path d="M163.659 128.358H174.884" stroke="#263238" stroke-linecap="round" stroke-linejoin="round"/>
<path d="M162.98 139.473H174.206" stroke="#263238" stroke-linecap="round" stroke-linejoin="round"/>
<path d="M162.902 140.779H174.128" stroke="#263238" stroke-linecap="round" stroke-linejoin="round"/>
<path d="M158.004 160.717H149.564C149.564 159.875 149.898 159.068 150.494 158.472C151.089 157.877 151.897 157.543 152.739 157.543H154.818C155.66 157.543 156.468 157.877 157.063 158.472C157.658 159.068 157.993 159.875 157.993 160.717H158.004Z" fill="white" stroke="#263238" stroke-linecap="round" stroke-linejoin="round"/>
<path d="M145.544 158.988H104.278V160.717H145.544V158.988Z" fill="#919191" stroke="#263238" stroke-linecap="round" stroke-linejoin="round"/>
<path d="M145.533 158.988H135.164V160.717H145.533V158.988Z" fill="white" stroke="#263238" stroke-linecap="round" stroke-linejoin="round"/>
<path d="M87.3643 75.9663V43.1122" stroke="#263238" stroke-linecap="round" stroke-linejoin="round"/>
<path d="M87.3643 240.392V79.2356" stroke="#263238" stroke-linecap="round" stroke-linejoin="round"/>
<path d="M162.391 172.249L167.395 239.708C167.421 239.954 167.54 240.182 167.727 240.343C167.915 240.505 168.157 240.589 168.404 240.578C168.652 240.568 168.886 240.463 169.059 240.286C169.232 240.109 169.331 239.872 169.335 239.625L168.585 172.249H162.391Z" fill="#919191" stroke="#263238" stroke-linecap="round" stroke-linejoin="round"/>
<path d="M166.166 172.249L168.807 240.487C168.963 240.403 169.093 240.279 169.183 240.127C169.273 239.975 169.32 239.802 169.319 239.625L168.585 172.249H166.166Z" fill="white" stroke="#263238" stroke-linecap="round" stroke-linejoin="round"/>
<path d="M193.844 172.249L198.848 239.708C198.874 239.954 198.993 240.182 199.18 240.343C199.368 240.505 199.61 240.589 199.857 240.578C200.105 240.568 200.339 240.463 200.512 240.286C200.685 240.109 200.784 239.872 200.788 239.625L200.038 172.249H193.844Z" fill="#919191" stroke="#263238" stroke-linecap="round" stroke-linejoin="round"/>
<path d="M197.324 172.249L200.405 240.387C200.52 240.296 200.613 240.181 200.677 240.049C200.741 239.916 200.773 239.771 200.772 239.625L200.038 172.249H197.324Z" fill="white" stroke="#263238" stroke-linecap="round" stroke-linejoin="round"/>
<path d="M110.933 172.983L105.929 239.703C105.912 239.948 105.803 240.177 105.623 240.344C105.444 240.511 105.207 240.604 104.962 240.603C104.833 240.606 104.705 240.582 104.586 240.535C104.466 240.487 104.357 240.416 104.265 240.326C104.173 240.236 104.1 240.129 104.049 240.011C103.999 239.892 103.973 239.765 103.972 239.636L104.711 172.805L110.933 172.983Z" fill="#263238" stroke="#263238" stroke-linecap="round" stroke-linejoin="round"/>
<path d="M79.508 172.983L74.504 239.703C74.4871 239.948 74.3777 240.177 74.1981 240.344C74.0185 240.511 73.782 240.604 73.5366 240.603C73.4083 240.603 73.2815 240.577 73.1633 240.527C73.0452 240.477 72.9381 240.404 72.8482 240.313C72.7583 240.221 72.6873 240.113 72.6394 239.994C72.5916 239.875 72.5677 239.748 72.5691 239.619L73.3086 172.788L79.508 172.983Z" fill="#263238" stroke="#263238" stroke-linecap="round" stroke-linejoin="round"/>
<path d="M201.878 162.285H71.4238V172.794H201.878V162.285Z" fill="#919191" stroke="#263238" stroke-linecap="round" stroke-linejoin="round"/>
<path d="M201.878 162.285H164.493V172.794H201.878V162.285Z" fill="white" stroke="#263238" stroke-linecap="round" stroke-linejoin="round"/>
<path d="M201.878 163.953H71.4238V166.85H201.878V163.953Z" fill="#263238" stroke="#263238" stroke-linecap="round" stroke-linejoin="round"/>
<path d="M203.757 160.779H69.5445V164.292H203.757V160.779Z" fill="#919191" stroke="#263238" stroke-linecap="round" stroke-linejoin="round"/>
<path d="M203.752 160.779H166.895V164.292H203.752V160.779Z" fill="white" stroke="#263238" stroke-linecap="round" stroke-linejoin="round"/>
<path d="M164.181 95.632H146.067C145.123 95.632 144.218 96.0069 143.551 96.6742C142.883 97.3415 142.508 98.2466 142.508 99.1904V105.862C142.508 106.33 142.599 106.793 142.778 107.225C142.956 107.657 143.218 108.05 143.549 108.38C143.88 108.711 144.272 108.973 144.704 109.151C145.136 109.33 145.599 109.422 146.067 109.421H155.552L151.999 119.345L158.805 109.421H164.181C164.649 109.422 165.112 109.33 165.544 109.151C165.976 108.973 166.368 108.711 166.699 108.38C167.03 108.05 167.292 107.657 167.47 107.225C167.649 106.793 167.74 106.33 167.74 105.862V99.1904C167.74 98.2466 167.365 97.3415 166.697 96.6742C166.03 96.0069 165.125 95.632 164.181 95.632Z" fill="white" stroke="#263238" stroke-linecap="round" stroke-linejoin="round"/>
<path d="M150.27 104.044C150.986 104.044 151.566 103.464 151.566 102.749C151.566 102.033 150.986 101.453 150.27 101.453C149.555 101.453 148.975 102.033 148.975 102.749C148.975 103.464 149.555 104.044 150.27 104.044Z" fill="#263238"/>
<path d="M155.124 104.044C155.839 104.044 156.419 103.464 156.419 102.749C156.419 102.033 155.839 101.453 155.124 101.453C154.409 101.453 153.829 102.033 153.829 102.749C153.829 103.464 154.409 104.044 155.124 104.044Z" fill="#263238"/>
<path d="M161.268 102.749C161.268 102.492 161.192 102.242 161.049 102.028C160.906 101.815 160.704 101.649 160.467 101.551C160.23 101.454 159.969 101.428 159.718 101.479C159.466 101.529 159.235 101.653 159.054 101.835C158.873 102.016 158.75 102.248 158.701 102.499C158.652 102.751 158.678 103.012 158.777 103.248C158.876 103.485 159.043 103.687 159.257 103.829C159.47 103.97 159.721 104.045 159.978 104.044C160.148 104.044 160.316 104.011 160.473 103.946C160.63 103.88 160.772 103.785 160.892 103.664C161.012 103.544 161.107 103.401 161.171 103.244C161.236 103.087 161.269 102.919 161.268 102.749Z" fill="#263238"/>
<path d="M250.2 240.748H265.212" stroke="#263238" stroke-linecap="round" stroke-linejoin="round"/>
<path d="M13.344 240.748H242.416" stroke="#263238" stroke-linecap="round" stroke-linejoin="round"/>
<path d="M101.548 142.492C99.9188 139.712 95.126 129.009 95.126 129.009C95.2705 127.865 95.5048 126.735 95.8266 125.628C96.2214 124.516 97.2166 121.147 97.0164 120.446C96.8163 119.746 93.9306 118.456 93.636 118.356C93.3413 118.256 94.0307 116.565 92.9354 116.165C91.8401 115.765 91.4453 116.365 91.4453 116.365L91.0283 119.145L89.7495 121.147C89.217 120.742 88.66 120.371 88.0815 120.035C87.1864 119.534 85.0958 119.334 84.9957 120.135C84.8956 120.936 86.6637 121.625 87.2809 122.125C87.898 122.626 88.6764 125.011 89.377 125.712C90.0136 126.406 90.6113 127.136 91.1673 127.897L91.5676 129.192C91.5676 129.192 92.9298 142.308 93.0911 145.572C93.2523 148.836 93.7416 157.47 94.7202 158.771C95.6987 160.072 95.8655 160.895 98.6122 159.917C101.359 158.938 101.87 157.632 102.504 154.696C103.138 151.76 103.177 145.261 101.548 142.492Z" fill="white" stroke="#263238" stroke-linecap="round" stroke-linejoin="round"/>
<path d="M102.526 154.713C103.177 151.782 103.177 145.261 101.548 142.481C101.37 142.175 101.153 141.78 100.908 141.313C97.2222 140.24 93.7194 141.991 93.7194 141.991L92.8298 142.38C92.9465 143.743 93.0355 144.882 93.0688 145.577C93.2356 148.836 93.7194 157.476 94.6979 158.777C95.6765 160.078 95.8433 160.901 98.5899 159.922C101.337 158.944 101.87 157.648 102.526 154.713Z" fill="#92E3A9" stroke="#263238" stroke-linecap="round" stroke-linejoin="round"/>
<path d="M89.6605 98.412C90.062 99.8868 90.286 101.404 90.3277 102.932C90.3277 105.106 89.6605 106.446 90.6669 107.113C91.6733 107.781 92.5073 107.786 92.3349 109.126C92.2689 109.866 91.9757 110.567 91.4953 111.133C91.4953 111.133 91.1617 117.994 90.8281 118.667C90.4945 119.34 86.1411 118.5 85.1347 118.328C84.1283 118.156 81.2872 119.501 79.4413 115.82C77.5953 112.14 79.1077 106.613 82.4548 103.766C84.757 101.851 87.1626 100.064 89.6605 98.412Z" fill="white" stroke="#263238" stroke-linecap="round" stroke-linejoin="round"/>
<path d="M90.3278 102.904C90.3278 102.904 89.4215 102.226 88.9433 103.416" stroke="#263238" stroke-linecap="round" stroke-linejoin="round"/>
<path d="M89.516 105.673C89.3859 106.348 89.4279 107.044 89.6383 107.697" stroke="#263238" stroke-linecap="round" stroke-linejoin="round"/>
<path d="M91.184 113.535C91.0354 113.583 90.8784 113.599 90.7233 113.582C90.5682 113.565 90.4184 113.515 90.2836 113.437C90.1488 113.358 90.0321 113.252 89.941 113.125C89.85 112.999 89.7866 112.854 89.7551 112.701" stroke="#263238" stroke-linecap="round" stroke-linejoin="round"/>
<path d="M93.0799 145.005C93.0799 145.005 92.5239 147.551 92.0291 148.897C91.5343 150.242 82.6605 152.711 78.7963 153.222C76.2507 153.54 73.6888 153.709 71.1235 153.728L71.3681 160.767C71.3681 160.767 78.8519 160.918 79.3801 160.767C79.9083 160.617 92.5073 154.985 92.5073 154.985L97.9449 154.273C97.9449 154.273 100.23 153.717 100.319 151.944C100.408 150.17 98.3897 145.127 97.4723 144.343C96.5549 143.559 94.6201 141.48 93.458 142.759C92.296 144.037 93.0799 145.005 93.0799 145.005Z" fill="white" stroke="#263238" stroke-linecap="round" stroke-linejoin="round"/>
<path d="M76.3944 157.643C76.3944 154.601 77.1728 154.524 78.0624 153.317C75.7637 153.574 73.4532 153.711 71.1402 153.728L70.9567 160.189C70.9567 160.189 75.0544 160.567 77.5509 160.745C77.3452 161.062 76.3944 159.6 76.3944 157.643Z" fill="#92E3A9" stroke="#263238" stroke-linecap="round" stroke-linejoin="round"/>
<path d="M100.558 171.32C97.5977 167.993 93.8345 165.48 89.6272 164.02L79.8638 168.184C79.1056 166.323 78.0995 164.572 76.8726 162.98L75.0489 160.756L76.222 154.379C76.222 154.379 83.2499 149.564 84.1562 147.479L84.1895 147.412C85.6018 149.597 91.7289 159.055 92.8798 159.972C94.1808 161.018 98.084 161.145 99.7742 159.583C101.464 158.021 102.248 156.981 101.859 154.64C101.859 154.64 99.2571 149.041 97.8226 146.567C96.3882 144.093 93.269 135.247 91.7066 132.511C90.5946 130.554 90.1332 129.175 89.3436 128.253C88.7955 127.308 88.1488 126.425 87.4143 125.617C85.852 123.949 81.5541 123.532 80.6422 123.143C79.7304 122.754 79.6025 122.62 74.3984 121.063C69.1942 119.507 63.334 118.589 59.1695 121.842C59.1695 121.842 53.5762 128.48 51.3855 139.411C49.1949 150.342 49.0392 161.407 48.7834 163.358C48.5277 165.31 46.3092 174.812 45.6587 180.277C45.0082 185.743 50.7128 191.231 54.2267 192.932C57.7406 194.633 72.836 194.884 81.6875 192.932C90.539 190.98 104.595 182.129 104.595 182.129C104.595 182.129 105.112 176.658 100.558 171.32Z" fill="#92E3A9" stroke="#263238" stroke-linecap="round" stroke-linejoin="round"/>
<path d="M77.5453 147.273L75.7606 147.212" stroke="#263238" stroke-linecap="round" stroke-linejoin="round"/>
<path d="M76.8726 144.432C79.3727 145.274 81.8072 146.3 84.1562 147.501L79.5747 147.346" stroke="#263238" stroke-linecap="round" stroke-linejoin="round"/>
<path d="M101.053 147.718C101.567 148.525 101.883 149.441 101.976 150.392C101.976 151.621 102.182 153.267 101.67 152.755C101.159 152.244 100.947 150.493 100.947 150.493L101.053 147.718Z" fill="white" stroke="#263238" stroke-linecap="round" stroke-linejoin="round"/>
<path d="M97.9727 146.284C97.9727 146.284 99.8965 145.238 100.753 146.495C101.609 147.751 101.381 150.259 100.753 151.499C100.124 152.739 99.4072 151.554 99.4962 150.454C99.5851 149.353 97.9727 146.284 97.9727 146.284Z" fill="white" stroke="#263238" stroke-linecap="round" stroke-linejoin="round"/>
<path d="M97.25 144.949C97.25 144.949 99.1793 143.904 100.03 145.16C100.881 146.417 100.653 148.919 100.03 150.164C99.4072 151.41 98.6844 150.22 98.7734 149.119C98.8624 148.018 97.25 144.949 97.25 144.949Z" fill="white" stroke="#263238" stroke-linecap="round" stroke-linejoin="round"/>
<path d="M96.3659 143.509C96.3659 143.509 98.2952 142.464 99.1459 143.72C99.9966 144.977 99.7742 147.485 99.1459 148.724C98.5176 149.964 97.8004 148.78 97.8893 147.679C97.9783 146.578 96.3659 143.509 96.3659 143.509Z" fill="white" stroke="#263238" stroke-linecap="round" stroke-linejoin="round"/>
<path d="M91.4842 93.1912C91.5162 95.1894 91.001 97.1583 89.9942 98.8846C87.1474 103.238 84.4731 102.732 83.3222 106.252C82.1712 109.771 80.4532 113.424 82.288 115.459C84.1228 117.494 85.624 116.293 85.624 116.293C85.624 116.293 86.7972 119.306 83.7836 122.32C80.7701 125.334 75.5826 124.16 74.2427 123.66C73.3989 123.335 72.6095 122.883 71.9019 122.32C71.9019 122.32 71.0624 124.666 66.8979 124.666C62.7335 124.666 58.0019 121.82 58.0019 116.627C58.0019 111.434 60.8431 107.925 61.5158 105.912C62.1886 103.9 60.3427 97.7114 63.1838 93.8639C66.025 90.0164 70.4118 87.1919 73.7478 87.1919C77.0838 87.1919 83.5946 89.0212 83.6224 89.0323C84.0616 89.2714 86.875 88.126 87.6367 88.176C90.4334 88.3317 91.4509 90.628 91.4842 93.1912Z" fill="#263238" stroke="#263238" stroke-linecap="round" stroke-linejoin="round"/>
<path d="M80.62 117.005C81.2271 117.086 81.8422 117.086 82.4492 117.005" stroke="#919191" stroke-linecap="round" stroke-linejoin="round"/>
<path d="M89.0712 96.1102C88.8072 97.6006 88.2578 99.0259 87.4532 100.308C84.8511 104.395 81.8932 105.868 78.3515 109.76C76.0775 112.279 76.5056 114.792 78.3515 116.109" stroke="#919191" stroke-linecap="round" stroke-linejoin="round"/>
<path d="M89.1212 91.7678C89.2296 92.3809 89.2836 93.0023 89.2825 93.6248" stroke="#919191" stroke-linecap="round" stroke-linejoin="round"/>
<path d="M85.624 95.6654C85.624 95.6654 85.068 101.42 82.655 104.762C80.2419 108.103 75.427 109.766 75.5993 113.302" stroke="#919191" stroke-linecap="round" stroke-linejoin="round"/>
<path d="M108.031 191.992C108.031 191.992 111.5 209.818 114.469 218.48C117.438 227.143 120.407 235.066 121.141 235.811C121.875 236.556 123.866 239.275 123.866 239.275C122.946 240.009 121.822 240.442 120.646 240.514C118.912 240.514 116.688 238.29 114.703 237.045C112.718 235.8 112.479 235.066 108.515 233.581C104.55 232.097 107.775 228.138 108.765 226.153C109.337 225.082 109.674 223.901 109.754 222.689C108.181 217.114 105.391 211.957 101.587 207.588C95.4096 200.66 94.1697 184.592 94.1697 184.592L106.051 180.144L108.031 191.992Z" fill="white" stroke="#263238" stroke-linecap="round" stroke-linejoin="round"/>
<path d="M120.652 234.921L119.935 235.066C119.935 235.066 115.726 229.372 112.512 227.393C111.417 226.637 110.128 226.208 108.798 226.159C107.803 228.138 104.589 232.097 108.548 233.581C112.507 235.066 112.757 235.805 114.736 237.045C116.716 238.285 118.945 240.514 120.68 240.514C121.855 240.442 122.979 240.009 123.899 239.275C123.899 239.275 121.914 236.55 121.175 235.811C120.964 235.537 120.788 235.238 120.652 234.921Z" fill="#92E3A9" stroke="#263238" stroke-linecap="round" stroke-linejoin="round"/>
<path d="M118.656 239.808C116.699 238.457 114.931 235.455 111.745 233.581C108.848 231.88 107.358 231.813 106.741 231.941C106.892 232.338 107.135 232.694 107.45 232.979C107.765 233.264 108.143 233.47 108.553 233.581C112.518 235.066 112.762 235.805 114.742 237.045C115.993 237.846 117.372 239.08 118.656 239.808Z" fill="#92E3A9" stroke="#263238" stroke-linecap="round" stroke-linejoin="round"/>
<path d="M120.652 240.514C120.525 240.51 120.399 240.497 120.274 240.476C120.399 240.499 120.525 240.512 120.652 240.514Z" fill="#92E3A9" stroke="#263238" stroke-linecap="round" stroke-linejoin="round"/>
<path d="M85.9687 165.132C85.9687 165.132 97.8671 160.918 98.9791 163.698C100.091 166.478 105.184 176.847 103.327 181.106C101.47 185.365 88.4151 168.874 86.5581 168.518C84.701 168.162 85.7519 166.377 85.9687 165.132Z" fill="white" stroke="#263238" stroke-linecap="round" stroke-linejoin="round"/>
<path d="M97.628 170.564C97.628 170.564 111.156 169.452 113.752 171.865C116.349 174.278 107.453 203.185 102.632 212.264C95.076 226.464 97.3612 230.184 97.3612 230.184C97.3612 230.184 97.9172 232.408 101.626 235.933C105.334 239.458 106.446 240.009 105.145 240.565C103.844 241.121 98.2897 240.565 97.7337 240.192C97.1777 239.819 93.1022 236.489 89.3937 235.377C85.6852 234.265 86.2412 233.52 87.9092 230.184C89.5772 226.848 89.3937 229.628 91.2452 223.885C93.4646 216.807 95.2179 209.591 96.4938 202.284C97.4779 196.329 98.9791 189.791 98.5566 183.736L97.628 170.564Z" fill="white" stroke="#263238" stroke-linecap="round" stroke-linejoin="round"/>
<path d="M107.536 179.616C106.119 176.198 103.683 173.301 100.558 171.32C94.6423 167.545 89.6272 164.02 89.6272 164.02L79.8638 168.184C79.8638 168.184 82.2435 172.221 70.0115 174.262C60.5929 175.829 51.9471 173.555 47.2822 170.814C46.6317 174.045 45.9534 177.636 45.6142 180.266C44.9637 185.732 50.6905 191.197 54.2044 192.893C57.7184 194.589 86.0299 198.097 93.6526 193.199C107.536 184.32 107.536 179.616 107.536 179.616Z" fill="#263238" stroke="#263238" stroke-linecap="round" stroke-linejoin="round"/>
<path d="M78.7574 171.248C77.4508 172.321 74.9043 173.472 70.0115 174.267C60.5929 175.835 51.9471 173.561 47.2822 170.82C47.1154 171.648 46.9486 172.488 46.7818 173.35C49.9788 175.273 56.6953 178.532 64.268 177.603C73.303 176.497 77.3173 174.028 78.7574 171.248Z" fill="#92E3A9" stroke="#263238" stroke-linecap="round" stroke-linejoin="round"/>
<path d="M71.5405 183.158C71.1068 183.714 70.6565 184.27 70.2006 184.826" stroke="white" stroke-linecap="round" stroke-linejoin="round"/>
<path d="M78.3515 172.605C76.6404 175.751 74.7314 178.785 72.6358 181.69" stroke="white" stroke-linecap="round" stroke-linejoin="round"/>
<path d="M74.276 176.124C74.276 176.124 70.94 180.572 67.4206 183.169" stroke="white" stroke-linecap="round" stroke-linejoin="round"/>
<path d="M101.626 235.922C97.9172 232.408 97.3612 230.184 97.3612 230.184C97.237 230.069 97.1384 229.928 97.072 229.773C96.8218 230.034 96.0657 230.529 94.2142 229.817C92.6074 229.2 91.0839 228.149 89.4771 227.443C89.0934 228.127 88.7209 228.555 87.9092 230.184C86.2412 233.52 85.6852 234.265 89.3937 235.377C93.1022 236.489 97.1777 239.825 97.7337 240.192C98.2897 240.559 103.85 241.121 105.145 240.565C106.441 240.009 105.334 239.441 101.626 235.922Z" fill="#92E3A9" stroke="#263238" stroke-linecap="round" stroke-linejoin="round"/>
<path d="M105.04 181.501L111.345 177.609" stroke="#263238" stroke-linecap="round" stroke-linejoin="round"/>
<path d="M29.7182 146.261C29.7182 146.261 49.8009 143.748 62.6334 147.373L64.585 196.196H34.472C34.472 196.196 36.4124 169.969 29.7182 146.261Z" fill="#919191" stroke="#263238" stroke-linecap="round" stroke-linejoin="round"/>
<path d="M62.6334 147.373C49.8009 143.748 29.7182 146.261 29.7182 146.261C31.8673 154.163 33.2947 162.243 33.9827 170.403C45.1966 176.002 55.4673 183.318 64.4237 192.087L62.6334 147.373Z" fill="#757575" stroke="#263238" stroke-linecap="round" stroke-linejoin="round"/>
<path d="M100.503 241.86C100.275 241.861 100.053 241.792 99.8665 241.663C99.6796 241.533 99.5368 241.35 99.4573 241.137C95.0093 229.15 93.8973 198.031 93.8305 196.713C93.8202 196.418 93.9275 196.131 94.1287 195.915C94.33 195.699 94.6087 195.572 94.9036 195.562C95.1986 195.552 95.4855 195.659 95.7013 195.86C95.9172 196.061 96.0442 196.34 96.0545 196.635C96.0545 196.957 97.211 228.711 101.542 240.359C101.645 240.635 101.633 240.941 101.51 241.209C101.387 241.477 101.163 241.685 100.886 241.788C100.764 241.836 100.634 241.861 100.503 241.86Z" fill="white" stroke="#263238" stroke-linecap="round" stroke-linejoin="round"/>
<path d="M76.2888 241.86C76.0625 241.86 75.8418 241.79 75.656 241.661C75.4702 241.532 75.3282 241.349 75.249 241.137C70.801 229.15 69.6891 198.031 69.6168 196.713C69.6064 196.418 69.7137 196.131 69.9149 195.915C70.1162 195.699 70.3949 195.572 70.6899 195.562C70.9848 195.552 71.2717 195.659 71.4876 195.86C71.7034 196.061 71.8305 196.34 71.8408 196.635C71.8408 196.957 72.9972 228.711 77.3341 240.359C77.4365 240.635 77.4249 240.941 77.3019 241.209C77.1788 241.477 76.9544 241.685 76.678 241.788C76.554 241.836 76.4219 241.861 76.2888 241.86Z" fill="white" stroke="#263238" stroke-linecap="round" stroke-linejoin="round"/>
<path d="M100.202 196.173H33.9438V193.949H97.9894C98.5793 193.949 99.145 194.184 99.562 194.601C99.9791 195.018 100.213 195.584 100.213 196.173H100.202Z" fill="#919191" stroke="#263238" stroke-linecap="round" stroke-linejoin="round"/>
<path d="M100.197 195.634H33.9438V197.841H100.197V195.634Z" fill="white" stroke="#263238" stroke-linecap="round" stroke-linejoin="round"/>
<path d="M62.1385 241.86C61.9712 241.864 61.8052 241.829 61.6529 241.76C61.5007 241.69 61.3661 241.587 61.2592 241.458C61.1523 241.33 61.0758 241.178 61.0355 241.016C60.9953 240.853 60.9922 240.684 61.0265 240.52C67.3149 210.73 61.5825 148.085 61.5047 147.457C61.4912 147.311 61.5066 147.163 61.55 147.023C61.5934 146.883 61.664 146.753 61.7577 146.64C61.8514 146.528 61.9664 146.434 62.0961 146.366C62.2259 146.298 62.3678 146.255 62.5138 146.242C62.8088 146.215 63.1024 146.306 63.3303 146.495C63.5581 146.684 63.7014 146.956 63.7287 147.251C63.7899 147.885 69.5667 210.857 63.2116 240.976C63.1598 241.223 63.0253 241.446 62.8303 241.606C62.6352 241.767 62.3912 241.857 62.1385 241.86Z" fill="white" stroke="#263238" stroke-linecap="round" stroke-linejoin="round"/>
<path d="M27.6666 241.048C27.5629 241.049 27.4598 241.034 27.3608 241.004C27.0781 240.923 26.8387 240.734 26.6949 240.478C26.5512 240.222 26.5147 239.919 26.5935 239.636C41.0495 188.317 28.7786 146.995 28.6562 146.584C28.5862 146.307 28.6252 146.014 28.7652 145.765C28.9053 145.517 29.1356 145.331 29.4086 145.248C29.6815 145.164 29.9761 145.189 30.2315 145.316C30.4868 145.444 30.6832 145.665 30.7802 145.933C30.908 146.35 43.3902 188.262 28.7341 240.236C28.6687 240.47 28.5291 240.675 28.3365 240.821C28.1438 240.968 27.9086 241.048 27.6666 241.048Z" fill="white" stroke="#263238" stroke-linecap="round" stroke-linejoin="round"/>
<path d="M230.951 149.369C230.951 149.369 224.118 145.572 223.612 154.179C223.106 162.786 221.844 218.725 221.844 218.725" stroke="#263238" stroke-width="2" stroke-linecap="round" stroke-linejoin="round"/>
<path d="M220.065 154.935C220.065 154.935 225.625 167.339 223.106 217.969" stroke="#263238" stroke-width="2" stroke-linecap="round" stroke-linejoin="round"/>
<path d="M225.541 151.104C225.541 151.104 222.923 152.772 221.438 150.859C219.954 148.947 222.444 145.433 220.248 143.932C218.052 142.431 214.255 144.721 214.255 144.721C214.255 144.721 217.174 145.578 217.079 147.173C216.985 148.769 215.578 149.369 215.411 148.674C215.244 147.979 213.826 144.465 211.458 145.928C210.773 146.331 210.178 146.869 209.708 147.51C209.238 148.15 208.902 148.879 208.722 149.653C208.722 149.653 214.243 149.064 214.577 151.137C214.911 153.211 212.314 150.776 210.035 150.643C207.755 150.509 205.675 150.843 205.826 152.222C205.876 153.442 205.804 154.664 205.609 155.869C206.857 154.833 208.435 154.276 210.057 154.301C212.564 154.451 212.47 156.047 210.19 155.914C207.911 155.78 205.953 157.948 205.953 157.948C205.953 157.948 208.033 161.501 210.674 163.258C213.315 165.015 214.266 164.37 214.566 163.03C214.866 161.69 214.166 158.204 215.761 158.299C217.357 158.393 213.12 164.315 215.155 164.665C217.19 165.015 218.83 164.426 219.364 163.086L219.92 161.746C219.92 161.746 219.209 158.271 219.52 156.92C219.831 155.569 220.204 156.959 220.565 158.588C220.927 160.217 221.155 164.109 221.85 163.92C222.545 163.731 224.774 160.895 225.297 159.778C225.819 158.66 222.361 155.263 222.4 154.579C222.439 153.895 225.108 155.196 225.525 155.908C225.828 156.449 226.1 157.005 226.342 157.576C226.342 157.576 228.01 156.531 227.966 153.328C227.921 150.126 225.541 151.104 225.541 151.104Z" fill="#92E3A9"/>
<path opacity="0.3" d="M225.541 151.104C225.541 151.104 222.923 152.772 221.438 150.859C219.954 148.947 222.444 145.433 220.248 143.932C218.052 142.431 214.255 144.721 214.255 144.721C214.255 144.721 217.174 145.578 217.079 147.173C216.985 148.769 215.578 149.369 215.411 148.674C215.244 147.979 213.826 144.465 211.458 145.928C210.773 146.331 210.178 146.869 209.708 147.51C209.238 148.15 208.902 148.879 208.722 149.653C208.722 149.653 214.243 149.064 214.577 151.137C214.911 153.211 212.314 150.776 210.035 150.643C207.755 150.509 205.675 150.843 205.826 152.222C205.876 153.442 205.804 154.664 205.609 155.869C206.857 154.833 208.435 154.276 210.057 154.301C212.564 154.451 212.47 156.047 210.19 155.914C207.911 155.78 205.953 157.948 205.953 157.948C205.953 157.948 208.033 161.501 210.674 163.258C213.315 165.015 214.266 164.37 214.566 163.03C214.866 161.69 214.166 158.204 215.761 158.299C217.357 158.393 213.12 164.315 215.155 164.665C217.19 165.015 218.83 164.426 219.364 163.086L219.92 161.746C219.92 161.746 219.209 158.271 219.52 156.92C219.831 155.569 220.204 156.959 220.565 158.588C220.927 160.217 221.155 164.109 221.85 163.92C222.545 163.731 224.774 160.895 225.297 159.778C225.819 158.66 222.361 155.263 222.4 154.579C222.439 153.895 225.108 155.196 225.525 155.908C225.828 156.449 226.1 157.005 226.342 157.576C226.342 157.576 228.01 156.531 227.966 153.328C227.921 150.126 225.541 151.104 225.541 151.104Z" fill="#263238"/>
<path d="M212.286 158.616C213.993 156.508 216.501 153.656 218.608 152.294" stroke="#263238" stroke-linecap="round" stroke-linejoin="round"/>
<path d="M210.313 161.179C210.313 161.179 210.746 160.573 211.458 159.661" stroke="#263238" stroke-linecap="round" stroke-linejoin="round"/>
<path d="M219.72 152.817C219.72 152.817 222.255 156.397 222.722 160.084" stroke="#263238" stroke-linecap="round" stroke-linejoin="round"/>
<path d="M216.84 154.935C216.84 154.935 217.552 154.518 217.285 159.077" stroke="#263238" stroke-linecap="round" stroke-linejoin="round"/>
<path d="M218.703 150.676C218.703 150.676 220.154 149.392 219.386 146.828" stroke="#263238" stroke-linecap="round" stroke-linejoin="round"/>
<path d="M216.745 152.872L215.711 150.982" stroke="#263238" stroke-linecap="round" stroke-linejoin="round"/>
<path d="M214.572 154.802C214.572 154.802 211.291 152.322 209.24 152.199" stroke="#263238" stroke-linecap="round" stroke-linejoin="round"/>
<path d="M234.86 144.349C234.86 144.349 234.754 148.107 231.819 148.291C228.883 148.474 227.07 143.581 224.068 144.76C221.066 145.939 220.776 151.299 220.776 151.299C220.776 151.299 223.623 148.958 225.158 150.137C226.692 151.315 226.336 153.139 225.508 152.85C224.68 152.561 220.22 151.566 220.065 154.935C220.003 155.896 220.135 156.859 220.456 157.767C220.776 158.674 221.276 159.508 221.927 160.217C221.927 160.217 225.102 154.284 227.415 155.363C229.728 156.442 225.508 157.387 223.818 159.578C222.128 161.768 221.038 164.076 222.533 164.871C223.79 165.648 224.963 166.552 226.036 167.567C226.036 167.567 225.636 164.465 227.493 162.057C229.35 159.65 230.879 160.829 229.194 163.019C227.51 165.21 228.344 168.651 228.344 168.651C228.344 168.651 233.314 168.991 236.873 167.539C240.431 166.088 240.453 164.709 239.308 163.481C238.163 162.252 234.204 160.595 235.383 159.033C236.561 157.47 239.608 165.777 241.348 163.976C243.089 162.174 243.611 160.134 242.633 158.682L241.654 157.237C241.654 157.237 237.696 155.569 236.55 154.346C235.405 153.122 237.056 153.69 238.93 154.435C240.804 155.18 244.857 157.609 245.146 156.781C245.435 155.952 244.106 151.777 243.35 150.509C242.594 149.242 236.823 150.37 236.167 149.864C235.51 149.358 238.63 147.574 239.625 147.64C240.371 147.702 241.114 147.804 241.849 147.946C241.849 147.946 241.938 145.566 238.702 143.426C235.466 141.285 234.86 144.349 234.86 144.349Z" fill="#92E3A9"/>
<path opacity="0.2" d="M234.86 144.349C234.86 144.349 234.754 148.107 231.819 148.291C228.883 148.474 227.07 143.581 224.068 144.76C221.066 145.939 220.776 151.299 220.776 151.299C220.776 151.299 223.623 148.958 225.158 150.137C226.692 151.315 226.336 153.139 225.508 152.85C224.68 152.561 220.22 151.566 220.065 154.935C220.003 155.896 220.135 156.859 220.456 157.767C220.776 158.674 221.276 159.508 221.927 160.217C221.927 160.217 225.102 154.284 227.415 155.363C229.728 156.442 225.508 157.387 223.818 159.578C222.128 161.768 221.038 164.076 222.533 164.871C223.79 165.648 224.963 166.552 226.036 167.567C226.036 167.567 225.636 164.465 227.493 162.057C229.35 159.65 230.879 160.829 229.194 163.019C227.51 165.21 228.344 168.651 228.344 168.651C228.344 168.651 233.314 168.991 236.873 167.539C240.431 166.088 240.453 164.709 239.308 163.481C238.163 162.252 234.204 160.595 235.383 159.033C236.561 157.47 239.608 165.777 241.348 163.976C243.089 162.174 243.611 160.134 242.633 158.682L241.654 157.237C241.654 157.237 237.696 155.569 236.55 154.346C235.405 153.122 237.056 153.69 238.93 154.435C240.804 155.18 244.857 157.609 245.146 156.781C245.435 155.952 244.106 151.777 243.35 150.509C242.594 149.242 236.823 150.37 236.167 149.864C235.51 149.358 238.63 147.574 239.625 147.64C240.371 147.702 241.114 147.804 241.849 147.946C241.849 147.946 241.938 145.566 238.702 143.426C235.466 141.285 234.86 144.349 234.86 144.349Z" fill="#263238"/>
<path d="M233.348 162.736C232.408 159.572 231.252 155.124 231.329 152.099" stroke="#263238" stroke-linecap="round" stroke-linejoin="round"/>
<path d="M234.565 166.466C234.565 166.466 234.254 165.61 233.826 164.281" stroke="#263238" stroke-linecap="round" stroke-linejoin="round"/>
<path d="M232.608 151.343C232.608 151.343 237.918 151.243 241.927 153.289" stroke="#263238" stroke-linecap="round" stroke-linejoin="round"/>
<path d="M232.775 155.68C232.775 155.68 232.842 154.685 237.223 158.06" stroke="#263238" stroke-linecap="round" stroke-linejoin="round"/>
<path d="M229.795 150.915C229.795 150.915 229.495 148.591 226.409 147.612" stroke="#263238" stroke-linecap="round" stroke-linejoin="round"/>
<path d="M230.634 154.357L228.038 154.101" stroke="#263238" stroke-linecap="round" stroke-linejoin="round"/>
<path d="M231.085 157.848C231.085 157.848 226.364 159.444 224.846 161.418" stroke="#263238" stroke-linecap="round" stroke-linejoin="round"/>
<path d="M203.363 169.369C203.363 169.369 218.297 179.238 218.047 217.463" stroke="#263238" stroke-width="2" stroke-linecap="round" stroke-linejoin="round"/>
<path d="M221.777 166.761C221.777 166.761 221.299 171.087 217.885 171.02C214.471 170.953 212.881 165.138 209.278 166.216C205.675 167.295 204.858 173.444 204.858 173.444C204.858 173.444 208.372 171.009 210.029 172.521C211.686 174.034 211.102 176.096 210.174 175.685C209.245 175.273 204.191 173.7 203.696 177.575C203.535 178.678 203.6 179.802 203.887 180.88C204.174 181.957 204.676 182.964 205.364 183.841C205.364 183.841 209.59 177.297 212.153 178.765C214.716 180.233 209.762 180.917 207.605 183.285C205.448 185.654 203.985 188.212 205.62 189.268C206.998 190.285 208.269 191.44 209.412 192.715C209.412 192.715 209.239 189.101 211.608 186.494C213.977 183.886 215.639 185.382 213.482 187.767C211.324 190.152 211.969 194.183 211.969 194.183C211.969 194.183 217.68 195.045 221.922 193.71C226.164 192.376 226.314 190.786 225.108 189.262C223.901 187.739 219.492 185.448 220.999 183.791C222.506 182.134 225.236 191.976 227.415 190.057C229.595 188.139 230.384 185.843 229.394 184.075L228.405 182.307C228.405 182.307 223.996 180.022 222.789 178.493C221.583 176.964 223.434 177.787 225.525 178.821C227.615 179.855 232.069 183.041 232.475 182.118C232.881 181.195 231.746 176.258 230.996 174.706C230.245 173.155 223.479 173.928 222.767 173.283C222.055 172.638 225.83 170.875 226.97 171.059C227.819 171.2 228.66 171.386 229.489 171.615C229.489 171.615 229.811 168.879 226.281 166.099C222.75 163.319 221.777 166.761 221.777 166.761Z" fill="#92E3A9"/>
<path opacity="0.3" d="M221.777 166.761C221.777 166.761 221.299 171.087 217.885 171.02C214.471 170.953 212.881 165.138 209.278 166.216C205.675 167.295 204.858 173.444 204.858 173.444C204.858 173.444 208.372 171.009 210.029 172.521C211.686 174.034 211.102 176.096 210.174 175.685C209.245 175.273 204.191 173.7 203.696 177.575C203.535 178.678 203.6 179.802 203.887 180.88C204.174 181.957 204.676 182.964 205.364 183.841C205.364 183.841 209.59 177.297 212.153 178.765C214.716 180.233 209.762 180.917 207.605 183.285C205.448 185.654 203.985 188.212 205.62 189.268C206.998 190.285 208.269 191.44 209.412 192.715C209.412 192.715 209.239 189.101 211.608 186.494C213.977 183.886 215.639 185.382 213.482 187.767C211.324 190.152 211.969 194.183 211.969 194.183C211.969 194.183 217.68 195.045 221.922 193.71C226.164 192.376 226.314 190.786 225.108 189.262C223.901 187.739 219.492 185.448 220.999 183.791C222.506 182.134 225.236 191.976 227.415 190.057C229.595 188.139 230.384 185.843 229.394 184.075L228.405 182.307C228.405 182.307 223.996 180.022 222.789 178.493C221.583 176.964 223.434 177.787 225.525 178.821C227.615 179.855 232.069 183.041 232.475 182.118C232.881 181.195 231.746 176.258 230.996 174.706C230.245 173.155 223.479 173.928 222.767 173.283C222.055 172.638 225.83 170.875 226.97 171.059C227.819 171.2 228.66 171.386 229.489 171.615C229.489 171.615 229.811 168.879 226.281 166.099C222.75 163.319 221.777 166.761 221.777 166.761Z" fill="#263238"/>
<path d="M218.297 187.833C217.496 184.119 216.601 178.865 216.968 175.368" stroke="#263238" stroke-linecap="round" stroke-linejoin="round"/>
<path d="M219.353 192.254C219.353 192.254 219.075 191.236 218.703 189.663" stroke="#263238" stroke-linecap="round" stroke-linejoin="round"/>
<path d="M218.508 174.617C218.508 174.617 224.624 175.007 229.072 177.742" stroke="#263238" stroke-linecap="round" stroke-linejoin="round"/>
<path d="M218.302 179.588C218.302 179.588 218.475 178.448 223.212 182.757" stroke="#263238" stroke-linecap="round" stroke-linejoin="round"/>
<path d="M215.311 173.861C215.311 173.861 215.183 171.148 211.719 169.725" stroke="#263238" stroke-linecap="round" stroke-linejoin="round"/>
<path d="M215.956 177.909L212.987 177.37" stroke="#263238" stroke-linecap="round" stroke-linejoin="round"/>
<path d="M216.151 181.979C216.151 181.979 210.552 183.38 208.611 185.509" stroke="#263238" stroke-linecap="round" stroke-linejoin="round"/>
<path d="M209.184 199.487C209.184 199.487 218.803 206.826 219.815 217.713L217.791 181.256" stroke="#263238" stroke-width="2" stroke-linecap="round" stroke-linejoin="round"/>
<path d="M232.469 194.172C219.815 191.892 219.815 217.713 219.815 217.713" stroke="#263238" stroke-width="2" stroke-linecap="round" stroke-linejoin="round"/>
<path d="M221.332 217.463C221.332 217.463 213.993 164.053 235.232 164.053" stroke="#263238" stroke-width="2" stroke-linecap="round" stroke-linejoin="round"/>
<path d="M227.649 192.637C225.919 190.691 222.244 190.691 220.087 195.662C217.93 200.633 219.87 199.771 219.87 199.771C219.87 199.771 223.973 198.47 226.57 197.608C229.167 196.746 232.619 194.583 232.836 195.879C233.053 197.174 231.107 198.47 228.727 198.903C226.348 199.337 220.087 201.066 220.732 202.384C221.377 203.702 222.895 207.571 222.895 207.571C224.741 206.003 226.689 204.56 228.727 203.251C231.541 201.522 233.27 202.167 231.757 204.113C230.245 206.059 225.919 208.216 226.787 210.813C227.654 213.409 232.836 216.645 232.836 216.645C232.836 216.645 233.487 211.247 234.999 209.517C236.511 207.788 236.511 209.734 236.078 212.759C235.861 214.047 235.716 215.347 235.644 216.651L241.693 218.814C242.683 217.308 243.765 215.865 244.935 214.494L246.047 213.382C246.047 213.382 241.293 209.278 241.076 206.71C240.859 204.141 244.318 206.71 245.396 207.143C246.475 207.577 248.204 210.602 248.204 210.602C248.204 210.602 249.288 205.631 249.505 203.902L249.722 202.173C249.722 202.173 245.179 200.444 243.45 200.444C241.721 200.444 240.859 201.739 240.859 200.015C240.859 198.292 242.588 197.202 244.534 197.419C246.295 197.713 248.03 198.146 249.722 198.714C249.722 198.714 251.017 197.636 250.584 194.394C250.15 191.153 249.071 191.153 246.48 192.015C243.889 192.876 242.155 194.828 240.209 194.828C238.263 194.828 239.347 192.448 240.642 191.803C241.938 191.158 245.179 189.857 245.83 189.64C246.48 189.424 242.372 186.399 240.209 185.965C238.046 185.532 235.249 187.077 235.455 189.207C235.861 193.716 229.378 194.6 227.649 192.637Z" fill="#92E3A9"/>
<path d="M241.56 214.888C241.626 215.537 241.671 216.188 241.693 216.84" stroke="#263238" stroke-linecap="round" stroke-linejoin="round"/>
<path d="M237.217 199.376C239.122 203.655 240.495 208.151 241.304 212.765" stroke="#263238" stroke-linecap="round" stroke-linejoin="round"/>
<path d="M236.439 197.641C235.372 195.339 234.565 193.933 234.565 193.933C235.745 193.377 236.725 192.473 237.373 191.342C237.879 190.318 238.62 189.428 239.536 188.745" stroke="#263238" stroke-linecap="round" stroke-linejoin="round"/>
<path d="M227.004 201.272C227.004 201.272 234.788 198.031 234.788 198.675" stroke="#263238" stroke-linecap="round" stroke-linejoin="round"/>
<path d="M239.08 197.174C239.08 197.174 242.538 195.445 245.563 195.445" stroke="#263238" stroke-linecap="round" stroke-linejoin="round"/>
<path d="M237.807 202.384C236.307 203.617 234.931 204.993 233.698 206.493C232.437 207.98 231.417 209.655 230.673 211.458" stroke="#263238" stroke-linecap="round" stroke-linejoin="round"/>
<path d="M240.192 203.229C240.192 203.229 244.735 201.928 247.109 204.091" stroke="#263238" stroke-linecap="round" stroke-linejoin="round"/>
<path d="M248.404 174.028C246.052 172.638 243.45 172.605 242.171 171.137C240.893 169.669 243.4 168.913 244.74 169.469C246.08 170.025 249.188 171.621 249.772 171.965C250.356 172.31 249.955 167.234 248.866 165.293C247.776 163.353 244.79 162.263 243.306 163.831C240.164 167.128 235.26 162.802 235.594 160.223C235.927 157.643 233.52 154.868 228.366 156.492C223.212 158.115 225.124 159.022 225.124 159.022C225.124 159.022 228.794 161.273 231.151 162.663C233.509 164.053 237.401 165.249 236.561 166.261C235.722 167.273 233.47 166.655 231.585 165.149C229.7 163.642 224.29 160.039 223.734 161.379C223.178 162.719 221.232 166.411 221.232 166.411C223.628 166.778 225.996 167.304 228.321 167.984C231.468 168.974 232.113 170.703 229.656 170.837C227.198 170.97 222.728 169.124 221.316 171.476C219.904 173.828 220.877 179.866 220.877 179.866C220.877 179.866 225.38 176.819 227.676 176.825C229.973 176.83 228.505 178.109 225.936 179.766C224.822 180.446 223.747 181.189 222.717 181.99L225.052 187.978C226.838 187.736 228.637 187.606 230.44 187.589L231.963 187.7C231.963 187.7 231.963 181.417 233.765 179.555C235.566 177.692 235.889 182.001 236.272 183.102C236.656 184.203 235.505 187.489 235.505 187.489C235.505 187.489 239.953 185.048 241.41 184.075L242.861 183.107C242.861 183.107 241.193 178.543 240.053 177.242C238.913 175.941 237.379 176.13 238.68 175.018C239.981 173.906 241.938 174.462 243.05 176.096C243.982 177.618 244.791 179.211 245.468 180.861C245.468 180.861 247.136 181.134 249.299 178.682C251.462 176.23 250.756 175.418 248.404 174.028ZM227.96 180.945C226.231 180.077 230.334 178.348 230.334 178.348C231.852 178.137 229.684 181.812 227.96 180.945ZM230.868 172.877C230.134 172.51 232.341 171.765 232.341 171.765C235.533 172.36 231.602 173.244 230.862 172.877H230.868Z" fill="#92E3A9"/>
<path d="M227.904 185.348C227.46 185.821 226.993 186.282 226.52 186.727" stroke="#263238" stroke-linecap="round" stroke-linejoin="round"/>
<path d="M236.773 171.899C234.787 176.139 232.286 180.118 229.328 183.747" stroke="#263238" stroke-linecap="round" stroke-linejoin="round"/>
<path d="M237.573 170.175C238.613 167.856 239.141 166.327 239.141 166.327C240.336 166.852 241.663 166.999 242.944 166.75C244.047 166.458 245.204 166.434 246.319 166.678" stroke="#263238" stroke-linecap="round" stroke-linejoin="round"/>
<path d="M235.694 169.608C236.183 169.18 228.638 165.432 228.638 165.432" stroke="#263238" stroke-linecap="round" stroke-linejoin="round"/>
<path d="M239.669 171.876C239.669 171.876 243.244 173.355 245.229 175.64" stroke="#263238" stroke-linecap="round" stroke-linejoin="round"/>
<path d="M234.904 174.3C232.991 173.976 231.051 173.838 229.111 173.889C227.159 173.913 225.223 174.242 223.373 174.862" stroke="#263238" stroke-linecap="round" stroke-linejoin="round"/>
<path d="M235.811 176.663C235.811 176.663 239.764 179.238 239.703 182.451" stroke="#263238" stroke-linecap="round" stroke-linejoin="round"/>
<path d="M214.822 203.969C212.931 202.857 210.835 202.829 209.818 201.645C208.8 200.46 210.802 199.865 211.88 200.31C212.959 200.755 215.461 202.045 215.934 202.323C216.406 202.601 216.078 198.509 215.2 196.969C214.321 195.428 211.919 194.533 210.724 195.79C208.194 198.448 204.247 194.961 204.519 192.888C204.791 190.814 202.851 188.579 198.687 189.885C194.522 191.192 196.079 191.92 196.079 191.92C196.079 191.92 199.031 193.733 200.927 194.85C202.823 195.968 205.959 196.935 205.281 197.747C204.602 198.559 202.795 198.069 201.278 196.852C199.76 195.634 195.406 192.737 194.961 193.816C194.517 194.895 192.949 197.864 192.949 197.864C194.876 198.161 196.781 198.585 198.653 199.131C201.183 199.926 201.7 201.316 199.721 201.422C197.741 201.528 194.161 200.043 193.049 201.939C191.937 203.835 192.693 208.695 192.693 208.695C192.693 208.695 196.318 206.237 198.164 206.243C200.01 206.248 198.831 207.277 196.768 208.611C195.872 209.159 195.007 209.756 194.177 210.402L196.051 215.216C197.489 215.023 198.937 214.921 200.388 214.911L201.617 214.994C201.617 214.994 201.617 209.94 203.068 208.439C204.519 206.938 204.775 210.407 205.081 211.297C205.386 212.186 204.463 214.827 204.463 214.827C204.463 214.827 208.055 212.859 209.217 212.081L210.385 211.297C210.385 211.297 209.039 207.627 208.127 206.576C207.216 205.525 205.97 205.687 207.015 204.775C208.061 203.863 209.634 204.341 210.529 205.637C211.28 206.862 211.933 208.145 212.481 209.473C212.481 209.473 213.821 209.69 215.561 207.722C217.301 205.753 216.718 205.092 214.822 203.969ZM198.364 209.529C196.974 208.834 200.277 207.444 200.277 207.444C201.494 207.277 199.754 210.235 198.364 209.534V209.529ZM200.716 203.046C200.121 202.745 201.9 202.156 201.9 202.156C204.463 202.651 201.3 203.34 200.716 203.046Z" fill="#92E3A9"/>
<path d="M198.331 213.081C197.969 213.46 197.597 213.832 197.219 214.193" stroke="#263238" stroke-linecap="round" stroke-linejoin="round"/>
<path d="M205.464 202.256C203.867 205.668 201.856 208.871 199.476 211.792" stroke="#263238" stroke-linecap="round" stroke-linejoin="round"/>
<path d="M206.109 200.866C206.943 199.004 207.371 197.775 207.371 197.775C208.333 198.195 209.399 198.314 210.429 198.114C211.316 197.879 212.247 197.86 213.143 198.058" stroke="#263238" stroke-linecap="round" stroke-linejoin="round"/>
<path d="M198.915 197.052C198.915 197.052 204.992 200.071 204.597 200.388" stroke="#263238" stroke-linecap="round" stroke-linejoin="round"/>
<path d="M207.794 202.239C207.794 202.239 210.668 203.429 212.242 205.27" stroke="#263238" stroke-linecap="round" stroke-linejoin="round"/>
<path d="M203.957 204.191C202.419 203.93 200.858 203.821 199.298 203.863C197.728 203.878 196.17 204.143 194.683 204.647" stroke="#263238" stroke-linecap="round" stroke-linejoin="round"/>
<path d="M204.691 206.093C204.691 206.093 207.872 208.166 207.811 210.746" stroke="#263238" stroke-linecap="round" stroke-linejoin="round"/>
<path d="M207.104 168.285C207.104 168.285 204.725 170.014 203.212 168.285C201.7 166.555 203.863 163.097 201.7 161.802C199.537 160.506 196.085 162.88 196.085 162.88C196.085 162.88 198.892 163.531 198.892 165.043C198.892 166.555 197.597 167.206 197.38 166.555C197.163 165.905 195.651 162.663 193.488 164.181C192.865 164.601 192.333 165.142 191.925 165.773C191.517 166.404 191.241 167.111 191.114 167.851C191.114 167.851 196.296 166.989 196.729 168.935C197.163 170.881 194.572 168.718 192.409 168.718C190.247 168.718 188.301 169.152 188.517 170.447C188.635 171.597 188.635 172.756 188.517 173.906C189.637 172.858 191.094 172.244 192.626 172.177C195 172.177 195 173.689 192.843 173.689C190.686 173.689 188.951 175.852 188.951 175.852C188.951 175.852 191.114 179.093 193.705 180.605C196.296 182.118 197.163 181.467 197.38 180.172C197.597 178.876 196.729 175.635 198.242 175.635C199.754 175.635 196.085 181.467 198.025 181.684C199.965 181.901 201.483 181.25 201.917 179.955L202.351 178.659C202.351 178.659 201.483 175.418 201.7 174.123C201.917 172.827 202.351 174.123 202.779 175.635C203.207 177.147 203.646 180.817 204.297 180.605C204.947 180.394 206.888 177.575 207.321 176.497C207.755 175.418 204.297 172.393 204.297 171.743C204.297 171.092 206.888 172.177 207.321 172.821C207.755 173.466 208.183 174.334 208.183 174.334C208.183 174.334 209.695 173.255 209.479 170.231C209.262 167.206 207.104 168.285 207.104 168.285Z" fill="#92E3A9"/>
<path d="M194.995 176.124C196.49 174.039 198.709 171.204 200.621 169.797" stroke="#263238" stroke-linecap="round" stroke-linejoin="round"/>
<path d="M193.271 178.659C193.271 178.659 193.655 178.059 194.272 177.158" stroke="#263238" stroke-linecap="round" stroke-linejoin="round"/>
<path d="M201.7 170.231C201.7 170.231 204.297 173.472 204.942 176.93" stroke="#263238" stroke-linecap="round" stroke-linejoin="round"/>
<path d="M199.109 172.393C199.109 172.393 199.754 171.96 199.754 176.285" stroke="#263238" stroke-linecap="round" stroke-linejoin="round"/>
<path d="M200.621 168.285C200.621 168.285 201.917 166.989 201.055 164.609" stroke="#263238" stroke-linecap="round" stroke-linejoin="round"/>
<path d="M198.892 170.447L197.814 168.718" stroke="#263238" stroke-linecap="round" stroke-linejoin="round"/>
<path d="M196.946 172.393C196.946 172.393 193.705 170.231 191.759 170.231" stroke="#263238" stroke-linecap="round" stroke-linejoin="round"/>
<path d="M228.927 216.701H212.22V240.748H228.927V216.701Z" fill="#263238" stroke="#263238" stroke-width="2" stroke-linecap="round" stroke-linejoin="round"/>
</svg>
