<svg width="163" height="163" viewBox="0 0 163 163" fill="none" xmlns="http://www.w3.org/2000/svg">
<path d="M134.475 81.6498C105.024 64.6489 57.4379 64.6489 28.1794 81.6498C-1.07906 98.6507 -0.922582 126.221 28.525 143.221C57.9726 160.222 105.565 160.226 134.824 143.221C164.082 126.217 163.923 98.654 134.475 81.6498Z" fill="#F5F5F5"/>
<path d="M73.8227 142.902L29.7671 117.461L38.5724 112.356L82.6378 137.813L73.8227 142.902Z" fill="#E6E6E6"/>
<path d="M119.241 118.583V118.579L93.9434 103.974H93.9467L68.6491 89.3697L43.3515 74.7649L18.2202 89.3697L43.5145 103.974L68.8121 118.579V118.583L94.1097 133.187H94.1064L119.404 147.792L144.539 133.187L119.241 118.583Z" fill="#E6E6E6"/>
<path d="M138.341 131.486L136.835 130.247C136.741 127.874 136.649 125.357 137.044 123.026C137.438 120.695 138.348 118.364 140.037 116.679C140.737 115.971 141.608 115.375 142.599 115.257C143.59 115.14 144.692 115.642 145.034 116.578C145.376 117.513 144.852 118.622 144.278 119.492C143.059 121.347 141.601 123.039 140.405 124.91C139.146 126.88 138.434 129.15 138.341 131.486Z" fill="#BA68C8"/>
<path d="M138.341 131.808L139.847 133.047C140.962 130.697 142.498 128.516 144.62 127.01C145.377 126.538 146.085 125.992 146.733 125.38C147.339 124.728 147.763 123.828 147.587 122.957C147.362 121.836 146.172 121.096 145.028 121.089C143.883 121.083 142.814 121.663 141.931 122.393C139.202 124.607 137.657 128.369 138.341 131.808Z" fill="#BA68C8"/>
<path opacity="0.3" d="M138.341 131.808L139.847 133.047C140.962 130.697 142.498 128.516 144.62 127.01C145.377 126.538 146.085 125.992 146.733 125.38C147.339 124.728 147.763 123.828 147.587 122.957C147.362 121.836 146.172 121.096 145.028 121.089C143.883 121.083 142.814 121.663 141.931 122.393C139.202 124.607 137.657 128.369 138.341 131.808Z" fill="black"/>
<path d="M137.491 130.918C137.456 130.917 137.422 130.903 137.398 130.878C137.374 130.853 137.36 130.82 137.36 130.785C137.422 127.264 138.214 120.757 142.817 116.767C142.83 116.755 142.846 116.747 142.862 116.741C142.878 116.736 142.896 116.733 142.913 116.735C142.93 116.736 142.947 116.741 142.963 116.748C142.978 116.756 142.992 116.767 143.003 116.78C143.015 116.793 143.023 116.808 143.029 116.824C143.034 116.841 143.036 116.858 143.035 116.875C143.034 116.893 143.029 116.909 143.022 116.925C143.014 116.94 143.003 116.954 142.99 116.966C141.034 118.651 137.774 122.693 137.621 130.801C137.618 130.833 137.603 130.863 137.578 130.885C137.554 130.907 137.523 130.918 137.491 130.918Z" fill="white"/>
<path d="M139.072 132.539C139.054 132.537 139.038 132.532 139.023 132.524C139.007 132.516 138.994 132.505 138.983 132.492C138.972 132.478 138.964 132.463 138.959 132.446C138.954 132.43 138.952 132.412 138.954 132.395C139.261 129.23 140.643 124.868 145.474 122.074C145.505 122.057 145.54 122.053 145.574 122.062C145.607 122.071 145.636 122.093 145.654 122.123C145.662 122.138 145.668 122.155 145.67 122.172C145.672 122.189 145.671 122.206 145.667 122.223C145.662 122.24 145.654 122.255 145.644 122.269C145.633 122.282 145.62 122.294 145.605 122.302C140.871 125.037 139.515 129.315 139.212 132.408C139.212 132.426 139.209 132.445 139.202 132.461C139.195 132.478 139.185 132.493 139.171 132.505C139.158 132.518 139.142 132.527 139.125 132.533C139.108 132.539 139.09 132.541 139.072 132.539Z" fill="white"/>
<path d="M20.2642 74.1879C19.6741 73.6239 18.9993 73.0078 18.9602 72.1928C18.9623 71.8277 19.0758 71.4719 19.2855 71.1731C19.4952 70.8742 19.7912 70.6465 20.1338 70.5204C20.4796 70.4032 20.8455 70.3569 21.2095 70.3844C21.5736 70.4118 21.9285 70.5124 22.2528 70.6801C22.8986 71.0208 23.4739 71.481 23.948 72.0363C25.3766 73.6234 26.4107 75.5251 26.9664 77.587C27.5221 79.6488 27.5836 81.8126 27.146 83.9027C27.1328 84.0441 27.0889 84.181 27.0174 84.3037C26.9459 84.4264 26.8485 84.5321 26.732 84.6134C26.3376 84.822 25.8877 84.4536 25.6204 84.0983C25.0315 83.315 24.5897 82.4313 24.3164 81.4903C24.0784 80.6981 24.186 79.8277 23.8893 79.0812C23.1623 77.2621 21.6692 75.531 20.2642 74.1879Z" fill="#BA68C8"/>
<path d="M26.406 83.5441C26.3853 83.5445 26.3648 83.5408 26.3456 83.533C26.3264 83.5253 26.309 83.5138 26.2944 83.4992C26.2797 83.4846 26.2682 83.4672 26.2605 83.448C26.2528 83.4288 26.2491 83.4082 26.2495 83.3876C26.2302 81.0984 25.7018 78.8422 24.7026 76.7825C23.7035 74.7227 22.2587 72.9111 20.4728 71.4788C20.4564 71.4661 20.4426 71.4502 20.4324 71.4321C20.4222 71.414 20.4157 71.3941 20.4133 71.3734C20.4108 71.3528 20.4126 71.3319 20.4183 71.3119C20.424 71.2919 20.4337 71.2733 20.4467 71.2571C20.4591 71.2408 20.4747 71.2271 20.4925 71.217C20.5104 71.2068 20.53 71.2003 20.5504 71.1979C20.5708 71.1954 20.5914 71.1971 20.6111 71.2028C20.6308 71.2085 20.6492 71.2181 20.6651 71.231C22.4894 72.6921 23.9652 74.5412 24.9853 76.644C26.0054 78.7468 26.5442 81.0505 26.5625 83.3876C26.5629 83.4082 26.5592 83.4288 26.5515 83.448C26.5438 83.4672 26.5322 83.4846 26.5176 83.4992C26.503 83.5138 26.4856 83.5253 26.4664 83.533C26.4472 83.5408 26.4267 83.5445 26.406 83.5441Z" fill="white"/>
<path d="M24.4663 89.8033C23.4883 90.1293 22.2234 89.9142 21.6497 89.0437C20.9716 88.0201 21.3954 86.4357 20.4891 85.6142C19.9838 85.1513 19.2373 85.1056 18.5657 84.9622C17.8941 84.8188 17.1443 84.4536 17.0465 83.7723C16.9129 82.8725 18.0245 82.126 17.8648 81.2262C17.7051 80.3265 16.4891 80.0657 16.1272 79.2442C15.8012 78.4976 16.3815 77.5913 17.1509 77.311C17.9202 77.0306 18.7809 77.223 19.5437 77.5098C20.3065 77.7967 21.0563 78.1618 21.8681 78.2694C22.6798 78.377 23.6872 78.2075 24.3098 78.7878C25.1379 79.5636 24.6652 81.0437 25.3041 81.9793C25.7344 82.6085 26.5462 82.8269 27.1656 83.2833C27.5508 83.5623 27.8635 83.9297 28.0774 84.3545C28.2912 84.7794 28.4 85.2494 28.3946 85.725C28.375 86.7585 27.8306 87.5017 27.0547 88.0951C26.2267 88.7145 25.4867 89.474 24.4663 89.8033Z" fill="#BA68C8"/>
<path opacity="0.2" d="M24.4663 89.8033C23.4883 90.1293 22.2234 89.9142 21.6497 89.0437C20.9716 88.0201 21.3954 86.4357 20.4891 85.6142C19.9838 85.1513 19.2373 85.1056 18.5657 84.9622C17.8941 84.8188 17.1443 84.4536 17.0465 83.7723C16.9129 82.8725 18.0245 82.126 17.8648 81.2262C17.7051 80.3265 16.4891 80.0657 16.1272 79.2442C15.8012 78.4976 16.3815 77.5913 17.1509 77.311C17.9202 77.0306 18.7809 77.223 19.5437 77.5098C20.3065 77.7967 21.0563 78.1618 21.8681 78.2694C22.6798 78.377 23.6872 78.2075 24.3098 78.7878C25.1379 79.5636 24.6652 81.0437 25.3041 81.9793C25.7344 82.6085 26.5462 82.8269 27.1656 83.2833C27.5508 83.5623 27.8635 83.9297 28.0774 84.3545C28.2912 84.7794 28.4 85.2494 28.3946 85.725C28.375 86.7585 27.8306 87.5017 27.0547 88.0951C26.2267 88.7145 25.4867 89.474 24.4663 89.8033Z" fill="black"/>
<path d="M24.0164 82.7585V82.7422C23.8665 82.5271 23.7132 82.3152 23.5502 82.1098C22.08 80.2891 20.0864 78.9635 17.8387 78.3119C17.8188 78.3055 17.7978 78.3032 17.777 78.3051C17.7562 78.3071 17.736 78.3133 17.7177 78.3234C17.6993 78.3335 17.6833 78.3472 17.6705 78.3637C17.6576 78.3803 17.6483 78.3992 17.6431 78.4195C17.632 78.4597 17.637 78.5026 17.6571 78.5392C17.6772 78.5757 17.7108 78.603 17.7507 78.6151C19.933 79.249 21.8677 80.5385 23.2927 82.3087C23.3383 82.3641 23.3775 82.4228 23.4198 82.4782C21.6399 81.8262 19.8338 82.1978 18.8558 82.977C18.8397 82.9899 18.8262 83.006 18.8163 83.0242C18.8064 83.0424 18.8002 83.0624 18.7981 83.083C18.7959 83.1037 18.7979 83.1245 18.8039 83.1443C18.8099 83.1642 18.8198 83.1827 18.833 83.1986C18.8472 83.2171 18.8655 83.232 18.8864 83.2422C18.9073 83.2524 18.9304 83.2576 18.9536 83.2573C18.9904 83.2569 19.0259 83.2442 19.0547 83.2215C20.0131 82.4488 21.9887 82.1065 23.785 82.9737C24.9064 84.6165 25.5651 86.5307 25.6921 88.5157C25.6946 88.5555 25.7121 88.5928 25.7412 88.6201C25.7703 88.6473 25.8087 88.6625 25.8485 88.6624C25.8691 88.6612 25.8892 88.6559 25.9077 88.6468C25.9262 88.6378 25.9428 88.6252 25.9564 88.6097C25.97 88.5943 25.9805 88.5763 25.9872 88.5568C25.9938 88.5373 25.9966 88.5167 25.9952 88.4961C25.8657 86.44 25.1819 84.4574 24.0164 82.7585Z" fill="white"/>
<path d="M43.6938 67.8894L23.1069 79.8536L23.0808 89.9075L43.8014 101.868L64.385 89.9075L64.4143 79.8536L43.6938 67.8894Z" fill="#BA68C8"/>
<path opacity="0.2" d="M64.4144 79.8536L43.6938 67.8894L23.1069 79.8536L43.8275 91.8145L64.4144 79.8536Z" fill="white"/>
<path opacity="0.3" d="M43.8274 91.8145L43.8014 101.868L64.385 89.9074L64.4143 79.8535L43.8274 91.8145Z" fill="black"/>
<path d="M68.2905 69.2456L47.7036 81.2098L47.6775 104.108L68.3981 116.072L88.985 104.108L89.0111 81.2098L68.2905 69.2456Z" fill="#BA68C8"/>
<path opacity="0.2" d="M89.0111 81.2098L68.2905 69.2456L47.7036 81.2098L68.4241 93.174L89.0111 81.2098Z" fill="white"/>
<path opacity="0.3" d="M68.4242 93.1739L68.3981 116.072L88.985 104.108L89.0111 81.2097L68.4242 93.1739Z" fill="black"/>
<path d="M93.4805 70.7029L72.8936 82.6638L72.8675 118.586L93.5881 130.55L114.172 118.586L114.201 82.6638L93.4805 70.7029Z" fill="#BA68C8"/>
<path opacity="0.2" d="M114.201 82.6638L93.4805 70.7029L72.8936 82.6638L93.6142 94.628L114.201 82.6638Z" fill="white"/>
<path opacity="0.3" d="M93.6142 94.628L93.5881 130.55L114.172 118.586L114.201 82.6638L93.6142 94.628Z" fill="black"/>
<path d="M93.4935 70.6084L72.9066 82.5693L72.8806 118.537L93.6011 130.501L114.185 118.537L114.214 82.5693L93.4935 70.6084Z" fill="#BA68C8"/>
<path opacity="0.2" d="M114.214 82.5693L93.4936 70.6084L72.9066 82.5693L93.6272 94.5335L114.214 82.5693Z" fill="white"/>
<path opacity="0.3" d="M93.6272 94.5335L93.6011 130.501L114.185 118.537L114.214 82.5693L93.6272 94.5335Z" fill="black"/>
<path d="M119.254 67.094L98.6704 79.0582L98.6411 133.474L119.362 145.438L139.949 133.474L139.975 79.0582L119.254 67.094Z" fill="#BA68C8"/>
<path opacity="0.2" d="M139.975 79.0582L119.254 67.094L98.6704 79.0582L119.391 91.0224L139.975 79.0582Z" fill="white"/>
<path opacity="0.3" d="M119.391 91.0223L119.362 145.438L139.949 133.474L139.975 79.0581L119.391 91.0223Z" fill="black"/>
<path d="M81.6174 81.438L80.196 80.4861L69.4706 102.256L70.8789 103.208L77.1772 99.5734C76.9034 109.807 74.0639 114.938 71.3092 117.885L70.8691 117.996L70.6116 118.054L70.0965 118.165L69.8651 118.214L69.4706 118.286L69.1805 118.335L68.7632 118.4L68.4861 118.442C68.3329 118.465 68.1601 118.481 68.0199 118.501L67.7754 118.534L67.1234 118.599H67.0549C66.817 118.622 66.5757 118.638 66.3345 118.654C66.028 118.677 65.7183 118.69 65.4054 118.703H65.125H64.4437H64.1666C63.7917 118.703 63.4135 118.703 63.0354 118.683H62.8398C62.4877 118.683 62.1356 118.651 61.7803 118.628H61.601C61.2391 118.602 60.8772 118.573 60.5121 118.534L60.2513 118.507C59.9253 118.472 59.5993 118.436 59.2733 118.393L59.081 118.367C58.7256 118.318 58.3703 118.266 58.0117 118.208L57.7542 118.162C57.4608 118.113 57.1706 118.061 56.8772 118.005L56.6034 117.953C56.2546 117.885 55.9025 117.81 55.5471 117.732L55.3874 117.696C55.0842 117.627 54.7778 117.552 54.4713 117.477L54.1453 117.399L53.3271 117.184L53.0761 117.115C52.7272 117.018 52.3752 116.917 52.0231 116.809L51.7786 116.734C51.5091 116.654 51.2385 116.569 50.9668 116.48L50.6408 116.369L49.8487 116.098L49.5716 116.004C49.2238 115.88 48.875 115.753 48.5251 115.622L48.336 115.547C48.0459 115.44 47.7557 115.326 47.4656 115.221L47.1396 115.084L46.3898 114.775L46.0638 114.635L45.0858 114.214L44.9945 114.175C44.6424 114.015 44.2871 113.849 43.935 113.686L43.609 113.539C43.3547 113.419 43.0972 113.295 42.8429 113.168L42.4908 112.995C42.2203 112.861 41.9529 112.724 41.6824 112.584L41.4118 112.447L40.3458 111.88C40.1502 111.779 39.9578 111.671 39.7655 111.554C39.6644 111.498 39.5634 111.446 39.4656 111.388L38.6017 110.902L38.5756 110.886L29.7671 116.03V117.461C39.7753 123.221 49.5781 125.963 58.1291 125.396C62.1943 125.129 65.6629 124.134 68.4861 122.439C68.4176 122.481 68.3492 122.527 68.2774 122.566L77.112 117.432C77.8963 116.977 78.6421 116.459 79.3419 115.883C79.4364 115.808 79.5342 115.727 79.6288 115.645L79.7135 115.573L79.9385 115.375L80.0167 115.306L80.3134 115.036L80.3623 114.987L80.6133 114.749L80.7046 114.661L80.9523 114.41L81.011 114.348C81.1121 114.243 81.2131 114.139 81.3142 114.022C81.337 113.992 81.3631 113.966 81.3892 113.937C81.4674 113.852 81.5456 113.764 81.6239 113.673L81.7119 113.569C81.8097 113.458 81.9042 113.344 81.9988 113.226L82.0183 113.203C82.1194 113.08 82.2205 112.952 82.3183 112.822C82.3476 112.783 82.3769 112.747 82.403 112.708C82.4813 112.607 82.5562 112.503 82.6345 112.398L82.716 112.284L83.0094 111.854C83.0246 111.834 83.0388 111.813 83.0518 111.792L83.2376 111.508L83.293 111.417L83.4332 111.185C83.4919 111.091 83.5505 110.996 83.606 110.899L83.7461 110.654L83.9124 110.354L84.0526 110.093C84.1047 109.989 84.1602 109.885 84.2123 109.767L84.3492 109.497C84.3721 109.445 84.3949 109.399 84.421 109.35C84.447 109.301 84.5025 109.174 84.5416 109.083L84.6003 108.959C84.685 108.77 84.7698 108.574 84.8545 108.375C84.8708 108.333 84.8904 108.284 84.91 108.242C84.9752 108.075 85.0436 107.916 85.1088 107.74L85.1708 107.573C85.1708 107.534 85.2001 107.498 85.2164 107.463L85.2849 107.264C85.3501 107.084 85.412 106.905 85.4739 106.723C85.5098 106.618 85.5457 106.511 85.5783 106.397C85.6369 106.214 85.6956 106.031 85.751 105.842C85.7706 105.774 85.7934 105.712 85.813 105.643C85.8325 105.575 85.8391 105.542 85.8554 105.494C85.8977 105.344 85.9401 105.187 85.9825 105.031C86.0249 104.874 86.051 104.77 86.0868 104.636C86.1227 104.503 86.1651 104.31 86.2042 104.147C86.2303 104.049 86.2531 103.955 86.2759 103.854C86.2759 103.815 86.2955 103.769 86.302 103.73C86.3346 103.586 86.3639 103.443 86.3965 103.3L86.4943 102.824C86.5237 102.674 86.5497 102.524 86.5758 102.374C86.6019 102.224 86.6215 102.149 86.641 102.048C86.641 101.992 86.6573 101.937 86.6671 101.881L86.7356 101.458C86.7649 101.278 86.791 101.096 86.8171 100.91C86.8431 100.724 86.8594 100.617 86.879 100.467C86.879 100.366 86.9083 100.268 86.9214 100.163L86.9507 99.8929C86.967 99.7462 86.9866 99.6027 86.9996 99.4528C87.0224 99.2539 87.042 99.0485 87.0616 98.8464C87.0779 98.6964 87.0909 98.5465 87.1039 98.3933L87.1235 98.1846C87.1235 98.0379 87.1463 97.8847 87.1561 97.7347C87.1659 97.5848 87.1789 97.4479 87.1854 97.3012C87.1854 97.0567 87.2148 96.8056 87.2278 96.5546C87.2278 96.4242 87.2278 96.2971 87.2474 96.1667C87.2474 96.1406 87.2474 96.1145 87.2474 96.0884C87.2474 95.7624 87.2702 95.4136 87.28 95.0713V94.9898C87.28 94.6149 87.28 94.2302 87.28 93.8423C87.28 93.8032 87.28 93.7673 87.28 93.7282L92.4145 90.7649L81.6174 81.438Z" fill="#455A64"/>
<path d="M81.6175 81.438L70.8921 103.208L69.4838 102.256L80.1962 80.4861L81.6175 81.438ZM68.9915 122.116C69.1839 121.992 69.3697 121.865 69.5555 121.732L69.7772 121.575C70.0217 121.396 70.2629 121.213 70.4977 121.021L70.7813 120.78L70.866 120.708L71.0551 120.545L71.091 120.512L71.1692 120.444C71.267 120.356 71.3681 120.265 71.4659 120.17L71.518 120.121L71.5963 120.049L71.7691 119.883L71.8571 119.795C71.8766 119.776 71.8962 119.753 71.919 119.733L72.1048 119.547L72.1635 119.485L72.3689 119.267L72.4667 119.163L72.5417 119.081L72.7764 118.814L72.8677 118.71L72.959 118.602L73.1546 118.367C73.1561 118.36 73.1561 118.352 73.1546 118.344C73.1839 118.312 73.21 118.276 73.2361 118.243C73.311 118.152 73.3828 118.058 73.4577 117.963L73.5425 117.852L73.7153 117.614L73.7707 117.539L73.8522 117.425L74.0185 117.184L74.1489 116.998C74.1611 116.975 74.1753 116.953 74.1912 116.933L74.2988 116.76C74.3445 116.695 74.3868 116.626 74.4292 116.558C74.4716 116.49 74.5238 116.405 74.5727 116.327C74.6216 116.248 74.6868 116.137 74.7422 116.04C74.7976 115.942 74.8367 115.877 74.8856 115.795L74.9932 115.6L75.0519 115.495L75.1888 115.234C75.2247 115.169 75.2573 115.101 75.2931 115.032L75.3518 114.918C75.3974 114.83 75.4398 114.739 75.4855 114.648L75.5083 114.599L75.6811 114.237C75.7006 114.194 75.7169 114.152 75.7365 114.113C75.7919 113.992 75.8441 113.865 75.8995 113.741C75.9288 113.67 75.9614 113.601 75.9908 113.529C76.0201 113.458 76.0299 113.435 76.0462 113.389C76.1146 113.226 76.1798 113.063 76.245 112.894C76.2679 112.835 76.2874 112.78 76.3102 112.724C76.3331 112.669 76.3591 112.591 76.3852 112.522L76.4243 112.415C76.4863 112.235 76.5515 112.056 76.6102 111.873C76.6395 111.795 76.6656 111.71 76.6917 111.629L76.7177 111.554C76.7764 111.371 76.8318 111.189 76.8905 111V110.977C76.9231 110.869 76.9557 110.762 76.9851 110.651C77.0144 110.54 77.0698 110.344 77.1122 110.188C77.1122 110.188 77.1122 110.162 77.1122 110.146C77.1415 110.028 77.1741 109.914 77.2035 109.793C77.2459 109.634 77.285 109.467 77.3241 109.304L77.4219 108.887C77.4545 108.747 77.4838 108.6 77.5132 108.457C77.5327 108.369 77.549 108.281 77.5686 108.193C77.5882 108.105 77.5979 108.053 77.611 107.981C77.6403 107.831 77.6697 107.681 77.6957 107.531C77.7218 107.391 77.7479 107.251 77.7707 107.107C77.7707 107.081 77.7707 107.055 77.7707 107.026C77.7968 106.886 77.8196 106.745 77.8392 106.602C77.8685 106.423 77.8979 106.24 77.9239 106.058L77.9826 105.611C78.0087 105.422 78.0348 105.229 78.0576 105.037L78.1065 104.6C78.1293 104.398 78.1489 104.196 78.1684 103.991C78.1684 103.841 78.1978 103.691 78.2108 103.541C78.2271 103.322 78.2467 103.101 78.2597 102.889C78.2597 102.745 78.2825 102.602 78.2923 102.455C78.3086 102.211 78.3217 101.96 78.3347 101.709C78.3347 101.578 78.3347 101.454 78.3543 101.321C78.3706 100.962 78.3803 100.594 78.3901 100.222C78.3901 100.196 78.3901 100.17 78.3901 100.144C78.3901 99.7266 78.3901 99.2963 78.3901 98.8594L77.1285 99.5864C76.8547 109.82 74.0152 114.951 71.2605 117.898C70.7013 118.493 70.1046 119.051 69.474 119.57C68.7584 120.156 67.9951 120.68 67.192 121.138C67.0486 121.22 66.9019 121.298 66.7552 121.376L66.4716 121.526C66.3151 121.608 66.1456 121.683 65.9923 121.758L65.725 121.885C65.5262 121.976 65.3208 122.061 65.1154 122.146L65.0372 122.178C64.747 122.296 64.4569 122.406 64.1602 122.504C64.0037 122.56 63.8342 122.609 63.6843 122.661L63.4072 122.752C63.2083 122.814 63.0029 122.873 62.7975 122.928L62.4911 123.01C62.3216 123.055 62.1455 123.101 61.9695 123.14L61.6109 123.221C61.4175 123.267 61.2219 123.309 61.0241 123.349L60.8709 123.375L60.2384 123.489L59.9646 123.531L59.4234 123.606L59.1235 123.645L58.5661 123.707L58.289 123.737C58.0151 123.763 57.738 123.785 57.4577 123.802C57.1773 123.818 56.822 123.838 56.5025 123.851H56.2449C56.02 123.851 55.7951 123.851 55.5669 123.851H55.2865C54.9116 123.851 54.5367 123.851 54.1553 123.831H54.0999C53.7021 123.831 53.3044 123.795 52.9067 123.769H52.7307C52.359 123.743 51.9841 123.71 51.6092 123.671H51.5505C51.1789 123.632 50.804 123.59 50.4258 123.541L50.2335 123.515C49.8097 123.456 49.3859 123.391 48.9588 123.319H48.9067L48.0297 123.163L47.7592 123.111C47.4071 123.042 47.055 122.967 46.7029 122.889L46.5432 122.853C46.2367 122.785 45.9303 122.713 45.6239 122.635L45.2979 122.556C45.0273 122.488 44.7534 122.416 44.4829 122.341H44.4568C44.033 122.224 43.6059 122.103 43.1789 121.976L42.9311 121.898C42.6051 121.8 42.2791 121.699 41.9531 121.595C41.6271 121.49 41.3011 121.383 40.9751 121.269L40.698 121.174C40.3394 121.047 39.9775 120.913 39.6189 120.78L39.4592 120.718L38.592 120.392L38.266 120.255C37.94 120.121 37.614 119.981 37.2685 119.841L37.2326 119.825C36.9066 119.684 36.5611 119.538 36.2253 119.388L36.1862 119.316C35.8341 119.156 35.482 118.99 35.1299 118.83L34.8039 118.68C34.5496 118.561 34.2954 118.437 34.0411 118.309L33.6857 118.136C33.3891 117.989 33.0924 117.836 32.7958 117.683L32.6067 117.588C32.2513 117.402 31.896 117.217 31.5407 117.024L30.9539 116.698L30.6637 116.538C30.3671 116.372 30.0671 116.212 29.7705 116.033V117.464C39.7787 123.225 49.5815 125.966 58.1325 125.399C62.1977 125.132 65.6663 124.137 68.4895 122.442C68.5775 122.393 68.6623 122.341 68.747 122.286C68.8318 122.23 68.9068 122.172 68.9915 122.116Z" fill="#37474F"/>
<path opacity="0.2" d="M30.9504 116.708L31.5372 117.034C31.8926 117.226 32.2479 117.412 32.6033 117.598L32.7923 117.692C33.089 117.846 33.3857 117.999 33.6823 118.146L34.0377 118.318C34.2919 118.444 34.5462 118.568 34.8005 118.69L35.1265 118.84C35.4786 119.006 35.8307 119.166 36.1827 119.326L36.2708 119.365C36.5968 119.515 36.9423 119.661 37.2781 119.802L37.314 119.818C37.64 119.958 37.966 120.098 38.3115 120.232L38.6375 120.369L39.5047 120.695L39.6644 120.757C40.023 120.89 40.3849 121.024 40.7435 121.151L41.0206 121.246C41.3466 121.36 41.6726 121.467 41.9986 121.572C42.3246 121.676 42.6506 121.777 42.9766 121.875L43.2243 121.953C43.6514 122.08 44.0785 122.201 44.5023 122.318H44.5283C44.7989 122.393 45.0728 122.465 45.3433 122.533L45.6693 122.612C45.9758 122.69 46.2822 122.762 46.5887 122.83L46.7484 122.866C47.1005 122.944 47.4526 123.019 47.8046 123.088L48.0752 123.14L48.9522 123.296H49.0043C49.4314 123.368 49.8552 123.433 50.279 123.492L50.4713 123.518C50.8495 123.567 51.2244 123.609 51.596 123.648H51.6547C52.0296 123.688 52.4045 123.72 52.7761 123.746H52.9522C53.3499 123.772 53.7476 123.795 54.1453 123.808H54.2008C54.5822 123.808 54.9571 123.828 55.332 123.828H55.6123C55.8405 123.828 56.0655 123.828 56.2904 123.828H56.548C56.874 123.828 57.2 123.802 57.5031 123.779C57.8063 123.756 58.0606 123.74 58.3344 123.714L58.6115 123.684L59.169 123.622L59.4689 123.583L60.0101 123.508L60.2839 123.466L60.9164 123.352L61.0696 123.326C61.2674 123.287 61.463 123.244 61.6564 123.199L62.015 123.117C62.191 123.078 62.3671 123.032 62.5366 122.987L62.843 122.905C63.0484 122.85 63.2538 122.791 63.4526 122.729L63.7297 122.638C63.8895 122.586 64.0557 122.537 64.2057 122.481C64.5024 122.377 64.7925 122.266 65.0826 122.155L65.1609 122.123C65.3663 122.038 65.5716 121.953 65.7705 121.862L66.0378 121.735C66.1976 121.66 66.3638 121.585 66.517 121.503L66.8007 121.353C66.9474 121.275 67.0941 121.197 67.2375 121.115C68.0405 120.657 68.8039 120.133 69.5195 119.547C70.1501 119.029 70.7468 118.47 71.306 117.875L70.8659 117.986L70.6083 118.044L70.0933 118.155L69.8618 118.204L69.4673 118.276L69.1772 118.325L68.7599 118.39L68.4828 118.432C68.3296 118.455 68.1568 118.472 68.0166 118.491L67.7721 118.524L67.1201 118.589H67.0517C66.8137 118.612 66.5725 118.628 66.3312 118.644C66.0248 118.667 65.7151 118.68 65.4021 118.693H65.1218H64.4404H64.1633C63.7884 118.693 63.4103 118.693 63.0321 118.674H62.8365C62.4844 118.674 62.1323 118.641 61.777 118.618H61.5977C61.2358 118.592 60.874 118.563 60.5089 118.524L60.2481 118.498C59.9221 118.462 59.5961 118.426 59.2701 118.384L59.0777 118.357C58.7224 118.309 58.367 118.256 58.0084 118.198L57.7509 118.152C57.4575 118.103 57.1674 118.051 56.874 117.996L56.6001 117.943C56.2513 117.875 55.8992 117.8 55.5439 117.722L55.3841 117.686C55.081 117.617 54.7745 117.542 54.4681 117.467L54.1421 117.389L53.3238 117.174L53.0728 117.106C52.724 117.008 52.3719 116.907 52.0198 116.799L51.7753 116.724C51.5058 116.644 51.2353 116.559 50.9636 116.47L50.6376 116.359L49.8454 116.088L49.5683 115.994C49.2206 115.87 48.8717 115.743 48.5218 115.613L48.3328 115.538C48.0426 115.43 47.7525 115.316 47.4623 115.212L47.1363 115.075L46.3865 114.765L46.0605 114.625L45.0825 114.204L44.9913 114.165C44.6392 114.005 44.2838 113.839 43.9318 113.676L43.6058 113.529C43.3515 113.409 43.0939 113.285 42.8397 113.158L42.4876 112.985C42.217 112.851 41.9497 112.714 41.6791 112.574L41.4085 112.437L40.3425 111.87C40.1469 111.769 39.9546 111.661 39.7622 111.544C39.6612 111.489 39.5601 111.436 39.4623 111.378L38.5984 110.892L38.5723 110.876L29.7671 116.03C30.0637 116.203 30.3636 116.356 30.6603 116.535L30.9504 116.708Z" fill="white"/>
<path d="M23.4231 25.8812C24.8705 25.0466 26.093 25.4574 26.4842 26.7548C26.8305 26.0422 27.3677 25.4396 28.036 25.014C29.1705 24.362 30.0931 24.8869 30.0963 26.1876V26.7874L31.622 25.9072C32.4174 25.4508 33.0629 25.8192 33.0662 26.732C33.0393 27.2293 32.8954 27.7131 32.6461 28.1443C32.3969 28.5754 32.0493 28.9415 31.6318 29.2129L18.745 36.6587C17.9496 37.1151 17.3041 36.75 17.3008 35.8372C17.3267 35.3393 17.4701 34.8545 17.7194 34.4227C17.9688 33.9909 18.3169 33.6244 18.7352 33.3531L20.2576 32.4729V31.3743C20.2479 29.3563 21.6692 26.8983 23.4231 25.8812Z" fill="#E6E6E6"/>
<path d="M36.0588 30.7581C37.0988 30.1616 37.9757 30.455 38.2561 31.3873C38.5062 30.8739 38.8946 30.4404 39.3775 30.1355C40.1893 29.666 40.8543 30.0442 40.8543 30.9798V31.4101L41.9464 30.7777C42.5169 30.4517 42.9798 30.7125 42.9798 31.3678C42.9618 31.725 42.8593 32.0729 42.6808 32.3829C42.5023 32.6929 42.2529 32.9561 41.9529 33.151L32.6978 38.4941C32.1273 38.8201 31.6644 38.5593 31.6611 37.9041C31.681 37.5469 31.7846 37.1994 31.9636 36.8896C32.1425 36.5799 32.3918 36.3165 32.6913 36.1208L33.7834 35.4917V34.6995C33.8251 33.9097 34.053 33.1409 34.4485 32.456C34.844 31.771 35.3957 31.1892 36.0588 30.7581Z" fill="#E6E6E6"/>
<path d="M141.305 29.1932C140.265 28.5934 139.388 28.8868 139.107 29.8191C138.857 29.3066 138.469 28.8741 137.986 28.5705C137.174 28.1011 136.509 28.4793 136.509 29.4149V29.8419L135.417 29.2128C134.847 28.8868 134.384 29.1476 134.384 29.8028C134.402 30.1601 134.504 30.508 134.683 30.8179C134.861 31.1279 135.111 31.3911 135.411 31.586L144.666 36.9292C145.236 37.2552 145.699 36.9944 145.702 36.3391C145.683 35.9819 145.579 35.6345 145.4 35.3247C145.221 35.0149 144.972 34.7516 144.672 34.5559L143.58 33.9235V33.1345C143.537 32.345 143.309 31.5766 142.914 30.8918C142.518 30.207 141.967 29.6251 141.305 29.1932Z" fill="#E6E6E6"/>
<path d="M83.9678 19.8862C83.9682 19.8418 83.9566 19.798 83.9342 19.7596C83.9118 19.7211 83.8795 19.6894 83.8407 19.6678L82.7127 19.0386C82.6756 19.0172 82.6334 19.0059 82.5905 19.0059C82.5476 19.0059 82.5054 19.0172 82.4682 19.0386L74.7322 23.5048C74.5896 23.5824 74.4754 23.7034 74.4062 23.8504C74.3635 23.948 74.3413 24.0535 74.341 24.1601V27.0354L71.6613 29.8064C71.4233 30.0542 71.3973 30.4291 71.5831 30.4877L72.6524 31.0745C72.67 31.0944 72.6925 31.1094 72.7176 31.118C72.7428 31.1265 72.7697 31.1284 72.7958 31.1234L74.3508 30.9344V33.0468C74.3507 33.0904 74.3621 33.1333 74.3839 33.1711C74.4056 33.2088 74.437 33.2402 74.4747 33.262L75.5994 33.8847H75.6157C75.651 33.9029 75.6901 33.9125 75.7298 33.9125C75.7695 33.9125 75.8087 33.9029 75.8439 33.8847L83.5799 29.4152C83.6946 29.3493 83.79 29.2544 83.8564 29.1399C83.9228 29.0254 83.9579 28.8955 83.958 28.7632L83.9678 19.8862Z" fill="#BA68C8"/>
<path opacity="0.1" d="M75.5016 33.6727C75.5017 33.7154 75.5129 33.7574 75.5341 33.7945C75.5552 33.8316 75.5856 33.8627 75.6222 33.8846L74.4975 33.2522C74.4598 33.2304 74.4285 33.199 74.4067 33.1612C74.385 33.1234 74.3736 33.0806 74.3737 33.037V30.9245L75.5049 30.7876L75.5016 33.6727Z" fill="black"/>
<path opacity="0.2" d="M74.7225 23.5014L82.4584 19.0352C82.4956 19.0137 82.5378 19.0024 82.5807 19.0024C82.6236 19.0024 82.6658 19.0137 82.7029 19.0352L83.8309 19.6644C83.7929 19.642 83.7495 19.6302 83.7054 19.6302C83.6613 19.6302 83.6179 19.642 83.5799 19.6644L75.8537 24.1241C75.7075 24.2063 75.5929 24.3347 75.5277 24.4892L74.403 23.8372C74.4721 23.6948 74.5837 23.5775 74.7225 23.5014Z" fill="white"/>
<path opacity="0.1" d="M74.3541 27.0319V24.1566C74.3543 24.05 74.3765 23.9446 74.4193 23.8469L75.544 24.4989C75.5059 24.5909 75.4871 24.6896 75.4886 24.7891V27.6676L74.3574 27.0352L74.3541 27.0319Z" fill="black"/>
<path opacity="0.05" d="M71.6744 29.803L74.3541 27.032L75.4853 27.6644L72.8089 30.4322C72.6002 30.6441 72.5546 30.9538 72.6654 31.0842L71.5961 30.4974C71.4103 30.4256 71.4364 30.0507 71.6744 29.803Z" fill="white"/>
<path d="M80.0949 23.7231C80.1196 23.7038 80.15 23.6934 80.1813 23.6934C80.2126 23.6934 80.2431 23.7038 80.2677 23.7231L81.7836 25.1738C81.8912 25.2749 81.7836 25.5683 81.6141 25.6694L80.7763 26.1518L80.7958 29.5977L79.4527 30.3735L79.4332 26.9277L78.5953 27.4102C78.4193 27.5145 78.3182 27.3385 78.4226 27.1168L79.9222 23.922C79.9602 23.841 80.02 23.7721 80.0949 23.7231Z" fill="white"/>
<path opacity="0.1" d="M79.1006 78.993C78.5888 77.7966 77.5228 76.6621 75.9058 75.733C71.1951 73.0109 63.583 73.0109 58.9017 75.733C54.2203 78.4551 54.2464 82.8626 58.9571 85.5814C62.7387 87.7656 68.3915 88.1894 72.8936 86.8691V82.6637L79.1006 78.993Z" fill="black"/>
<path d="M50.781 48.8055L56.2741 44.5154L56.8087 45.4803L51.2341 49.852L50.781 48.8055Z" fill="#263238"/>
<path d="M60.8805 52.6654L63.9644 52.385C63.5732 54.341 62.8854 57.0533 62.8854 57.0533L60.0427 55.2277L60.8805 52.6654Z" fill="#455A64"/>
<path d="M43.9644 65.2848C43.961 64.5788 44.1901 63.8915 44.6164 63.3288C44.9557 62.9411 45.3148 62.5711 45.6922 62.2204C45.9622 61.9607 46.1676 61.6413 46.292 61.288C46.4115 60.8819 46.5894 60.4954 46.8201 60.1405C47.077 59.7303 47.4802 59.4331 47.9481 59.3092C48.0396 59.2875 48.1347 59.2849 48.2273 59.3018C48.3199 59.3186 48.4079 59.3544 48.486 59.407L48.3947 59.2929C48.3135 59.1905 48.2045 59.1136 48.0808 59.0714C47.9571 59.0292 47.8239 59.0235 47.6971 59.0549C47.218 59.1793 46.8056 59.4842 46.5463 59.9058C46.3076 60.265 46.1251 60.6585 46.0051 61.0728C45.882 61.4432 45.6719 61.7786 45.3922 62.0508C45.0075 62.4084 44.6419 62.786 44.2969 63.1821C43.8608 63.7545 43.6248 64.4543 43.6253 65.1739C43.6137 65.3222 43.6319 65.4713 43.679 65.6124C43.726 65.7535 43.8009 65.8838 43.8992 65.9954C44.0145 66.0978 44.1596 66.1606 44.3132 66.1747C44.2828 66.1559 44.2544 66.134 44.2284 66.1095C44.1302 65.9975 44.056 65.8665 44.0106 65.7246C43.9652 65.5827 43.9494 65.433 43.9644 65.2848Z" fill="black"/>
<path d="M48.636 59.5243C48.5942 59.4725 48.5447 59.4274 48.4893 59.3906C48.4112 59.3381 48.3231 59.3022 48.2305 59.2854C48.138 59.2686 48.0429 59.2711 47.9513 59.2928C47.4835 59.4168 47.0803 59.7139 46.8234 60.1241C46.5901 60.4839 46.411 60.876 46.292 61.2879C46.1708 61.6495 45.9652 61.9769 45.6922 62.2431C45.3148 62.5939 44.9557 62.9638 44.6164 63.3515C44.1902 63.9142 43.961 64.6016 43.9644 65.3075C43.9526 65.4528 43.9702 65.599 44.0161 65.7373C44.062 65.8757 44.1354 66.0033 44.2317 66.1127C44.2577 66.1373 44.2861 66.1591 44.3164 66.1779C44.4249 66.2428 44.5464 66.2826 44.6722 66.2945C44.798 66.3063 44.9248 66.2899 45.0434 66.2464C45.3145 66.1407 45.5513 65.9625 45.728 65.7313C45.9139 65.5129 46.054 65.2684 46.2529 65.0467C46.5705 64.6938 46.9258 64.3768 47.3124 64.1013L48.3588 63.2994L48.8348 59.8112C48.8348 59.8112 48.7468 59.6579 48.636 59.5243Z" fill="#263238"/>
<path d="M56.0981 58.9375L55.9383 63.244C53.9823 61.2619 48.8902 59.4135 48.8902 59.4135C46.9603 60.8348 47.3906 62.4681 48.1143 63.244C52.1046 65.4151 56.6621 68.3361 57.7053 68.0948C58.7485 67.8536 60.1307 66.2692 61.1446 63.2831L59.1886 59.9253L56.0981 58.9375Z" fill="#37474F"/>
<path d="M69.9074 82.0608C69.8651 82.1488 69.8054 82.2273 69.732 82.2917C69.6587 82.3561 69.5731 82.4051 69.4804 82.4357C69.2961 82.4969 69.1039 82.531 68.9099 82.5368C68.4901 82.5808 68.0665 82.5743 67.6482 82.5172C67.2288 82.4614 66.8329 82.2911 66.504 82.025C66.221 81.7485 65.9755 81.4361 65.7737 81.0959C65.2343 80.3067 64.5653 79.6145 63.7949 79.0486C63.815 79.1892 63.8433 79.3285 63.8797 79.4659C64.6206 80.0137 65.2614 80.6853 65.7737 81.4512C65.9763 81.7919 66.2217 82.1053 66.504 82.3836C66.8337 82.6484 67.2292 82.8186 67.6482 82.8758C68.0667 82.9296 68.4899 82.9362 68.9099 82.8954C69.1041 82.8885 69.2963 82.8534 69.4804 82.7911C69.5731 82.7605 69.6587 82.7115 69.732 82.6471C69.8054 82.5827 69.8651 82.5041 69.9074 82.4162C69.9621 82.2837 69.9701 82.1365 69.9302 81.9989C69.9241 82.02 69.9165 82.0407 69.9074 82.0608Z" fill="#263238"/>
<path d="M69.7347 81.275C69.5414 81.0731 69.3221 80.8977 69.0827 80.7534C68.0204 80.0293 67.2282 78.9734 66.83 77.751L63.8373 77.9205C63.7046 78.2826 63.6898 78.6774 63.7949 79.0485C64.5653 79.6144 65.2343 80.3066 65.7738 81.0957C65.9755 81.436 66.221 81.7484 66.504 82.0248C66.8329 82.291 67.2288 82.4613 67.6483 82.5171C68.0665 82.5741 68.4901 82.5807 68.9099 82.5367C69.104 82.5309 69.2961 82.4968 69.4804 82.4356C69.5731 82.405 69.6587 82.356 69.7321 82.2916C69.8054 82.2272 69.8651 82.1487 69.9074 82.0607C69.9165 82.0406 69.9241 82.0199 69.9303 81.9988C69.9585 81.8713 69.9555 81.7389 69.9214 81.6129C69.8874 81.4868 69.8233 81.3709 69.7347 81.275Z" fill="#37474F"/>
<path d="M54.0345 52.0786C53.3825 55.2408 53.6335 56.6426 56.0981 58.9246C58.5626 61.2066 62.6181 64.4666 62.6181 64.4666C61.6401 67.6842 63.1006 71.919 63.156 73.5522C63.2114 75.1855 63.6124 77.9467 63.6124 77.9467C65.8618 79.1529 67.068 77.9467 67.068 77.9467V63.7625C67.069 62.5181 66.6184 61.3158 65.7998 60.3786L60.8805 54.7681V52.6752L54.0345 52.0786Z" fill="#455A64"/>
<path d="M71.3744 43.7361C71.8007 43.878 72.2559 43.9105 72.698 43.8307C72.698 42.9765 72.698 42.0214 72.7665 40.7793C72.9262 38.0996 72.2025 36.6228 71.6059 36.0882C71.0093 35.5535 69.9759 35.5437 69.5945 35.8828C69.2131 36.2218 70.1487 37.4541 70.2823 38.5266C69.7477 37.9007 69.4771 37.6888 68.9783 38.0702C69.2727 38.4122 69.4945 38.8103 69.6303 39.2406C69.7379 39.7785 70.3117 40.1534 70.4714 40.5967C70.5953 40.9423 70.4714 42.0474 70.266 42.9961C70.5668 43.3327 70.9482 43.5874 71.3744 43.7361Z" fill="#F28F8F"/>
<path opacity="0.2" d="M71.3744 43.7361C71.8007 43.878 72.2559 43.9105 72.698 43.8307C72.698 42.9765 72.698 42.0214 72.7665 40.7793C72.9262 38.0996 72.2025 36.6228 71.6059 36.0882C71.0093 35.5535 69.9759 35.5437 69.5945 35.8828C69.2131 36.2218 70.1487 37.4541 70.2823 38.5266C69.7477 37.9007 69.4771 37.6888 68.9783 38.0702C69.2727 38.4122 69.4945 38.8103 69.6303 39.2406C69.7379 39.7785 70.3117 40.1534 70.4714 40.5967C70.5953 40.9423 70.4714 42.0474 70.266 42.9961C70.5668 43.3327 70.9482 43.5874 71.3744 43.7361Z" fill="black"/>
<path d="M71.3744 43.7363C70.9447 43.589 70.5598 43.3343 70.2563 42.9963C70.1976 43.2799 70.1324 43.5505 70.0672 43.7787C70.0672 43.7787 67.9971 40.9392 67.5309 40.4013C67.0647 39.8634 66.6377 38.5822 64.5969 38.3442L64.8414 43.3516C64.8414 43.3516 68.9523 48.0297 70.3606 48.8186C71.7689 49.6075 72.2383 48.5839 72.5252 46.6898C72.6535 45.7425 72.708 44.7866 72.6882 43.8308C72.2492 43.909 71.7977 43.8765 71.3744 43.7363Z" fill="#455A64"/>
<path opacity="0.3" d="M69.764 46.8104C69.438 45.6466 69.9237 44.2024 70.09 43.7786L69.7379 43.2961C69.4802 43.8469 69.3488 44.4482 69.3534 45.0562C69.3579 45.6642 69.4982 46.2636 69.764 46.8104Z" fill="black"/>
<path d="M58.5366 38.2365C57.3564 38.0767 56.0981 38.2756 54.8104 38.4907C54.5733 41.2904 54.5733 44.1051 54.8104 46.9048L53.79 52.3718C57.7835 54.7842 62.8756 53.7117 63.896 53.0238C65.5032 46.7548 65.9042 40.8314 64.6067 38.3538L61.4314 37.8159L58.5366 38.2365Z" fill="#37474F"/>
<path d="M61.0826 40.675L60.1502 39.935C60.4438 39.7924 60.7492 39.6757 61.063 39.5862L61.4314 39.7687L61.0826 40.675Z" fill="#BA68C8"/>
<path d="M62.0834 40.5968L62.2888 40.4696L62.6344 39.7198L62.2334 39.5862L61.9954 39.7687L62.0834 40.5968Z" fill="#BA68C8"/>
<path d="M61.3336 41.19C60.6295 43.9871 57.3499 45.8094 54.6474 45.6138C54.2639 45.5782 53.88 45.6774 53.5618 45.8942C53.1644 46.1807 52.8118 46.5246 52.5153 46.9146C52.4766 46.9668 52.4502 47.027 52.4381 47.0909C52.426 47.1547 52.4285 47.2205 52.4454 47.2832C52.4624 47.346 52.4933 47.404 52.5359 47.4531C52.5785 47.5022 52.6316 47.541 52.6914 47.5666C53.2896 47.8065 53.9068 47.9962 54.5365 48.1338C55.1941 48.2863 55.8797 48.2684 56.5284 48.0817C61.4412 46.6603 62.1225 43.5177 61.9889 41.1868L61.3336 41.19Z" fill="#BA68C8"/>
<path opacity="0.3" d="M61.9954 41.3141C61.9954 41.2717 61.9954 41.2293 61.9954 41.1902H61.3434C61.3434 41.1902 61.3434 41.2163 61.3434 41.2293C61.4362 41.3067 61.5495 41.3554 61.6694 41.3695C61.781 41.3793 61.8933 41.3602 61.9954 41.3141Z" fill="black"/>
<path d="M61.4314 39.772C61.6183 39.7427 61.8086 39.7427 61.9954 39.772C62.1549 39.9748 62.2563 40.217 62.2888 40.4729C62.2405 40.7314 62.1383 40.9769 61.9889 41.1933C61.8194 41.3205 61.3369 41.1933 61.3369 41.1933C61.2124 41.0287 61.1033 40.853 61.0109 40.6685C60.9827 40.6112 60.968 40.5482 60.968 40.4843C60.968 40.4204 60.9827 40.3574 61.0109 40.3001C61.111 40.0956 61.2545 39.9153 61.4314 39.772Z" fill="#BA68C8"/>
<path opacity="0.3" d="M63.2081 53.9985C62.7069 54.6081 62.0036 55.0176 61.226 55.1526L62.8854 57.0499C62.7111 56.4486 62.4307 55.8833 62.0573 55.3808C62.5827 55.0593 62.9872 54.5734 63.2081 53.9985Z" fill="black"/>
<path d="M61.6857 39.6839C62.4421 39.4818 62.9245 40.3359 62.9245 40.3359C62.9702 38.4809 62.0085 37.7703 62.0085 37.7703L61.6857 39.6839Z" fill="#455A64"/>
<path d="M58.4648 30.5201C58.1388 30.2952 57.79 30.0735 57.451 29.8518C57.5358 29.7491 57.6423 29.6665 57.763 29.6101C57.8837 29.5537 58.0154 29.5249 58.1486 29.5258C58.3004 29.5377 58.4418 29.6078 58.5431 29.7214C58.6418 29.8386 58.692 29.989 58.6833 30.142C58.7159 29.5356 59.2375 28.9912 59.7819 28.7271C60.3428 28.4882 60.9562 28.3994 61.5618 28.4696C62.1649 28.5087 62.7648 28.6261 63.3679 28.6456C64.0675 28.672 64.7663 28.5738 65.4315 28.3555C65.5049 28.3308 65.5837 28.3266 65.6594 28.3433C65.735 28.3599 65.8047 28.3969 65.861 28.4501C65.9173 28.5034 65.958 28.571 65.9788 28.6456C65.9996 28.7202 65.9997 28.7991 65.9792 28.8738C65.8627 29.2587 65.6673 29.6151 65.4054 29.9203C65.5451 29.9601 65.6907 29.9755 65.8357 29.9659C65.9142 29.9606 65.9926 29.9771 66.0623 30.0135C66.132 30.0499 66.1902 30.1049 66.2307 30.1723C66.2712 30.2397 66.2922 30.317 66.2915 30.3956C66.2909 30.4743 66.2685 30.5512 66.2269 30.6179C65.9607 31.0079 65.5853 31.3107 65.1478 31.4883C63.5407 34.0246 59.2081 36.2903 59.2081 36.2903C59.0615 36.2709 58.9218 36.2163 58.8008 36.1312C58.6799 36.046 58.5814 35.9328 58.5138 35.8013C58.3847 35.5347 58.302 35.2481 58.2693 34.9537C58.0823 33.8431 57.9291 32.7271 57.8096 31.6057C57.7669 31.3695 57.777 31.1269 57.8389 30.895C57.8729 30.7837 57.9408 30.6859 58.0332 30.6151C58.1255 30.5444 58.2377 30.5043 58.354 30.5006" fill="#263238"/>
<path d="M58.8854 34.445C58.768 35.4915 58.5366 37.2975 58.5366 37.2975C59.4494 38.5298 61.2163 38.8004 61.6857 39.6839C61.9889 38.7025 62.1867 37.6916 62.2758 36.6684L59.2603 34.2983L58.8854 34.445Z" fill="#F28F8F"/>
<path opacity="0.2" d="M58.8854 34.445C58.768 35.4915 58.5366 37.2975 58.5366 37.2975C59.4494 38.5298 61.2163 38.8004 61.6857 39.6839C61.9889 38.7025 62.1867 37.6916 62.2758 36.6684L59.2603 34.2983L58.8854 34.445Z" fill="black"/>
<path opacity="0.3" d="M59.2603 34.2983L59.182 34.3277C59.1443 35.1705 59.4252 35.9966 59.9688 36.6418C60.5125 37.2869 61.279 37.7037 62.116 37.8094C62.2367 37.1019 62.2628 36.6684 62.2628 36.6684L59.2603 34.2983Z" fill="black"/>
<path d="M65.1478 31.4949C65.375 33.2376 65.1816 35.0094 64.5839 36.662C64.5072 36.8669 64.3695 37.0434 64.1893 37.1675C64.0092 37.2917 63.7953 37.3576 63.5765 37.3564C61.2945 37.3564 59.482 36.574 59.1658 34.5398C59.0508 34.6862 58.8914 34.7915 58.7115 34.8397C58.5317 34.8879 58.341 34.8764 58.1682 34.8071C57.8442 34.6576 57.5841 34.3976 57.4347 34.0736C57.3381 33.9055 57.274 33.7209 57.2456 33.5292C57.2177 33.3352 57.2656 33.1379 57.3793 32.9782C57.4852 32.8601 57.6257 32.7782 57.7807 32.7443C57.9358 32.7103 58.0975 32.726 58.2432 32.7892C58.539 32.9222 58.7724 33.1638 58.8952 33.464C58.9441 33.5748 59.0093 33.7085 59.1299 33.7117C59.2505 33.715 59.3255 33.5748 59.3646 33.4574C59.5091 32.9791 59.572 32.4799 59.5504 31.9807C59.9118 32.0495 60.2859 31.9784 60.5969 31.7818C60.8985 31.5748 61.1086 31.2596 61.1837 30.9016C61.2804 31.0853 61.4196 31.2433 61.5897 31.3624C61.7599 31.4815 61.9559 31.5582 62.1617 31.5862C62.362 31.6135 62.5659 31.5926 62.7564 31.5251C62.947 31.4576 63.1186 31.3456 63.257 31.1983C63.4923 31.4383 63.7987 31.5961 64.1307 31.6482C64.4775 31.6962 64.8307 31.643 65.1478 31.4949Z" fill="#F28F8F"/>
<path opacity="0.2" d="M65.1478 31.4949C65.375 33.2376 65.1816 35.0094 64.5839 36.662C64.5072 36.8669 64.3695 37.0434 64.1893 37.1675C64.0092 37.2917 63.7953 37.3576 63.5765 37.3564C61.2945 37.3564 59.482 36.574 59.1658 34.5398C59.0508 34.6862 58.8914 34.7915 58.7115 34.8397C58.5317 34.8879 58.341 34.8764 58.1682 34.8071C57.8442 34.6576 57.5841 34.3976 57.4347 34.0736C57.3381 33.9055 57.274 33.7209 57.2456 33.5292C57.2177 33.3352 57.2656 33.1379 57.3793 32.9782C57.4852 32.8601 57.6257 32.7782 57.7807 32.7443C57.9358 32.7103 58.0975 32.726 58.2432 32.7892C58.539 32.9222 58.7724 33.1638 58.8952 33.464C58.9441 33.5748 59.0093 33.7085 59.1299 33.7117C59.2505 33.715 59.3255 33.5748 59.3646 33.4574C59.5091 32.9791 59.572 32.4799 59.5504 31.9807C59.9118 32.0495 60.2859 31.9784 60.5969 31.7818C60.8985 31.5748 61.1086 31.2596 61.1837 30.9016C61.2804 31.0853 61.4196 31.2433 61.5897 31.3624C61.7599 31.4815 61.9559 31.5582 62.1617 31.5862C62.362 31.6135 62.5659 31.5926 62.7564 31.5251C62.947 31.4576 63.1186 31.3456 63.257 31.1983C63.4923 31.4383 63.7987 31.5961 64.1307 31.6482C64.4775 31.6962 64.8307 31.643 65.1478 31.4949Z" fill="black"/>
<path d="M63.0647 33.4705L64.1112 34.7908L63.1201 35.12L63.0647 33.4705Z" fill="#F28F8F"/>
<path opacity="0.3" d="M63.0647 33.4705L64.1112 34.7908L63.1201 35.12L63.0647 33.4705Z" fill="black"/>
<path d="M62.2073 35.7458L63.0321 36.0164C62.9778 36.1134 62.8933 36.19 62.7916 36.2347C62.6898 36.2794 62.5763 36.2897 62.4681 36.2642C62.3721 36.2205 62.2939 36.1452 62.2464 36.051C62.199 35.9567 62.1852 35.849 62.2073 35.7458Z" fill="#F28F8F"/>
<path opacity="0.3" d="M62.2073 35.7458L63.0321 36.0164C62.9778 36.1134 62.8933 36.19 62.7916 36.2347C62.6898 36.2794 62.5763 36.2897 62.4681 36.2642C62.3721 36.2205 62.2939 36.1452 62.2464 36.051C62.199 35.9567 62.1852 35.849 62.2073 35.7458Z" fill="black"/>
<path d="M62.7387 36.2512C62.6504 36.2772 62.5565 36.2772 62.4681 36.2512C62.3922 36.22 62.327 36.1673 62.2807 36.0995C62.2343 36.0318 62.2088 35.9519 62.2073 35.8698C62.3203 35.8536 62.4353 35.8766 62.5333 35.935C62.5867 35.9716 62.6323 36.0184 62.6675 36.0727C62.7027 36.1269 62.7269 36.1876 62.7387 36.2512Z" fill="#F28F8F"/>
<path d="M61.614 33.7281C61.6149 33.7668 61.6234 33.8049 61.6392 33.8402C61.655 33.8755 61.6776 33.9073 61.7059 33.9337C61.7341 33.9602 61.7674 33.9807 61.8037 33.9941C61.84 34.0074 61.8786 34.0134 61.9172 34.0117C61.9761 34.0103 62.0333 33.9915 62.0815 33.9575C62.1296 33.9235 62.1665 33.876 62.1876 33.8209C62.2086 33.7658 62.2127 33.7058 62.1994 33.6483C62.1862 33.5909 62.1561 33.5387 62.1131 33.4985C62.07 33.4582 62.016 33.4317 61.9578 33.4223C61.8996 33.4129 61.8399 33.421 61.7864 33.4456C61.7329 33.4702 61.6879 33.5103 61.6572 33.5606C61.6265 33.6109 61.6114 33.6692 61.614 33.7281Z" fill="#263238"/>
<path d="M64.0688 33.5488C64.073 33.6266 64.1074 33.6997 64.1646 33.7527C64.2218 33.8056 64.2973 33.8342 64.3752 33.8324C64.434 33.8304 64.4908 33.811 64.5385 33.7766C64.5862 33.7423 64.6227 33.6945 64.6432 33.6394C64.6637 33.5843 64.6674 33.5244 64.6538 33.4672C64.6401 33.41 64.6098 33.3581 64.5667 33.3182C64.5235 33.2783 64.4695 33.252 64.4114 33.2429C64.3533 33.2337 64.2939 33.242 64.2405 33.2667C64.1872 33.2914 64.1423 33.3314 64.1118 33.3817C64.0812 33.4319 64.0662 33.49 64.0688 33.5488Z" fill="#263238"/>
<path d="M64.3165 32.3653L64.9848 32.7956C65.0109 32.7135 65.0111 32.6254 64.9854 32.5432C64.9598 32.461 64.9095 32.3886 64.8414 32.3359C64.7597 32.2918 64.6675 32.2712 64.5748 32.2764C64.4822 32.2816 64.3928 32.3124 64.3165 32.3653Z" fill="#263238"/>
<path d="M61.7933 32.4173L61.1413 32.89C61.1105 32.81 61.1049 32.7224 61.1253 32.6391C61.1457 32.5557 61.1911 32.4806 61.2554 32.4238C61.3347 32.3707 61.4279 32.3418 61.5234 32.3406C61.6189 32.3395 61.7127 32.3661 61.7933 32.4173Z" fill="#263238"/>
<path d="M58.5366 37.2976L58.5952 36.8347C58.5563 36.8295 58.5168 36.8295 58.4779 36.8347C58.1519 37.0074 57.5553 37.9496 57.5553 37.9496C57.7672 38.4516 58.7876 40.0132 59.5895 40.5576C60.5186 40.0914 61.1902 39.4394 61.6857 39.6774C61.4934 38.5983 58.5366 37.2976 58.5366 37.2976Z" fill="#455A64"/>
<path d="M56.724 54.468C58.9571 51.3384 63.8699 44.0914 63.57 38.168L64.5839 38.3375C65.0044 44.1696 60.3817 51.7752 57.1641 55.7198L56.724 54.468Z" fill="#263238"/>
<path d="M56.0329 56.9521L49.226 51.208L48.0231 55.446C48.0162 55.4731 48.0159 55.5014 48.0221 55.5286C48.0284 55.5558 48.041 55.5811 48.0589 55.6025L48.0817 55.622L54.8039 61.6335C54.7813 61.6109 54.7651 61.5826 54.7571 61.5517C54.749 61.5207 54.7494 61.4882 54.7582 61.4574L56.0329 56.9521Z" fill="#BA68C8"/>
<path opacity="0.15" d="M56.0329 56.9521L49.226 51.208L48.0231 55.446C48.0162 55.4731 48.0159 55.5014 48.0221 55.5286C48.0284 55.5558 48.041 55.5811 48.0589 55.6025L48.0817 55.622L54.8039 61.6335C54.7813 61.6109 54.7651 61.5826 54.7571 61.5517C54.749 61.5207 54.7494 61.4882 54.7582 61.4574L56.0329 56.9521Z" fill="black"/>
<path d="M55.7395 57.9889L56.8088 54.2139L55.7395 57.9889Z" fill="#BA68C8"/>
<path d="M57.5442 53.8213L57.539 53.8162L57.5442 53.8265V53.8213Z" fill="#BA68C8"/>
<path d="M54.8025 61.6583H54.8077L54.7973 61.6531L54.8025 61.6583Z" fill="#BA68C8"/>
<path d="M57.6107 54.0215C57.6153 53.9853 57.6115 53.9486 57.5996 53.9141C57.5878 53.8796 57.5681 53.8483 57.5423 53.8227C57.5151 53.7972 57.4825 53.7783 57.4468 53.7676C57.4112 53.7569 57.3736 53.7545 57.3369 53.7607C57.2152 53.7814 57.1019 53.8362 57.0102 53.9187C56.9184 54.0012 56.852 54.1081 56.8185 54.2269L55.746 57.9889L54.768 61.4771C54.7592 61.5079 54.7588 61.5404 54.7668 61.5714C54.7749 61.6023 54.791 61.6306 54.8136 61.6532C54.8359 61.6752 54.8637 61.6908 54.8942 61.6983C54.9246 61.7058 54.9565 61.7048 54.9864 61.6956L56.3198 61.2913C56.4198 61.2618 56.5091 61.2039 56.5768 61.1247C56.6445 61.0454 56.6877 60.9481 56.7012 60.8447L57.6107 54.0215Z" fill="#BA68C8"/>
<path opacity="0.3" d="M57.6107 54.0215C57.6153 53.9853 57.6115 53.9486 57.5996 53.9141C57.5878 53.8796 57.5681 53.8483 57.5423 53.8227C57.5151 53.7972 57.4825 53.7783 57.4468 53.7676C57.4112 53.7569 57.3736 53.7545 57.3369 53.7607C57.2152 53.7814 57.1019 53.8362 57.0102 53.9187C56.9184 54.0012 56.852 54.1081 56.8185 54.2269L55.746 57.9889L54.768 61.4771C54.7592 61.5079 54.7588 61.5404 54.7668 61.5714C54.7749 61.6023 54.791 61.6306 54.8136 61.6532C54.8359 61.6752 54.8637 61.6908 54.8942 61.6983C54.9246 61.7058 54.9565 61.7048 54.9864 61.6956L56.3198 61.2913C56.4198 61.2618 56.5091 61.2039 56.5768 61.1247C56.6445 61.0454 56.6877 60.9481 56.7012 60.8447L57.6107 54.0215Z" fill="black"/>
<path d="M53.64 54.5039L52.4338 58.8267L52.6229 59.0092L53.79 54.7191L53.64 54.5039Z" fill="#BA68C8"/>
<path d="M51.0809 52.2153L49.878 56.5414L50.0671 56.7239L51.2342 52.4338L51.0809 52.2153Z" fill="#BA68C8"/>
<path d="M50.7973 47.7948C50.7706 47.7709 50.7389 47.7532 50.7045 47.743C50.6701 47.7329 50.6339 47.7305 50.5985 47.7361C50.4768 47.7568 50.3635 47.8116 50.2718 47.8941C50.18 47.9766 50.1136 48.0835 50.0801 48.2023L49.1576 51.4623C49.1042 51.6551 49.1065 51.859 49.1642 52.0506C49.2219 52.2421 49.3326 52.4134 49.4836 52.5446L50.1942 53.1608L55.0321 57.376C55.1075 57.4419 55.1985 57.4876 55.2964 57.5089C55.3943 57.5302 55.496 57.5263 55.592 57.4977C55.688 57.469 55.7753 57.4165 55.8455 57.3451C55.9158 57.2736 55.9668 57.1856 55.9938 57.0891L56.8088 54.2203C56.8422 54.1015 56.9086 53.9946 57.0004 53.9121C57.0922 53.8296 57.2055 53.7748 57.3271 53.7541C57.3638 53.7479 57.4014 53.7502 57.4371 53.761C57.4727 53.7717 57.5054 53.7906 57.5325 53.816L50.7973 47.7948Z" fill="#BA68C8"/>
<path opacity="0.2" d="M50.7973 47.7948C50.7706 47.7709 50.7389 47.7532 50.7045 47.743C50.6701 47.7329 50.6339 47.7305 50.5985 47.7361C50.4768 47.7568 50.3635 47.8116 50.2718 47.8941C50.18 47.9766 50.1136 48.0835 50.0801 48.2023L49.1576 51.4623C49.1042 51.6551 49.1065 51.859 49.1642 52.0506C49.2219 52.2421 49.3326 52.4134 49.4836 52.5446L50.1942 53.1608L55.0321 57.376C55.1075 57.4419 55.1985 57.4876 55.2964 57.5089C55.3943 57.5302 55.496 57.5263 55.592 57.4977C55.688 57.469 55.7753 57.4165 55.8455 57.3451C55.9158 57.2736 55.9668 57.1856 55.9938 57.0891L56.8088 54.2203C56.8422 54.1015 56.9086 53.9946 57.0004 53.9121C57.0922 53.8296 57.2055 53.7748 57.3271 53.7541C57.3638 53.7479 57.4014 53.7502 57.4371 53.761C57.4727 53.7717 57.5054 53.7906 57.5325 53.816L50.7973 47.7948Z" fill="white"/>
<path d="M46.618 48.111L46.8364 51.4069C47.3026 54.693 47.9089 55.2113 49.4118 55.6449C50.9147 56.0785 50.0345 54.2007 49.8389 53.8519C49.695 53.5407 49.593 53.2118 49.5357 52.8739C50.2757 53.5454 50.4648 53.4737 50.7582 53.2683C50.8755 53.1771 50.3213 52.6946 50.3213 52.6946C50.0277 52.0634 49.6458 51.4772 49.1869 50.9537L49.3596 48.1045L46.618 48.111Z" fill="#F28F8F"/>
<path opacity="0.2" d="M46.618 48.111L46.8364 51.4069C47.3026 54.693 47.9089 55.2113 49.4118 55.6449C50.9147 56.0785 50.0345 54.2007 49.8389 53.8519C49.695 53.5407 49.593 53.2118 49.5357 52.8739C50.2757 53.5454 50.4648 53.4737 50.7582 53.2683C50.8755 53.1771 50.3213 52.6946 50.3213 52.6946C50.0277 52.0634 49.6458 51.4772 49.1869 50.9537L49.3596 48.1045L46.618 48.111Z" fill="black"/>
<path d="M56.398 38.2561C54.2823 37.9008 52.8902 38.9668 51.9253 39.5862C51.2276 40.0361 48.6653 41.966 47.3026 42.9994C47.0329 43.2041 46.8156 43.4698 46.6682 43.7746C46.5209 44.0794 46.4479 44.4148 46.455 44.7533L46.53 48.2382C46.9801 48.4754 47.4849 48.5894 47.9932 48.5688C48.5015 48.5482 48.9954 48.3937 49.4249 48.1209L49.6726 45.565C49.6726 45.565 52.6457 44.1176 54.6441 43.2081C56.6425 42.2985 56.8837 39.7459 56.398 38.2561Z" fill="#455A64"/>
<path opacity="0.1" d="M47.7525 81.6499C47.2062 81.4664 46.6335 81.3739 46.0573 81.376C44.2382 81.376 42.7647 82.2204 42.7647 83.2603C42.7647 84.3002 44.2382 85.1478 46.0573 85.1478C46.6338 85.1506 47.2068 85.0569 47.7525 84.8707V81.6499Z" fill="black"/>
<path opacity="0.1" d="M127.534 73.7772C132.245 76.4993 132.268 80.9068 127.59 83.6289C122.912 86.351 115.296 86.3477 110.586 83.6289C105.875 80.91 105.849 76.4993 110.53 73.7772C115.212 71.0551 122.824 71.0681 127.534 73.7772Z" fill="black"/>
<path d="M133.53 42.9636L133.008 42.7061C134.182 43.5602 136.2 48.16 136.953 50.0313C136.962 50.0555 136.981 50.0749 137.005 50.0853C137.029 50.0957 137.056 50.0962 137.08 50.0867C137.104 50.0772 137.123 50.0584 137.134 50.0346C137.144 50.0108 137.145 49.9838 137.135 49.9596C136.884 49.3336 134.984 44.6262 133.53 42.9636Z" fill="#E0E0E0"/>
<path d="M125.419 75.3714L125.885 74.5727L125.279 74.188C125.172 74.1357 125.053 74.1135 124.935 74.1238C124.816 74.1342 124.703 74.1766 124.607 74.2467C124.336 74.4216 124.11 74.6586 123.948 74.9381C123.787 75.2176 123.694 75.5315 123.678 75.8539C123.665 75.9715 123.685 76.0905 123.736 76.1972C123.787 76.3039 123.868 76.3939 123.968 76.457L124.561 76.8351L125.054 75.994C125.208 75.8077 125.332 75.5974 125.419 75.3714Z" fill="#37474F"/>
<path d="M125.213 74.6281C125.725 74.3314 126.146 74.5694 126.146 75.1627C126.129 75.485 126.036 75.7987 125.874 76.0781C125.713 76.3574 125.487 76.5945 125.217 76.7699C124.705 77.0666 124.284 76.8286 124.284 76.2385C124.301 75.9158 124.394 75.6016 124.555 75.3217C124.717 75.0418 124.942 74.8041 125.213 74.6281Z" fill="#455A64"/>
<path d="M115.244 75.1431L114.778 74.3444L115.384 73.9597C115.491 73.9074 115.61 73.8852 115.728 73.8955C115.847 73.9059 115.96 73.9484 116.056 74.0184C116.327 74.1938 116.552 74.4309 116.714 74.7102C116.875 74.9896 116.968 75.3033 116.985 75.6256C116.998 75.7432 116.978 75.8622 116.927 75.9689C116.876 76.0756 116.795 76.1656 116.695 76.2287L116.102 76.6101L115.609 75.769C115.454 75.5817 115.331 75.3702 115.244 75.1431Z" fill="#37474F"/>
<path d="M115.453 74.4032C114.938 74.1065 114.517 74.3412 114.517 74.9345C114.534 75.2568 114.627 75.5705 114.788 75.8499C114.95 76.1293 115.175 76.3664 115.446 76.5417C115.958 76.8384 116.379 76.6004 116.379 76.0103C116.362 75.6884 116.27 75.3748 116.109 75.0955C115.948 74.8161 115.723 74.5789 115.453 74.4032Z" fill="#455A64"/>
<path d="M118.582 73.1643H120.31V76.1407C120.303 76.2172 120.276 76.2905 120.232 76.353C120.187 76.4155 120.126 76.4649 120.056 76.496C119.867 76.5925 119.657 76.6428 119.445 76.6428C119.232 76.6428 119.023 76.5925 118.834 76.496C118.764 76.4647 118.704 76.4152 118.659 76.3527C118.615 76.2902 118.589 76.217 118.582 76.1407V73.1643Z" fill="#EBEBEB"/>
<path d="M124.838 73.9988V74.7062L120.31 75.8505V74.3476L124.838 73.9988Z" fill="#E0E0E0"/>
<path d="M124.838 73.9989L124.522 73.8914L120.31 74.113V74.3478L124.838 73.9989Z" fill="#F5F5F5"/>
<path d="M125.295 80.4342L124.825 79.6355L125.432 79.2508C125.539 79.1974 125.658 79.1743 125.777 79.1841C125.896 79.1938 126.01 79.2361 126.107 79.3062C126.377 79.4827 126.602 79.7205 126.764 80.0003C126.925 80.2801 127.018 80.5941 127.036 80.9167C127.046 81.0341 127.025 81.1521 126.974 81.2583C126.923 81.3645 126.844 81.4549 126.746 81.5198L126.162 81.9012L125.67 81.0601C125.511 80.8736 125.384 80.6621 125.295 80.4342Z" fill="#37474F"/>
<path d="M125.51 79.6909C124.995 79.3942 124.578 79.6322 124.574 80.2223C124.593 80.5444 124.688 80.8575 124.85 81.1362C125.013 81.4149 125.239 81.6513 125.51 81.8262C126.025 82.1229 126.442 81.8849 126.446 81.2916C126.426 80.97 126.332 80.6575 126.169 80.3794C126.006 80.1013 125.781 79.8655 125.51 79.6909Z" fill="#455A64"/>
<path d="M119.264 82.4782L119.73 81.6795L119.124 81.2948C119.017 81.2413 118.897 81.2182 118.778 81.228C118.659 81.2378 118.545 81.2801 118.449 81.3502C118.179 81.5265 117.954 81.7638 117.793 82.043C117.631 82.3222 117.538 82.6354 117.52 82.9574C117.508 83.0753 117.53 83.194 117.581 83.3008C117.632 83.4077 117.711 83.4985 117.81 83.5637L118.406 83.9419L118.899 83.1008C119.052 82.9136 119.175 82.7035 119.264 82.4782Z" fill="#37474F"/>
<path d="M119.055 81.7219C119.57 81.4252 119.988 81.6632 119.991 82.2533C119.973 82.5754 119.88 82.8888 119.719 83.168C119.557 83.4473 119.332 83.6845 119.062 83.8605C118.547 84.1571 118.129 83.9191 118.126 83.3291C118.144 83.007 118.237 82.6936 118.398 82.4143C118.56 82.1351 118.785 81.8978 119.055 81.7219Z" fill="#455A64"/>
<path d="M112.724 79.3258L113.19 78.5271L112.584 78.1424C112.478 78.0896 112.359 78.0669 112.241 78.0767C112.122 78.0864 112.009 78.1283 111.913 78.1979C111.642 78.3732 111.416 78.6103 111.255 78.8897C111.093 79.1691 111 79.4828 110.983 79.805C110.972 79.9229 110.993 80.0417 111.044 80.1485C111.095 80.2553 111.175 80.3462 111.274 80.4114L111.867 80.7896L112.359 79.9485C112.514 79.7621 112.637 79.5518 112.724 79.3258Z" fill="#37474F"/>
<path d="M112.519 78.5857C113.031 78.289 113.451 78.527 113.451 79.1171C113.434 79.4389 113.342 79.7522 113.181 80.0315C113.02 80.3108 112.795 80.5481 112.525 80.7242C112.01 81.0209 111.59 80.7829 111.59 80.1929C111.607 79.8706 111.699 79.5569 111.861 79.2775C112.023 78.9981 112.248 78.761 112.519 78.5857Z" fill="#455A64"/>
<path d="M125.927 78.7031V79.8539L119.864 76.5776V74.99L125.927 78.7031Z" fill="#E0E0E0"/>
<path d="M126.279 78.5074L120.212 74.9019L119.864 74.9899L125.927 78.703L126.279 78.5074Z" fill="#F5F5F5"/>
<path d="M126.279 79.6548L125.927 79.8537V78.7029L126.279 78.5073V79.6548Z" fill="#F0F0F0"/>
<path d="M119.456 74.99L118.716 80.8515V81.9012L119.456 76.6428V74.99Z" fill="#E0E0E0"/>
<path d="M118.716 80.8547H118.289V81.9012H118.716V80.8547Z" fill="#F0F0F0"/>
<path d="M118.289 80.8515L118.961 74.99H119.456L118.716 80.8515H118.289Z" fill="#F5F5F5"/>
<path d="M112.278 77.6043V78.7029L118.582 76.1406V74.7942L112.278 77.6043Z" fill="#E0E0E0"/>
<path d="M112.033 78.5399L112.278 78.7029V77.6043L112.033 77.4446V78.5399Z" fill="#F0F0F0"/>
<path d="M113.027 77.2686L112.278 77.6044L112.033 77.4447L118.582 74.4944V74.7943L113.027 77.2686Z" fill="#F5F5F5"/>
<path d="M115.391 73.3989V74.1194L117.23 75.1039L118.582 74.4943V74.1976L115.391 73.3989Z" fill="#E0E0E0"/>
<path d="M115.391 73.399L115.538 73.3403L118.582 73.9989V74.1977L115.391 73.399Z" fill="#F5F5F5"/>
<path d="M118.032 67.8538H120.861V72.7438C120.848 72.8683 120.802 72.9871 120.728 73.0883C120.654 73.1896 120.555 73.2697 120.441 73.3208C120.131 73.4782 119.789 73.5603 119.442 73.5603C119.094 73.5603 118.752 73.4782 118.442 73.3208C118.329 73.2689 118.231 73.1879 118.159 73.086C118.087 72.9841 118.043 72.8649 118.032 72.7405V67.8538Z" fill="#E0E0E0"/>
<path d="M136.268 45.8258C136.095 45.8291 135.923 45.8027 135.759 45.7476L135.564 45.6889L135.717 45.1249L135.332 44.662C135.049 44.5686 134.758 44.501 134.462 44.4599C133.565 44.3393 132.571 44.5447 131.958 45.213C131.345 45.8813 131.231 46.8038 131.205 47.684C131.16 49.1967 131.345 50.7028 131.437 52.2154C131.58 53.727 131.463 55.2519 131.091 56.724C130.664 58.1747 129.787 59.5439 128.451 60.2742C127.923 60.552 127.361 60.7571 126.778 60.8838L122.155 57.2326L115.782 55.2277L107.433 59.5113C107.216 59.6393 107.031 59.8169 106.895 60.0297C106.243 61.0077 106.357 62.7746 107.505 63.4298L119.029 69.5489C119.41 69.7513 119.835 69.8593 120.266 69.8638C120.698 69.8684 121.124 69.7693 121.51 69.5749L129.582 65.4869C130.093 65.2278 130.543 64.8645 130.905 64.4203C131.267 63.9761 131.531 63.461 131.681 62.9082L136.304 45.8324L136.268 45.8258Z" fill="#37474F"/>
<path d="M107.433 59.5017L115.782 55.218L122.155 57.2229L126.778 60.8741C126.42 60.9621 126.054 61.0339 125.696 61.1056C124.739 61.2443 123.814 61.5512 122.964 62.0119C122.142 62.5172 121.481 63.3811 121.474 64.346L121.768 66.628L121.51 66.7552C121.125 66.9508 120.699 67.0509 120.267 67.0469C119.835 67.0429 119.41 66.935 119.029 66.7323L107.505 60.6133C107.259 60.47 107.051 60.2713 106.895 60.033C107.03 59.8155 107.214 59.6333 107.433 59.5017Z" fill="#455A64"/>
<path opacity="0.1" d="M107.433 59.5017L115.782 55.218L122.155 57.2229L126.778 60.8741C126.42 60.9621 126.054 61.0339 125.696 61.1056C124.739 61.2443 123.814 61.5512 122.964 62.0119C122.142 62.5172 121.481 63.3811 121.474 64.346L121.768 66.628L121.51 66.7552C121.125 66.9508 120.699 67.0509 120.267 67.0469C119.835 67.0429 119.41 66.935 119.029 66.7323L107.505 60.6133C107.259 60.47 107.051 60.2713 106.895 60.033C107.03 59.8155 107.214 59.6333 107.433 59.5017Z" fill="black"/>
<path d="M108.646 52.3394C108.646 52.3394 115.349 54.2954 117.122 52.5709C119.329 50.4062 118.403 44.949 118.142 42.8137C117.882 40.6784 118.142 39.1983 118.732 38.5757C119.322 37.953 120.18 37.0304 122.97 38.1812C120.164 39.6254 121.014 47.0191 121.891 49.777C119.691 52.0395 118.631 55.0289 118.596 56.6589C118.596 56.6589 112.868 58.0574 109.878 59.6972L108.646 52.3394Z" fill="#455A64"/>
<path opacity="0.1" d="M108.646 52.3394C108.646 52.3394 115.349 54.2954 117.122 52.5709C119.329 50.4062 118.403 44.949 118.142 42.8137C117.882 40.6784 118.142 39.1983 118.732 38.5757C119.322 37.953 120.18 37.0304 122.97 38.1812C120.164 39.6254 120.532 47.0191 121.419 49.777C119.218 52.0395 118.638 55.0289 118.596 56.6589C118.596 56.6589 112.868 58.0574 109.878 59.6972L108.646 52.3394Z" fill="white"/>
<path d="M109.862 59.6971L108.49 58.9571C108.49 55.1886 107.935 55.5602 106.895 54.0671C105.855 52.5741 107.45 51.671 108.646 52.3263C109.842 52.9815 110.331 54.9734 109.862 59.6971Z" fill="#455A64"/>
<path opacity="0.2" d="M109.862 59.6971L108.49 58.9571C108.49 55.1886 107.935 55.5602 106.895 54.0671C105.855 52.5741 107.45 51.671 108.646 52.3263C109.842 52.9815 110.331 54.9734 109.862 59.6971Z" fill="white"/>
<path d="M122.954 38.1812C122.954 38.1812 130.452 41.4412 134.116 43.2407L133.849 44.574L121.875 39.1363C122.158 38.7402 122.527 38.4136 122.954 38.1812Z" fill="#455A64"/>
<path opacity="0.1" d="M122.954 38.1812C122.954 38.1812 130.452 41.4412 134.116 43.2407L133.849 44.574L121.875 39.1363C122.158 38.7402 122.527 38.4136 122.954 38.1812Z" fill="white"/>
<path d="M120.672 49.2554C119.913 46.8984 120.069 41.552 121.875 39.1494L133.849 44.5871L131.114 58.3019L126.778 60.8871L118.579 56.6589C118.622 55.0289 118.472 51.5081 120.672 49.2554Z" fill="#455A64"/>
<path d="M128.082 52.0038C127.88 51.8864 127.714 51.9809 127.714 52.2157C127.72 52.3425 127.757 52.4659 127.82 52.5759C127.884 52.6858 127.972 52.7791 128.079 52.8481C128.281 52.9655 128.447 52.8742 128.447 52.6395C128.441 52.5121 128.405 52.388 128.342 52.2774C128.278 52.1669 128.189 52.0731 128.082 52.0038Z" fill="#455A64"/>
<path d="M126.23 50.9149C126.025 50.7975 125.862 50.8921 125.859 51.1268C125.866 51.2537 125.904 51.377 125.968 51.4869C126.032 51.5967 126.121 51.69 126.227 51.7592C126.429 51.8766 126.596 51.7853 126.596 51.5506C126.589 51.4234 126.552 51.2996 126.489 51.1892C126.425 51.0787 126.337 50.9848 126.23 50.9149Z" fill="#455A64"/>
<path d="M124.376 49.826C124.173 49.7087 124.007 49.8032 124.007 50.0379C124.014 50.1646 124.051 50.2879 124.114 50.3977C124.178 50.5076 124.266 50.601 124.372 50.6704C124.578 50.7877 124.741 50.6964 124.744 50.4617C124.737 50.3343 124.699 50.2104 124.635 50.1C124.571 49.9896 124.482 49.8957 124.376 49.826Z" fill="#455A64"/>
<path d="M122.524 48.7372C122.318 48.6198 122.155 48.7143 122.155 48.9491C122.162 49.0758 122.198 49.1993 122.262 49.3093C122.325 49.4192 122.414 49.5125 122.521 49.5815C122.723 49.6989 122.889 49.6076 122.889 49.3729C122.882 49.2457 122.846 49.1219 122.782 49.0114C122.719 48.901 122.63 48.8071 122.524 48.7372Z" fill="#455A64"/>
<g opacity="0.2">
<path d="M128.082 52.0038C127.88 51.8864 127.714 51.9809 127.714 52.2157C127.72 52.3425 127.757 52.4659 127.82 52.5759C127.884 52.6858 127.972 52.7791 128.079 52.8481C128.281 52.9655 128.447 52.8742 128.447 52.6395C128.441 52.5121 128.405 52.388 128.342 52.2774C128.278 52.1669 128.189 52.0731 128.082 52.0038Z" fill="white"/>
<path d="M126.23 50.9149C126.025 50.7975 125.862 50.8921 125.859 51.1268C125.866 51.2537 125.904 51.377 125.968 51.4869C126.032 51.5967 126.121 51.69 126.227 51.7592C126.429 51.8766 126.596 51.7853 126.596 51.5506C126.589 51.4234 126.552 51.2996 126.489 51.1892C126.425 51.0787 126.337 50.9848 126.23 50.9149Z" fill="white"/>
<path d="M124.375 49.826C124.173 49.7087 124.007 49.8032 124.007 50.0379C124.014 50.1646 124.051 50.2879 124.114 50.3977C124.178 50.5076 124.266 50.601 124.372 50.6704C124.578 50.7877 124.741 50.6964 124.744 50.4617C124.737 50.3343 124.699 50.2104 124.635 50.1C124.571 49.9896 124.482 49.8957 124.375 49.826Z" fill="white"/>
<path d="M122.524 48.7372C122.318 48.6198 122.155 48.7143 122.155 48.9491C122.162 49.0758 122.198 49.1993 122.262 49.3093C122.325 49.4192 122.414 49.5125 122.521 49.5815C122.723 49.6989 122.889 49.6076 122.889 49.3729C122.882 49.2457 122.846 49.1219 122.782 49.0114C122.719 48.901 122.63 48.8071 122.524 48.7372Z" fill="white"/>
</g>
<path d="M122.964 62.0118C123.814 61.5511 124.739 61.2443 125.696 61.1055C126.054 61.0338 126.42 60.9621 126.778 60.8741C127.361 60.7474 127.923 60.5423 128.451 60.2644C129.774 59.5342 130.664 58.165 131.091 56.7143C131.462 55.2443 131.579 53.7217 131.437 52.2123C131.345 50.6996 131.16 49.1935 131.205 47.6808C131.231 46.8006 131.365 45.8585 131.958 45.2098C132.552 44.561 133.565 44.3361 134.462 44.4567C134.758 44.4978 135.049 44.5654 135.332 44.6588L135.73 45.125L135.577 45.689L131.681 60.0754C131.411 61.0744 130.771 61.9334 129.891 62.478C129.79 62.5399 129.689 62.6019 129.582 62.654L121.758 66.6149L121.464 64.3329C121.481 63.381 122.142 62.5171 122.964 62.0118Z" fill="#37474F"/>
<path d="M122.954 60.4634C125.813 59.6484 128.62 59.5441 129.657 57.4903C130.693 55.4365 130.765 52.6003 130.247 47.6745C130.183 47.0393 130.198 46.3987 130.292 45.7673C130.599 43.9254 131.707 43.1365 132.982 43.117C134.244 43.095 135.466 43.5542 136.402 44.4014C136.583 44.5529 136.728 44.7435 136.825 44.9589C136.871 45.065 136.887 45.1813 136.873 45.2959C136.859 45.4104 136.814 45.5191 136.744 45.6109C136.628 45.731 136.471 45.8022 136.304 45.8097H136.268C136.095 45.813 135.923 45.7865 135.759 45.7315L135.564 45.6728C135.215 45.562 134.869 45.4316 134.514 45.3468C134.089 45.2213 133.636 45.2213 133.21 45.3468C133.01 45.4255 132.831 45.5499 132.688 45.7101C132.545 45.8703 132.441 46.0619 132.385 46.2694C131.179 50.2075 132.711 54.4389 131.352 57.6794C130.244 60.6362 126.41 61.8652 123.707 62.7422C123.971 62.6384 124.203 62.469 124.382 62.2499C124.517 62.0415 124.579 61.7945 124.56 61.5471C124.54 61.2997 124.44 61.0655 124.274 60.8807C124.105 60.7092 123.896 60.5817 123.666 60.509C123.436 60.4363 123.192 60.4206 122.954 60.4634Z" fill="#455A64"/>
<path opacity="0.1" d="M122.954 60.4634C125.813 59.6484 128.62 59.5441 129.657 57.4903C130.693 55.4365 130.765 52.6003 130.247 47.6745C130.183 47.0393 130.198 46.3987 130.292 45.7673C130.599 43.9254 131.707 43.1365 132.982 43.117C134.244 43.095 135.466 43.5542 136.402 44.4014C136.583 44.5529 136.728 44.7435 136.825 44.9589C136.871 45.065 136.887 45.1813 136.873 45.2959C136.859 45.4104 136.814 45.5191 136.744 45.6109C136.628 45.731 136.471 45.8022 136.304 45.8097H136.268C136.095 45.813 135.923 45.7865 135.759 45.7315L135.564 45.6728C135.215 45.562 134.869 45.4316 134.514 45.3468C134.089 45.2213 133.636 45.2213 133.21 45.3468C133.01 45.4255 132.831 45.5499 132.688 45.7101C132.545 45.8703 132.441 46.0619 132.385 46.2694C131.179 50.2075 132.711 54.4389 131.352 57.6794C130.244 60.6362 126.41 61.8652 123.707 62.7422C123.971 62.6384 124.203 62.469 124.382 62.2499C124.517 62.0415 124.579 61.7945 124.56 61.5471C124.54 61.2997 124.44 61.0655 124.274 60.8807C124.105 60.7092 123.896 60.5817 123.666 60.509C123.436 60.4363 123.192 60.4206 122.954 60.4634Z" fill="white"/>
<path d="M120.972 62.4879C121.139 62.0217 121.386 61.5882 121.702 61.2067C122.022 60.8233 122.464 60.561 122.954 60.4634C123.198 60.4184 123.449 60.4351 123.685 60.512C123.921 60.5888 124.133 60.7234 124.304 60.9035C124.469 61.0883 124.57 61.3225 124.589 61.5699C124.609 61.8174 124.546 62.0643 124.411 62.2727C124.232 62.4918 124 62.6613 123.737 62.765C123.521 62.8557 123.311 62.9591 123.107 63.0747C122.574 63.4347 122.19 63.9773 122.028 64.6004C121.868 65.218 121.784 65.853 121.777 66.4912V66.615L120.437 65.8718C120.376 64.7188 120.558 63.5657 120.972 62.4879Z" fill="#455A64"/>
<path opacity="0.2" d="M120.972 62.4879C121.139 62.0217 121.386 61.5882 121.702 61.2067C122.022 60.8233 122.464 60.561 122.954 60.4634C123.198 60.4184 123.449 60.4351 123.685 60.512C123.921 60.5888 124.133 60.7234 124.304 60.9035C124.469 61.0883 124.57 61.3225 124.589 61.5699C124.609 61.8174 124.546 62.0643 124.411 62.2727C124.232 62.4918 124 62.6613 123.737 62.765C123.521 62.8557 123.311 62.9591 123.107 63.0747C122.574 63.4347 122.19 63.9773 122.028 64.6004C121.868 65.218 121.784 65.853 121.777 66.4912V66.615L120.437 65.8718C120.376 64.7188 120.558 63.5657 120.972 62.4879Z" fill="white"/>
<path d="M139.088 49.3695L138.873 49.1348L126.058 54.3116L127.251 58.6311L127.466 58.8626L140.278 53.689L139.088 49.3695Z" fill="#BA68C8"/>
<path opacity="0.2" d="M126.058 54.3118L127.251 58.6313L127.466 58.8627L126.273 54.5465L126.058 54.3118Z" fill="black"/>
<path opacity="0.2" d="M139.088 49.3695L138.873 49.1348L126.058 54.3116L126.273 54.5464L139.088 49.3695Z" fill="white"/>
<path d="M132.953 55.2669L132.447 53.4315C132.441 53.4067 132.428 53.3838 132.411 53.3646C132.394 53.3454 132.373 53.3303 132.349 53.3206H132.317H132.281C132.257 53.3176 132.233 53.3176 132.209 53.3206C132.181 53.3299 132.155 53.3455 132.134 53.3663C132.113 53.3843 132.095 53.4064 132.082 53.4315C132.074 53.4483 132.068 53.4657 132.063 53.4836C132.061 53.4923 132.061 53.5011 132.063 53.5097C132.056 53.5365 132.056 53.5645 132.063 53.5912L132.265 54.3247L131.124 54.7681L130.922 54.0346C130.914 54.0036 130.897 53.9756 130.873 53.9541C130.849 53.9327 130.82 53.9187 130.788 53.914H130.726C130.702 53.9093 130.678 53.9093 130.654 53.914C130.626 53.9265 130.6 53.9429 130.576 53.9629C130.555 53.9814 130.537 54.0035 130.524 54.0281C130.516 54.0449 130.509 54.0623 130.504 54.0802C130.504 54.0802 130.504 54.0998 130.504 54.1063C130.499 54.1332 130.499 54.1609 130.504 54.1878L131.013 56.0232C131.019 56.0484 131.032 56.0718 131.049 56.0916C131.059 56.1011 131.071 56.1088 131.085 56.1145C131.091 56.116 131.098 56.116 131.104 56.1145C131.12 56.1176 131.137 56.1176 131.153 56.1145H131.182C131.212 56.1139 131.241 56.1072 131.267 56.0949C131.321 56.0757 131.366 56.0378 131.394 55.9881C131.422 55.9384 131.432 55.8803 131.42 55.8243L131.215 55.0778L132.327 54.6279L132.532 55.3744C132.546 55.417 132.575 55.4529 132.614 55.4755C132.614 55.4755 132.614 55.4755 132.63 55.4755C132.646 55.4789 132.663 55.4789 132.679 55.4755H132.705C132.72 55.4773 132.735 55.4773 132.75 55.4755H132.79C132.834 55.4604 132.873 55.4326 132.902 55.3955C132.931 55.3585 132.949 55.3137 132.953 55.2669Z" fill="white"/>
<path d="M130.495 56.0167C130.487 55.9943 130.475 55.9738 130.46 55.9564C130.444 55.9389 130.425 55.9251 130.403 55.9156H130.338C130.319 55.9126 130.299 55.9126 130.279 55.9156C130.256 55.9255 130.234 55.9386 130.214 55.9547C130.197 55.9704 130.182 55.9879 130.169 56.0069L130.133 56.0558C130.116 56.0821 130.098 56.1071 130.077 56.1308L130.061 56.1536L129.996 56.2188C129.984 56.2344 129.971 56.2487 129.957 56.2612C129.94 56.2775 129.918 56.2905 129.898 56.3068L129.836 56.3524L129.764 56.3883L129.673 56.4339L129.569 56.4665H129.543H129.513C129.337 56.5056 129.153 56.4738 129.001 56.378C128.848 56.2822 128.739 56.1301 128.698 55.9547C128.67 55.8484 128.663 55.7379 128.675 55.6287C128.681 55.5756 128.692 55.5232 128.708 55.4722C128.707 55.4592 128.707 55.4461 128.708 55.4331C128.721 55.3937 128.737 55.3556 128.757 55.319C128.778 55.277 128.802 55.2367 128.829 55.1984L128.845 55.1788C128.874 55.14 128.907 55.1039 128.943 55.0713L128.979 55.0452C129.055 54.9788 129.142 54.9259 129.236 54.8887C129.429 54.8065 129.646 54.7961 129.846 54.8594C129.889 54.8729 129.936 54.8729 129.979 54.8594C130.034 54.8407 130.079 54.8029 130.107 54.7531C130.136 54.7033 130.145 54.6448 130.133 54.5888C130.123 54.5591 130.106 54.5322 130.084 54.5105C130.065 54.4942 130.043 54.482 130.019 54.4747C129.989 54.4666 129.958 54.4601 129.927 54.4551H129.862H129.813C129.753 54.4486 129.691 54.4486 129.631 54.4551C129.548 54.4593 129.466 54.4725 129.386 54.4942C129.306 54.5139 129.227 54.5401 129.151 54.5725C129.065 54.6052 128.982 54.6467 128.904 54.6964C128.833 54.7419 128.766 54.792 128.702 54.8463C128.703 54.8517 128.703 54.8573 128.702 54.8626C128.646 54.9148 128.594 54.9704 128.545 55.0289L128.522 55.0582C128.476 55.1179 128.435 55.1812 128.398 55.2473C128.376 55.2864 128.363 55.3321 128.343 55.3712C128.323 55.4103 128.314 55.4396 128.301 55.4722C128.289 55.5117 128.28 55.552 128.274 55.5929C128.263 55.6301 128.254 55.6683 128.248 55.707C128.245 55.7602 128.245 55.8135 128.248 55.8667C128.247 55.8928 128.247 55.9189 128.248 55.9449C128.252 56.0245 128.265 56.1033 128.288 56.1797C128.311 56.2585 128.341 56.3349 128.379 56.4079C128.392 56.4298 128.407 56.4506 128.424 56.4698C128.45 56.5147 128.479 56.5572 128.512 56.5969C128.539 56.6247 128.567 56.6508 128.597 56.6752L128.649 56.7241L128.685 56.7502H128.711C128.746 56.774 128.784 56.7947 128.822 56.8121L128.848 56.8284C128.998 56.8886 129.158 56.9182 129.319 56.9154C129.481 56.9126 129.64 56.8775 129.787 56.8121C130.11 56.6892 130.38 56.459 130.553 56.1601C130.553 56.1335 130.548 56.1072 130.538 56.0825C130.528 56.0579 130.513 56.0355 130.495 56.0167Z" fill="white"/>
<path d="M133.986 54.8495L133.481 53.0142C133.473 52.9858 133.457 52.96 133.436 52.9395C133.415 52.9189 133.389 52.9042 133.36 52.8968C133.345 52.8953 133.33 52.8953 133.314 52.8968H133.295C133.272 52.8921 133.249 52.8921 133.226 52.8968C133.198 52.9093 133.172 52.9258 133.148 52.9457C133.128 52.9651 133.111 52.987 133.096 53.0109C133.088 53.0275 133.081 53.045 133.076 53.0631C133.075 53.0717 133.075 53.0805 133.076 53.0891C133.07 53.1159 133.07 53.1439 133.076 53.1706L133.582 55.0028C133.592 55.0378 133.612 55.0688 133.641 55.0911C133.67 55.1134 133.705 55.1259 133.741 55.1266H133.758C133.787 55.1245 133.815 55.1179 133.843 55.1071C133.892 55.087 133.934 55.0505 133.96 55.0036C133.986 54.9568 133.995 54.9024 133.986 54.8495Z" fill="white"/>
<path d="M134.866 54.6899L135.31 54.5138L136.242 54.1357C136.29 54.1168 136.33 54.0815 136.354 54.0362C136.378 53.9909 136.386 53.9384 136.376 53.8879C136.365 53.8547 136.345 53.8258 136.316 53.8057C136.288 53.7857 136.254 53.7756 136.219 53.7771C136.196 53.7724 136.173 53.7724 136.151 53.7771L134.977 54.253L134.817 53.6662L135.821 53.262C135.869 53.2433 135.908 53.2087 135.933 53.1641C135.958 53.1196 135.967 53.0678 135.958 53.0175C135.952 52.9946 135.941 52.9733 135.926 52.9552C135.911 52.9372 135.892 52.9228 135.87 52.9132H135.838H135.802C135.779 52.9102 135.756 52.9102 135.733 52.9132L134.729 53.3174L134.573 52.7502L135.727 52.284C135.752 52.2738 135.775 52.2595 135.795 52.2416C135.824 52.2174 135.846 52.1858 135.859 52.1503C135.871 52.1148 135.874 52.0765 135.867 52.0395C135.861 52.024 135.852 52.0097 135.841 51.9971C135.826 51.9806 135.809 51.9672 135.789 51.958H135.727C135.702 51.9591 135.678 51.9646 135.655 51.9743L134.299 52.522C134.271 52.5345 134.244 52.551 134.221 52.5709C134.2 52.5894 134.182 52.6115 134.169 52.6361C134.16 52.6522 134.154 52.67 134.152 52.6882V52.7143C134.146 52.7411 134.146 52.769 134.152 52.7958L134.648 54.5953C134.656 54.6218 134.669 54.6462 134.687 54.6671H134.703L134.736 54.6899H134.759H134.804H134.85H134.866Z" fill="white"/>
<path d="M138.051 52.0396C138.028 52.0419 138.005 52.0474 137.983 52.0559L136.975 52.4634L136.809 51.8635L137.966 51.3974C138.016 51.3796 138.057 51.3449 138.082 51.2994C138.108 51.254 138.117 51.2008 138.107 51.1496C138.101 51.1267 138.09 51.1054 138.075 51.0873C138.059 51.0693 138.04 51.0549 138.019 51.0453C137.998 51.0419 137.977 51.0419 137.957 51.0453C137.933 51.0476 137.91 51.0531 137.888 51.0616L136.526 51.6125C136.497 51.6218 136.472 51.6374 136.451 51.6582C136.43 51.6757 136.412 51.6967 136.398 51.7201C136.39 51.7353 136.385 51.7518 136.382 51.769C136.381 51.7787 136.381 51.7886 136.382 51.7983C136.379 51.821 136.379 51.8441 136.382 51.8668L136.884 53.6859C136.891 53.7118 136.904 53.7355 136.923 53.7543H136.943C136.952 53.7627 136.962 53.7704 136.972 53.7772C136.992 53.7809 137.011 53.7809 137.031 53.7772H137.07H137.099H137.129L137.158 53.7576H137.178H137.194C137.226 53.7308 137.25 53.6956 137.263 53.6558C137.277 53.6161 137.278 53.5734 137.269 53.5327L137.073 52.8187L138.077 52.4112C138.128 52.3941 138.171 52.3592 138.198 52.3131C138.224 52.267 138.234 52.2127 138.224 52.1602C138.215 52.1225 138.192 52.0895 138.16 52.0674C138.129 52.0452 138.09 52.0353 138.051 52.0396Z" fill="white"/>
<path d="M132.682 42.3801H132.662C132.576 42.3854 132.489 42.3985 132.405 42.4192C130.713 42.8496 129.109 46.7616 127.772 53.7086C127.77 53.7213 127.77 53.7342 127.773 53.7468C127.776 53.7594 127.781 53.7713 127.788 53.7819C127.795 53.7925 127.804 53.8015 127.815 53.8086C127.826 53.8156 127.838 53.8204 127.851 53.8227H127.87C127.893 53.8224 127.916 53.8142 127.934 53.7993C127.951 53.7845 127.964 53.764 127.968 53.7412C128.757 49.6336 130.429 42.6768 132.672 42.5725H132.741C132.84 42.5952 132.934 42.6398 133.014 42.7029L133.533 42.9506C133.213 42.5985 132.92 42.3801 132.682 42.3801Z" fill="#E6E6E6"/>
</svg>
