<svg width="149" height="148" viewBox="0 0 149 148" fill="none" xmlns="http://www.w3.org/2000/svg">
<path d="M20.2343 117.568H46.3533L46.3533 81.4237H20.2343L20.2343 117.568Z" fill="#EBEBEB"/>
<path d="M18.9704 81.4237H47.6202V80.0828H18.9704V81.4237Z" fill="#DBDBDB"/>
<path d="M9.96016 81.4237H18.9704V80.0828H9.96016V81.4237Z" fill="#EBEBEB"/>
<path d="M11.3869 117.568H20.2373L20.2373 81.4237H11.3869L11.3869 117.568Z" fill="#DBDBDB"/>
<path d="M43.5473 98.1536H23.0433V86.5623H43.5473V98.1536ZM23.1233 98.0796H43.4792V86.6363H23.1173L23.1233 98.0796Z" fill="#C7C7C7"/>
<path d="M32.1661 92.2455H36.1562V89.9515H32.1661V92.2455Z" fill="#C7C7C7"/>
<path d="M35.0136 92.1093H30.9495V90.0876H35.0136V92.1093ZM31.0235 92.0353H34.9396V90.1616H31.0235V92.0353Z" fill="#C7C7C7"/>
<path d="M43.5473 112.708H23.0433V101.114H43.5473V112.708ZM23.1233 112.634H43.4792V101.188H23.1173L23.1233 112.634Z" fill="#C7C7C7"/>
<path d="M32.1661 106.797H36.1562V104.503H32.1661V106.797Z" fill="#C7C7C7"/>
<path d="M35.0136 106.661H30.9495V104.642H35.0136V106.661ZM31.0235 106.587H34.9396V104.716H31.0235V106.587Z" fill="#C7C7C7"/>
<path d="M31.1515 31.7047C35.6333 30.6602 38.4196 26.1802 37.3751 21.6985C36.3305 17.2167 31.8505 14.4304 27.3688 15.475C22.887 16.5195 20.1007 20.9995 21.1453 25.4812C22.1898 29.963 26.6698 32.7493 31.1515 31.7047Z" fill="#EBEBEB"/>
<path d="M35.2629 29.3967C38.3678 26.2918 38.3678 21.2578 35.2629 18.1529C32.158 15.048 27.124 15.048 24.0191 18.1529C20.9143 21.2578 20.9143 26.2918 24.0191 29.3967C27.124 32.5016 32.158 32.5016 35.2629 29.3967Z" fill="#DBDBDB"/>
<path d="M33.3848 30.0714C36.8823 27.9318 37.983 23.362 35.8434 19.8645C33.7038 16.367 29.1339 15.2662 25.6365 17.4059C22.139 19.5455 21.0382 24.1153 23.1778 27.6128C25.3175 31.1103 29.8873 32.211 33.3848 30.0714Z" fill="white"/>
<path opacity="0.5" d="M36.9228 22.2001C33.5306 24.2543 27.954 27.6258 24.8371 29.4758C23.9575 28.7318 23.2616 27.7948 22.8036 26.7378L33.1073 17.1681C34.0728 17.6766 34.9148 18.3908 35.5741 19.2602C36.2333 20.1297 36.6937 21.1333 36.9228 22.2001Z" fill="#EBEBEB"/>
<path opacity="0.5" d="M37.0856 24.0353C37.0572 24.8631 36.8912 25.6804 36.5942 26.4536L27.3028 30.8492C26.8947 30.7149 26.4987 30.5466 26.1188 30.346C28.9337 28.7121 34.0634 25.7728 37.0856 24.0353Z" fill="#EBEBEB"/>
<path d="M29.7152 16.8661H29.5701V17.9938H29.7152V16.8661Z" fill="#C7C7C7"/>
<path d="M26.2514 17.7516L26.1258 17.8241L26.6896 18.8008L26.8153 18.7282L26.2514 17.7516Z" fill="#C7C7C7"/>
<path d="M23.6949 20.2528L23.6224 20.3784L24.5991 20.9423L24.6716 20.8167L23.6949 20.2528Z" fill="#C7C7C7"/>
<path d="M23.8603 23.7008H22.7325V23.8458H23.8603V23.7008Z" fill="#C7C7C7"/>
<path d="M24.5985 26.6018L23.6219 27.1659L23.6944 27.2915L24.671 26.7274L24.5985 26.6018Z" fill="#C7C7C7"/>
<path d="M26.6886 28.7412L26.1254 29.7183L26.251 29.7907L26.8142 28.8136L26.6886 28.7412Z" fill="#C7C7C7"/>
<path d="M29.7152 29.5526H29.5701V30.6804H29.7152V29.5526Z" fill="#C7C7C7"/>
<path d="M32.5943 28.7427L32.4687 28.8152L33.0326 29.7919L33.1582 29.7193L32.5943 28.7427Z" fill="#C7C7C7"/>
<path d="M34.6847 26.6041L34.6121 26.7297L35.5887 27.2938L35.6612 27.1682L34.6847 26.6041Z" fill="#C7C7C7"/>
<path d="M36.5498 23.7008H35.4221V23.8458H36.5498V23.7008Z" fill="#C7C7C7"/>
<path d="M35.5876 20.2608L34.611 20.8248L34.6836 20.9504L35.6601 20.3864L35.5876 20.2608Z" fill="#C7C7C7"/>
<path d="M33.0304 17.7537L32.467 18.7307L32.5927 18.8032L33.156 17.8262L33.0304 17.7537Z" fill="#C7C7C7"/>
<path d="M29.7507 17.3752L29.9934 24.278L29.2889 24.2691L29.5583 17.3752H29.7507Z" fill="#C7C7C7"/>
<path d="M34.0486 21.3683L29.4044 24.3313L29.067 23.7097L33.9569 21.1996L34.0486 21.3683Z" fill="#A6A6A6"/>
<path d="M29.8809 23.7748C29.8809 23.8384 29.8557 23.8994 29.8107 23.9443C29.7658 23.9893 29.7048 24.0146 29.6412 24.0146C29.5776 24.0146 29.5166 23.9893 29.4717 23.9443C29.4267 23.8994 29.4014 23.8384 29.4014 23.7748C29.4014 23.7112 29.4267 23.6502 29.4717 23.6053C29.5166 23.5603 29.5776 23.535 29.6412 23.535C29.7048 23.535 29.7658 23.5603 29.8107 23.6053C29.8557 23.6502 29.8809 23.7112 29.8809 23.7748Z" fill="#C7C7C7"/>
<path d="M121.709 32.4594L123.979 33.8684L124.409 33.1728C124.471 33.0744 124.559 32.9948 124.663 32.9427C124.768 32.8905 124.884 32.8678 125.001 32.8768C125.133 32.8891 125.267 32.8941 125.4 32.8916C125.518 32.8879 125.634 32.9169 125.736 32.9754C125.838 33.034 125.921 33.1197 125.977 33.2231L126.362 33.9424L128.715 32.6785L128.331 31.9592C128.276 31.8556 128.251 31.7388 128.258 31.6218C128.265 31.5048 128.305 31.3921 128.372 31.2962C128.449 31.1873 128.52 31.0736 128.582 30.9558C128.639 30.8525 128.722 30.7667 128.824 30.7077C128.926 30.6487 129.042 30.6188 129.159 30.6213L129.976 30.6479L130.059 27.9839L129.26 27.9543C129.142 27.9498 129.028 27.9125 128.93 27.8467C128.832 27.7808 128.755 27.6889 128.706 27.5814C128.68 27.5222 128.65 27.4659 128.618 27.4067C128.585 27.3475 128.556 27.2913 128.523 27.235C128.461 27.1354 128.429 27.0206 128.429 26.9035C128.429 26.7864 128.461 26.6716 128.523 26.572L128.955 25.8734L126.688 24.4645L126.235 25.1601C126.173 25.259 126.085 25.3389 125.98 25.3911C125.876 25.4433 125.759 25.4658 125.643 25.4561C125.511 25.4487 125.378 25.4487 125.246 25.4561C125.129 25.4602 125.012 25.4313 124.91 25.3727C124.808 25.3141 124.725 25.2282 124.669 25.1246L124.284 24.4053L121.916 25.6692L122.304 26.3885C122.359 26.4922 122.384 26.6092 122.376 26.7263C122.368 26.8435 122.328 26.9561 122.26 27.0515C122.186 27.161 122.115 27.2735 122.052 27.389C121.997 27.4929 121.913 27.5792 121.811 27.6383C121.709 27.6974 121.593 27.7269 121.475 27.7234L120.676 27.685L120.593 30.349L121.41 30.3726C121.527 30.3777 121.641 30.4152 121.738 30.4811C121.835 30.5469 121.912 30.6385 121.961 30.7456C121.99 30.8048 122.02 30.864 122.052 30.9202C122.085 30.9765 122.115 31.0357 122.147 31.0919C122.209 31.1921 122.241 31.3074 122.241 31.4249C122.241 31.5425 122.209 31.6577 122.147 31.7579L121.709 32.4594ZM123.396 30.201C123.191 29.8201 123.103 29.3868 123.143 28.9559C123.184 28.525 123.352 28.1158 123.625 27.7803C123.899 27.4447 124.265 27.1978 124.679 27.0708C125.093 26.9438 125.535 26.9424 125.95 27.0667C126.364 27.1911 126.733 27.4357 127.008 27.7695C127.284 28.1033 127.454 28.5113 127.497 28.9419C127.541 29.3726 127.456 29.8064 127.253 30.1886C127.05 30.5708 126.738 30.8841 126.356 31.089C126.103 31.2248 125.826 31.3093 125.54 31.3377C125.254 31.3661 124.965 31.3379 124.69 31.2546C124.415 31.1712 124.159 31.0345 123.937 30.8522C123.715 30.6699 123.531 30.4456 123.396 30.1921V30.201Z" fill="#EBEBEB"/>
<path d="M129.71 20.7378L130.645 22.3598L131.14 22.0638C131.211 22.0225 131.293 22.002 131.376 22.0046C131.458 22.0072 131.538 22.0329 131.607 22.0786C131.684 22.1296 131.764 22.176 131.847 22.2178C131.921 22.2544 131.984 22.3109 132.027 22.3809C132.071 22.4509 132.095 22.5318 132.096 22.6144V23.1857H133.966V22.6233C133.966 22.5409 133.99 22.4601 134.033 22.3901C134.076 22.32 134.138 22.2634 134.212 22.2266C134.295 22.1852 134.375 22.1378 134.455 22.0875C134.523 22.0417 134.603 22.016 134.685 22.0134C134.767 22.0108 134.848 22.0313 134.92 22.0727L135.417 22.3687L136.364 20.7378L135.864 20.4418C135.793 20.4001 135.735 20.3395 135.697 20.2668C135.659 20.1941 135.642 20.1122 135.648 20.0303C135.648 19.983 135.648 19.9386 135.648 19.8912C135.648 19.8438 135.648 19.7994 135.648 19.755C135.642 19.6731 135.659 19.5912 135.697 19.5185C135.735 19.4459 135.793 19.3853 135.864 19.3436L136.364 19.0476L135.429 17.4285L134.931 17.7245C134.859 17.7647 134.777 17.7843 134.695 17.7812C134.613 17.7781 134.532 17.7523 134.464 17.7067C134.386 17.6558 134.306 17.6093 134.224 17.5676C134.148 17.5322 134.083 17.4759 134.037 17.4052C133.992 17.3344 133.967 17.2522 133.966 17.168V16.6056H132.096V17.168C132.095 17.2498 132.071 17.3298 132.028 17.3992C131.985 17.4686 131.923 17.5248 131.85 17.5617C131.766 17.6034 131.685 17.6498 131.607 17.7008C131.539 17.7461 131.459 17.7717 131.377 17.7749C131.295 17.778 131.214 17.7585 131.143 17.7186L130.645 17.4226L129.71 19.0417L130.207 19.3377C130.277 19.3798 130.335 19.4405 130.373 19.5131C130.411 19.5857 130.428 19.6673 130.423 19.7491C130.423 19.7965 130.423 19.8409 130.423 19.8882C130.423 19.9356 130.423 19.98 130.423 20.0274C130.429 20.1096 130.412 20.1918 130.373 20.2646C130.334 20.3374 130.276 20.3978 130.204 20.4388L129.71 20.7378ZM131.486 19.9001C131.486 19.5967 131.576 19.3001 131.745 19.0479C131.913 18.7957 132.153 18.5992 132.433 18.4832C132.713 18.3673 133.022 18.3371 133.319 18.3965C133.617 18.4559 133.89 18.6022 134.104 18.8169C134.319 19.0317 134.465 19.3051 134.523 19.6028C134.582 19.9004 134.551 20.2088 134.435 20.4889C134.318 20.769 134.121 21.0083 133.869 21.1764C133.616 21.3445 133.32 21.4339 133.016 21.4334C132.612 21.4302 132.225 21.2672 131.941 20.9799C131.656 20.6926 131.497 20.3044 131.498 19.9001H131.486Z" fill="#EBEBEB"/>
<path d="M15.9157 56.4709L16.851 58.09L17.3483 57.794C17.4196 57.753 17.501 57.733 17.5832 57.7361C17.6654 57.7393 17.7451 57.7655 17.813 57.8118C17.893 57.8621 17.9729 57.9065 18.0558 57.9509C18.129 57.9875 18.1908 58.0436 18.2341 58.1131C18.2775 58.1825 18.3008 58.2627 18.3014 58.3446V58.9188H20.1751V58.3446C20.1758 58.2627 20.1991 58.1825 20.2424 58.1131C20.2858 58.0436 20.3475 57.9875 20.4208 57.9509C20.5037 57.9065 20.5836 57.8621 20.6635 57.8118C20.7315 57.7655 20.8111 57.7393 20.8933 57.7361C20.9755 57.733 21.0569 57.753 21.1282 57.794L21.6255 58.09L22.5579 56.4709L22.0606 56.1749C21.9901 56.1322 21.9327 56.071 21.8946 55.9979C21.8565 55.9249 21.8392 55.8427 21.8446 55.7605C21.8446 55.7161 21.8446 55.6687 21.8446 55.6243C21.8446 55.5799 21.8446 55.5326 21.8446 55.4852C21.8394 55.4034 21.8568 55.3217 21.8949 55.2492C21.933 55.1766 21.9904 55.1159 22.0606 55.0738L22.5579 54.7778L21.6255 53.1557L21.1282 53.4517C21.0566 53.493 20.9749 53.5135 20.8923 53.5109C20.8097 53.5083 20.7294 53.4826 20.6606 53.4369C20.5834 53.3859 20.5033 53.3395 20.4208 53.2978C20.3471 53.261 20.285 53.2044 20.2417 53.1343C20.1983 53.0643 20.1752 52.9835 20.1751 52.9011V52.3298H18.3014V52.9011C18.3013 52.9835 18.2783 53.0643 18.2349 53.1343C18.1915 53.2044 18.1295 53.261 18.0558 53.2978C17.9732 53.3395 17.8932 53.3859 17.816 53.4369C17.7472 53.4826 17.6669 53.5083 17.5843 53.5109C17.5016 53.5135 17.4199 53.493 17.3483 53.4517L16.851 53.1557L15.9157 54.7778L16.4159 55.0738C16.4867 55.1154 16.5444 55.176 16.5825 55.2487C16.6207 55.3214 16.6378 55.4033 16.632 55.4852C16.632 55.5296 16.632 55.577 16.632 55.6243C16.632 55.6717 16.632 55.7161 16.632 55.7605C16.6374 55.8431 16.6198 55.9255 16.5812 55.9987C16.5425 56.0719 16.4843 56.1329 16.413 56.1749L15.9157 56.4709ZM17.7065 55.648C17.7065 55.3446 17.7965 55.0481 17.9651 54.7958C18.1337 54.5436 18.3733 54.3471 18.6537 54.2311C18.934 54.1152 19.2425 54.085 19.54 54.1444C19.8375 54.2038 20.1107 54.3501 20.325 54.5649C20.5393 54.7796 20.6851 55.0531 20.7439 55.3507C20.8028 55.6483 20.772 55.9567 20.6555 56.2368C20.539 56.5169 20.342 56.7562 20.0894 56.9243C19.8369 57.0924 19.5402 57.1819 19.2368 57.1813C19.0356 57.1813 18.8363 57.1416 18.6505 57.0645C18.4646 56.9874 18.2958 56.8744 18.1537 56.732C18.0115 56.5896 17.8988 56.4205 17.8221 56.2345C17.7454 56.0485 17.7061 55.8492 17.7065 55.648Z" fill="#EBEBEB"/>
<path d="M9.21127 117.565L25.5327 117.494L41.8571 117.468L74.5 117.42L107.146 117.468L123.467 117.494L139.789 117.565L123.467 117.639L107.146 117.666L74.5 117.713L41.8571 117.663L25.5327 117.639L9.21127 117.565Z" fill="#263238"/>
<path d="M52.7795 138.072C73.2533 138.072 89.8505 136.071 89.8505 133.603C89.8505 131.134 73.2533 129.133 52.7795 129.133C32.3057 129.133 15.7085 131.134 15.7085 133.603C15.7085 136.071 32.3057 138.072 52.7795 138.072Z" fill="#EBEBEB"/>
<path d="M76.9272 129.657C98.6564 129.657 116.271 127.656 116.271 125.187C116.271 122.719 98.6564 120.718 76.9272 120.718C55.1979 120.718 37.5829 122.719 37.5829 125.187C37.5829 127.656 55.1979 129.657 76.9272 129.657Z" fill="#EBEBEB"/>
<path d="M127.416 76.1135C127.416 76.1135 121.6 75.2965 122.958 68.2725C122.958 68.2725 129.461 69.7317 127.416 76.1135Z" fill="#FFC727"/>
<path opacity="0.1" d="M127.416 76.1135C127.416 76.1135 121.6 75.2965 122.958 68.2725C122.958 68.2725 129.461 69.7317 127.416 76.1135Z" fill="black"/>
<path d="M127.123 74.6453C127.009 74.2904 126.876 73.9417 126.726 73.6004C126.726 73.5531 126.726 73.5087 126.711 73.4672C126.711 73.3696 126.697 73.2719 126.688 73.1712C126.673 72.9611 126.658 72.7509 126.646 72.5408C126.623 72.1204 126.593 71.7031 126.587 71.2828C126.587 71.2781 126.585 71.2735 126.582 71.2702C126.579 71.2669 126.574 71.265 126.569 71.265C126.565 71.265 126.56 71.2669 126.557 71.2702C126.553 71.2735 126.552 71.2781 126.552 71.2828C126.552 71.7031 126.552 72.1234 126.552 72.5437C126.552 72.7549 126.563 72.965 126.587 73.1742V73.3133C126.261 72.6135 125.871 71.9456 125.421 71.3183C125.223 71.038 125.011 70.7682 124.784 70.5102C124.554 70.2438 124.308 69.9922 124.074 69.7288C124.074 69.714 124.033 69.7288 124.05 69.7554C124.467 70.2144 124.841 70.7097 125.169 71.2354C125.347 71.5018 125.513 71.7771 125.672 72.0553L125.619 72.0346L125.412 71.9517L124.935 71.7712L124 71.4219C123.982 71.4219 123.968 71.4485 124 71.4544C124.296 71.5788 124.616 71.709 124.921 71.8422L125.371 72.0346L125.598 72.1293C125.648 72.1528 125.699 72.1706 125.752 72.1826C125.871 72.3928 125.986 72.6059 126.093 72.822C126.364 73.3654 126.601 73.9249 126.803 74.4973L126.848 74.6187C126.694 74.5304 126.535 74.4533 126.371 74.3878L125.779 74.1125C125.371 73.926 124.965 73.7366 124.574 73.5205C124.554 73.5205 124.539 73.5412 124.557 73.5531C124.956 73.7721 125.35 74.003 125.741 74.2191C125.942 74.3286 126.143 74.4352 126.347 74.5328C126.517 74.6345 126.702 74.7084 126.895 74.7519C127.089 75.2848 127.216 75.8395 127.274 76.4036C127.339 77.1968 127.333 77.999 127.351 78.7952C127.351 78.81 127.372 78.7952 127.372 78.7952C127.431 78.073 127.463 77.3419 127.466 76.6196C127.458 75.9474 127.342 75.2809 127.123 74.6453Z" fill="#263238"/>
<path d="M126.226 70.5161C126.17 70.926 126.151 71.3401 126.17 71.7534H126.188C126.211 71.342 126.214 70.9335 126.262 70.525C126.264 70.5013 126.229 70.4924 126.226 70.5161Z" fill="#263238"/>
<path d="M124.562 70.8683C124.303 70.769 124.053 70.6451 123.817 70.4983C123.796 70.4983 123.778 70.519 123.799 70.5309C124.031 70.6876 124.286 70.8093 124.554 70.892C124.554 70.892 124.577 70.8742 124.562 70.8683Z" fill="#263238"/>
<path d="M127.602 87.2637C127.602 86.6214 127.602 85.9791 127.579 85.3338C127.579 83.1997 127.549 81.0655 127.511 78.9284C127.481 77.2333 127.442 75.5382 127.392 73.8431C127.392 73.8431 127.392 73.8283 127.377 73.8224C127.377 73.3606 127.377 72.8959 127.377 72.4341C127.377 72.4341 127.363 72.4164 127.348 72.4164C127.333 72.4164 127.321 72.4164 127.321 72.4341V73.8253C127.321 73.8253 127.321 73.8253 127.321 73.8461C127.235 76.8623 127.161 79.8815 127.144 82.8977C127.144 83.5105 127.144 84.1261 127.144 84.7389C127.122 86.7122 127.114 88.6796 127.12 90.6411C127.12 90.9549 127.12 91.2657 127.12 91.5794C127.12 93.3791 127.138 95.1817 127.138 96.9814C127.138 97.0761 127.247 97.1265 127.36 97.1294C127.472 97.1324 127.629 97.0821 127.629 96.9725C127.629 94.9864 127.629 93.0032 127.629 91.017C127.608 89.7649 127.611 88.504 127.602 87.2637Z" fill="#263238"/>
<path d="M125.172 85.3102C125.172 85.3102 122.375 83.2382 119.717 84.6383C117.059 86.0384 116.644 91.4463 116.644 91.4463C116.644 91.4463 120.546 92.0028 123.003 89.6703C125.371 87.4089 125.172 85.3102 125.172 85.3102Z" fill="#FFC727"/>
<path d="M125.936 85.4375C125.421 85.2346 124.864 85.1624 124.314 85.2273C124.201 85.2059 124.086 85.195 123.97 85.1948L123.577 85.1652C123.304 85.1415 123.032 85.1267 122.76 85.1059C122.209 85.0645 121.656 85.0319 121.105 84.9757C121.084 84.9757 121.082 85.0083 121.105 85.0112C121.653 85.0793 122.194 85.1592 122.742 85.2125C123.038 85.2421 123.304 85.2717 123.586 85.2895L123.79 85.3102C123.707 85.3309 123.624 85.3487 123.541 85.3724C123.102 85.4998 122.678 85.6724 122.274 85.8874C122.052 85.9288 121.836 85.988 121.617 86.0413C121.271 86.1212 120.928 86.21 120.584 86.3018C119.903 86.4794 119.232 86.6807 118.557 86.876C118.536 86.876 118.557 86.9145 118.557 86.9086C119.229 86.7458 119.906 86.5919 120.581 86.432C120.91 86.3551 121.238 86.2781 121.567 86.1952L121.824 86.136C121.072 86.6014 120.4 87.1862 119.835 87.8676C119.288 88.5359 118.823 89.2673 118.45 90.0462C118.45 90.0669 118.471 90.0876 118.483 90.0669C118.941 89.2645 119.503 88.526 120.155 87.8706C120.155 87.9061 120.128 87.9446 120.117 87.9831C120.066 88.1459 120.013 88.3116 119.963 88.4774C119.859 88.806 119.752 89.1345 119.667 89.466C119.667 89.4897 119.693 89.4956 119.702 89.466C119.821 89.1464 119.93 88.8267 120.046 88.504C120.099 88.3472 120.155 88.1903 120.211 88.0304C120.238 87.9505 120.268 87.8676 120.294 87.7848L120.321 87.7108C120.633 87.4064 120.965 87.1236 121.315 86.8642C121.775 86.5259 122.272 86.2399 122.795 86.0117L122.769 86.1568C122.742 86.284 122.712 86.4113 122.686 86.5386C122.633 86.805 122.579 87.0684 122.529 87.3348C122.422 87.8765 122.357 88.4241 122.257 88.9658C122.257 88.9895 122.286 88.9984 122.289 88.9658C122.416 88.4212 122.585 87.8854 122.698 87.3408C122.76 87.0684 122.822 86.7931 122.878 86.5208C122.905 86.3935 122.929 86.2633 122.955 86.136C122.972 86.0658 122.985 85.9947 122.994 85.9229C123.047 85.9022 123.094 85.8785 123.148 85.8608C123.881 85.5451 124.686 85.4346 125.477 85.5411C125.847 85.6104 126.194 85.7698 126.488 86.0052C126.782 86.2406 127.013 86.5448 127.161 86.8908C127.185 86.95 127.283 86.9145 127.268 86.8524C127.171 86.5292 127 86.2331 126.769 85.9875C126.538 85.7418 126.253 85.5535 125.936 85.4375Z" fill="#263238"/>
<path d="M121.653 87.7463C121.573 88.0986 121.493 88.4538 121.416 88.809C121.326 89.1491 121.261 89.4953 121.221 89.845C121.221 89.845 121.238 89.845 121.241 89.845C121.345 89.5036 121.425 89.1555 121.481 88.803L121.685 87.7522C121.691 87.7315 121.656 87.7226 121.653 87.7463Z" fill="#263238"/>
<path d="M118.944 88.6461C118.589 88.8266 118.243 89.0338 117.87 89.1818C117.867 89.1821 117.864 89.1831 117.862 89.1846C117.859 89.1862 117.857 89.1884 117.856 89.1909C117.855 89.1934 117.854 89.1962 117.854 89.1991C117.854 89.202 117.854 89.2049 117.856 89.2075C117.857 89.2101 117.859 89.2123 117.861 89.214C117.864 89.2156 117.866 89.2167 117.869 89.2171C117.872 89.2175 117.875 89.2172 117.878 89.2162C117.88 89.2152 117.883 89.2136 117.885 89.2114C118.25 89.0469 118.607 88.8631 118.953 88.6609C118.953 88.6609 118.953 88.6431 118.944 88.6461Z" fill="#263238"/>
<path d="M125.803 81.5036C125.803 81.5036 122.381 81.7197 120.791 79.4642C119.202 77.2086 119.557 73.9882 119.557 73.9882C119.557 73.9882 123.151 74.4262 124.589 76.0602C126.028 77.6941 125.803 81.5036 125.803 81.5036Z" fill="#FFC727"/>
<path d="M127.407 84.878C127.289 84.511 127.144 84.1499 127.004 83.7917C126.865 83.4335 126.729 83.105 126.578 82.7646C126.272 82.0761 125.931 81.4042 125.554 80.7518C125.311 80.3344 125.054 79.9319 124.787 79.5323C124.787 79.4731 124.77 79.4139 124.761 79.3517C124.752 79.2895 124.728 79.1386 124.713 79.035C124.678 78.8189 124.639 78.6028 124.604 78.3867C124.527 77.9131 124.429 77.4425 124.352 76.9719C124.352 76.9482 124.314 76.9482 124.317 76.9719C124.388 77.4395 124.432 77.9072 124.5 78.3749C124.53 78.6058 124.562 78.8337 124.595 79.0646C124.61 79.1475 124.622 79.2303 124.636 79.3103C124.113 78.5486 123.548 77.8164 122.943 77.1169L122.695 76.8387C122.695 76.812 122.671 76.7854 122.662 76.7587C122.653 76.7321 122.612 76.6285 122.588 76.5634C122.538 76.4272 122.488 76.2911 122.44 76.1549C122.342 75.8885 122.257 75.6162 122.186 75.3409C122.186 75.3202 122.144 75.3409 122.15 75.3409C122.218 75.6369 122.292 75.9003 122.375 76.1786C122.414 76.3118 122.458 76.445 122.505 76.5752L122.529 76.6433C122.091 76.1667 121.641 75.705 121.176 75.2521C121.173 75.2486 121.168 75.2466 121.163 75.2466C121.158 75.2466 121.153 75.2486 121.15 75.2521C121.146 75.2556 121.144 75.2604 121.144 75.2654C121.144 75.2704 121.146 75.2752 121.15 75.2787C122.034 76.2002 122.845 77.19 123.574 78.2387C123.491 78.2121 123.405 78.1914 123.322 78.1736C123.059 78.1233 122.792 78.0848 122.526 78.0523C121.97 77.9812 121.413 77.9102 120.86 77.8243C120.836 77.8243 120.827 77.8539 120.86 77.8569C121.389 77.9635 121.913 78.0819 122.44 78.2032C122.689 78.2595 122.937 78.3068 123.189 78.3571C123.39 78.4016 123.588 78.4589 123.781 78.5288C123.834 78.6087 123.894 78.6857 123.947 78.7656C124.198 79.1297 124.438 79.5027 124.675 79.8786L124.326 79.8105C124.062 79.7602 123.796 79.7128 123.529 79.6684C123.008 79.5826 122.488 79.4908 121.972 79.3724C121.97 79.3712 121.967 79.3707 121.964 79.371C121.961 79.3712 121.958 79.3722 121.956 79.3738C121.953 79.3755 121.951 79.3777 121.95 79.3803C121.948 79.3829 121.948 79.3857 121.948 79.3887C121.948 79.3916 121.948 79.3945 121.95 79.3971C121.951 79.3997 121.953 79.4019 121.956 79.4036C121.958 79.4052 121.961 79.4062 121.964 79.4064C121.967 79.4066 121.97 79.4062 121.972 79.405C122.493 79.5293 123.014 79.6714 123.532 79.8105C123.784 79.8756 124.036 79.9378 124.287 79.994L124.669 80.0769C124.722 80.0769 124.776 80.1006 124.823 80.1035C125.323 80.9116 125.791 81.7434 126.226 82.587C126.423 82.9599 126.607 83.3359 126.777 83.7147C126.96 84.1025 127.117 84.4991 127.286 84.8987C127.309 84.9964 127.437 84.952 127.407 84.878Z" fill="#263238"/>
<path d="M123.905 77.0163C123.84 76.6907 123.772 76.3651 123.701 76.0395C123.701 76.0158 123.663 76.0395 123.666 76.0395C123.731 76.3591 123.793 76.6788 123.852 77.0015C123.9 77.3242 123.964 77.6443 124.044 77.9605C124.021 77.6428 123.975 77.3272 123.905 77.0163Z" fill="#263238"/>
<path d="M121.91 76.9215C121.753 76.8416 121.585 76.7794 121.419 76.7143L121.161 76.6137L121.028 76.5604C120.977 76.5448 120.929 76.5229 120.883 76.4953C120.857 76.4775 120.842 76.5219 120.868 76.5249C120.919 76.54 120.968 76.5608 121.013 76.587L121.144 76.6433L121.392 76.7557C121.557 76.8318 121.726 76.898 121.898 76.9541C121.919 76.96 121.931 76.9304 121.91 76.9215Z" fill="#263238"/>
<path d="M129.304 78.813C129.304 78.813 131.376 74.9472 134.523 74.3463C137.669 73.7455 139.599 76.9896 139.599 76.9896C139.599 76.9896 137.302 79.923 134.413 80.435C131.524 80.9471 129.304 78.813 129.304 78.813Z" fill="#FFC727"/>
<path d="M136.633 76.0721C135.813 75.9606 134.982 75.9705 134.165 76.1017L134.304 76.0247L135.002 75.6666C135.488 75.415 135.976 75.1456 136.482 74.9443C136.485 74.9455 136.488 74.946 136.491 74.9457C136.494 74.9455 136.497 74.9445 136.499 74.9429C136.502 74.9413 136.504 74.9391 136.505 74.9365C136.507 74.9339 136.507 74.931 136.507 74.928C136.507 74.9251 136.507 74.9222 136.505 74.9196C136.504 74.917 136.502 74.9148 136.499 74.9132C136.497 74.9116 136.494 74.9106 136.491 74.9103C136.488 74.9101 136.485 74.9106 136.482 74.9118C135.991 75.1397 135.479 75.3321 134.985 75.56C134.736 75.6725 134.493 75.7909 134.254 75.9211C134.1 76.001 133.928 76.081 133.774 76.1786C133.082 76.3175 132.41 76.5412 131.773 76.8446C131.903 76.6996 132.036 76.5486 132.167 76.4154C132.463 76.0928 132.759 75.7554 133.07 75.4623C133.087 75.4475 133.07 75.4238 133.046 75.4386C132.714 75.7346 132.368 76.0158 132.048 76.3266C131.891 76.4776 131.752 76.6226 131.598 76.7943C131.527 76.8733 131.456 76.9561 131.385 77.043C130.304 77.6233 129.365 78.4357 128.636 79.4218C127.906 80.408 127.403 81.5435 127.164 82.7469C127.164 82.7676 127.191 82.7794 127.197 82.7469C127.641 81.273 128.436 79.929 129.515 78.8308C130.672 77.648 132.13 76.8037 133.733 76.3888C134.683 76.1475 135.666 76.0586 136.645 76.1254C136.66 76.1461 136.66 76.0869 136.633 76.0721Z" fill="#263238"/>
<path opacity="0.1" d="M139.602 76.9897C139.602 76.9897 137.302 79.923 134.413 80.4351C132.208 80.8258 130.394 79.6744 129.657 79.109L129.5 78.8486C129.5 78.8486 130.98 77.5905 133.81 76.8653C136.639 76.1401 139.602 76.9897 139.602 76.9897Z" fill="black"/>
<path d="M134.804 74.7016C134.563 74.842 134.329 74.9962 134.106 75.1634C133.886 75.3291 133.683 75.5155 133.499 75.7198C133.481 75.7376 133.499 75.7613 133.525 75.7435C133.733 75.563 133.943 75.3824 134.162 75.2107C134.372 75.0364 134.593 74.8762 134.825 74.7312C134.843 74.7194 134.825 74.6898 134.804 74.7016Z" fill="#263238"/>
<path d="M136.533 75.3557C136.417 75.406 136.296 75.4474 136.18 75.4948L135.831 75.6398C135.805 75.6398 135.816 75.6931 135.831 75.6813L136.183 75.5392L136.533 75.3912C136.565 75.3823 136.553 75.3468 136.533 75.3557Z" fill="#263238"/>
<path d="M128.89 83.6792C128.89 83.6792 129.444 87.5272 132.33 88.8563C135.216 90.1853 138.729 88.8563 138.729 88.8563C138.729 88.8563 137.347 80.5564 128.89 83.6792Z" fill="#FFC727"/>
<path d="M136.743 86.361C136.476 86.3314 136.21 86.287 135.947 86.2396L135.559 86.1656L135.358 86.1242L135.124 85.9081C134.574 85.4257 133.98 84.9974 133.348 84.6294C133.006 84.4285 132.653 84.2467 132.291 84.0847H132.344L133.294 84.1262C133.928 84.1558 134.561 84.1706 135.195 84.212C135.216 84.212 135.216 84.1765 135.195 84.1765C134.561 84.1321 133.928 84.064 133.294 84.0078L132.371 83.9249L131.897 83.8835H131.776C131.61 83.8213 131.444 83.7651 131.279 83.7118C130.492 83.442 129.645 83.3959 128.834 83.5786C128.109 83.7621 127.383 84.2387 127.197 85.0023C127.197 85.029 127.232 85.0497 127.241 85.0231C127.514 84.3837 128.221 84.0611 128.863 83.9279C129.294 83.845 129.735 83.836 130.169 83.9012C130.197 84.1029 130.246 84.3012 130.314 84.4932C130.394 84.7626 130.474 85.0349 130.556 85.3043C130.719 85.843 130.9 86.3758 131.057 86.9145C131.057 86.9192 131.059 86.9237 131.062 86.9271C131.065 86.9304 131.07 86.9323 131.074 86.9323C131.079 86.9323 131.084 86.9304 131.087 86.9271C131.09 86.9237 131.092 86.9192 131.092 86.9145C130.959 86.3758 130.847 85.8311 130.716 85.2924C130.651 85.029 130.586 84.7655 130.518 84.4991C130.481 84.3147 130.433 84.1327 130.373 83.9545C130.626 83.9983 130.876 84.0576 131.122 84.1321C131.568 84.2631 132.005 84.4223 132.43 84.6087C132.472 84.8839 132.534 85.1533 132.596 85.4227C132.676 85.7631 132.762 86.0975 132.871 86.4291C132.871 86.4498 132.907 86.4291 132.904 86.4291C132.901 86.4291 132.904 86.3876 132.904 86.3669C132.839 86.0531 132.771 85.7423 132.702 85.4286C132.649 85.174 132.602 84.9224 132.546 84.6679C132.904 84.8307 133.256 85.0053 133.596 85.2007C133.596 85.2806 133.623 85.3605 133.635 85.4315C133.656 85.5618 133.679 85.695 133.703 85.8252C133.759 86.1212 133.818 86.4172 133.889 86.7132C134.019 87.2796 134.184 87.8372 134.384 88.3827C134.384 88.3827 134.384 88.3975 134.384 88.4034L134.402 88.4241C134.402 88.4389 134.434 88.4241 134.431 88.4063C134.298 87.838 134.135 87.2727 134.02 86.7014C133.958 86.4054 133.895 86.1331 133.836 85.8459L133.756 85.4167C133.756 85.3783 133.741 85.3339 133.736 85.2895C134.794 85.9144 135.752 86.6958 136.577 87.6071C136.598 87.6308 136.639 87.6071 136.619 87.5746C136.404 87.2825 136.175 87.002 135.932 86.7339C135.787 86.58 135.636 86.4379 135.482 86.2811H135.532C135.665 86.3047 135.802 86.3255 135.938 86.3432C136.204 86.3787 136.471 86.4054 136.74 86.435C136.755 86.3995 136.764 86.3639 136.743 86.361Z" fill="#263238"/>
<path d="M134.715 87.6634L134.698 87.5627C134.698 87.5213 134.668 87.4798 134.662 87.4384C134.603 87.1838 134.552 86.9234 134.505 86.6659C134.505 86.6481 134.476 86.6659 134.476 86.6659C134.493 87.01 134.567 87.349 134.695 87.6693H134.715V87.6634Z" fill="#263238"/>
<path d="M132.3 87.616C132.3 87.616 132.3 87.6012 132.282 87.5983C132.202 87.2608 132.125 86.9204 132.054 86.5771C132.019 86.3995 131.98 86.2189 131.945 86.0384L131.891 85.7424C131.884 85.6557 131.863 85.5707 131.829 85.4908C131.828 85.4876 131.826 85.4849 131.823 85.483C131.82 85.4811 131.816 85.4801 131.813 85.4801C131.81 85.4801 131.806 85.4811 131.803 85.483C131.8 85.4849 131.798 85.4876 131.797 85.4908C131.795 85.6652 131.82 85.8389 131.871 86.0058C131.906 86.1923 131.942 86.3788 131.983 86.5653C132.066 86.9441 132.165 87.3201 132.279 87.693C132.279 87.7137 132.321 87.7108 132.318 87.693L132.3 87.616Z" fill="#263238"/>
<path d="M136.479 85.248C135.953 85.177 135.426 85.1 134.899 85.0349C134.875 85.0349 134.866 85.0675 134.899 85.0704C135.423 85.1474 135.953 85.2125 136.479 85.2836C136.491 85.2954 136.5 85.248 136.479 85.248Z" fill="#263238"/>
<path d="M127.413 74.6838C127.413 74.6838 125.637 66.9404 133.966 63.8058C133.966 63.8058 136.272 74 127.413 74.6838Z" fill="#FFC727"/>
<path d="M129.21 70.2912L129.298 70.2379L129.769 69.9745L130.734 69.4357C131.368 69.0805 131.995 68.7105 132.634 68.3613C132.655 68.3613 132.634 68.3198 132.617 68.3317C131.974 68.6809 131.323 69.0065 130.678 69.3469L129.725 69.8501L129.337 70.0573C129.612 69.5305 129.911 69.0154 130.225 68.5181C130.66 67.8551 131.134 67.2217 131.631 66.603C131.655 66.5764 131.616 66.5409 131.59 66.5645C130.859 67.2774 130.214 68.072 129.666 68.9325C129.667 68.9059 129.667 68.8792 129.666 68.8526C129.666 68.6602 129.68 68.4678 129.683 68.2606C129.683 67.8847 129.683 67.5058 129.683 67.1269C129.683 67.1062 129.648 67.1062 129.648 67.1269C129.63 67.4969 129.586 67.8699 129.565 68.2399C129.565 68.4264 129.547 68.6129 129.541 68.7964C129.541 68.897 129.541 69.0125 129.541 69.122C129.37 69.3943 129.207 69.6725 129.05 69.9508C128.77 70.4549 128.522 70.9759 128.307 71.5107C128.307 71.3183 128.286 71.1259 128.274 70.9187C128.251 70.4954 128.197 70.0721 128.18 69.6489C128.18 69.6441 128.178 69.6396 128.174 69.6363C128.171 69.633 128.167 69.6311 128.162 69.6311C128.157 69.6311 128.153 69.633 128.149 69.6363C128.146 69.6396 128.144 69.6441 128.144 69.6489C128.144 70.0721 128.144 70.4954 128.144 70.9217C128.144 71.1318 128.144 71.3449 128.171 71.5581C128.171 71.635 128.171 71.7149 128.171 71.7919C127.905 72.4833 127.695 73.195 127.543 73.9201C127.405 74.6941 127.306 75.4745 127.247 76.2585C127.337 75.557 127.485 74.864 127.688 74.1865C127.792 73.8195 127.901 73.4554 128.017 73.0973C128.363 72.9345 128.695 72.7302 129.029 72.5437C129.364 72.3573 129.725 72.1649 130.074 71.9725C130.767 71.5936 131.459 71.2058 132.176 70.8684C132.196 70.8684 132.176 70.8299 132.158 70.8388C131.433 71.1673 130.702 71.4781 129.988 71.8363C129.636 72.0139 129.287 72.2063 128.94 72.4017C128.644 72.5645 128.348 72.7273 128.079 72.9137C128.158 72.671 128.244 72.4313 128.336 72.1945C128.594 71.545 128.885 70.9097 129.21 70.2912Z" fill="#263238"/>
<path d="M128.508 68.5211C128.508 68.4974 128.47 68.5003 128.473 68.5211C128.502 68.9621 128.517 69.4091 128.564 69.8442C128.563 69.8473 128.563 69.8507 128.563 69.8541C128.563 69.8575 128.565 69.8607 128.566 69.8635C128.568 69.8663 128.571 69.8686 128.574 69.8702C128.577 69.8718 128.58 69.8726 128.584 69.8726C128.587 69.8726 128.59 69.8718 128.593 69.8702C128.596 69.8686 128.599 69.8663 128.601 69.8635C128.603 69.8607 128.604 69.8575 128.604 69.8541C128.605 69.8507 128.604 69.8473 128.603 69.8442C128.588 69.4031 128.541 68.968 128.508 68.5211Z" fill="#263238"/>
<path d="M132.495 70.001C131.974 70.2082 131.45 70.4095 130.932 70.6256C130.932 70.6256 130.932 70.6552 130.932 70.6493C131.459 70.451 131.977 70.2378 132.501 70.0336C132.504 70.0342 132.507 70.034 132.51 70.0332C132.513 70.0323 132.515 70.0308 132.517 70.0288C132.519 70.0268 132.521 70.0243 132.522 70.0215C132.522 70.0188 132.523 70.0158 132.522 70.013C132.522 70.0102 132.52 70.0075 132.519 70.0052C132.517 70.0029 132.514 70.0011 132.512 70C132.509 69.9988 132.506 69.9983 132.503 69.9985C132.501 69.9986 132.498 69.9995 132.495 70.001Z" fill="#263238"/>
<path d="M133.286 66.4284C132.777 66.6627 132.282 66.9276 131.806 67.2217C131.779 67.2365 131.806 67.275 131.829 67.2602C132.312 66.979 132.803 66.7066 133.309 66.458C133.327 66.4491 133.306 66.4195 133.286 66.4284Z" fill="#263238"/>
<path d="M133.161 91.4285H121.161V104.077H133.161V91.4285Z" fill="#37474F"/>
<path d="M120.948 95.9041H120.336V117.568H120.948V95.9041Z" fill="#263238"/>
<path d="M133.922 95.9041H133.309V117.568H133.922V95.9041Z" fill="#263238"/>
<path d="M127.762 95.9041H127.15V117.568H127.762V95.9041Z" fill="#263238"/>
<path d="M133.614 103.266H120.643V105.018H133.614V103.266Z" fill="#263238"/>
<path d="M84.0845 108.164L85.5645 125.036H42.6445C42.6445 125.036 47.1052 91.3278 47.1052 91.0289C47.1052 90.7299 35.428 80.4084 37.2218 58.4985C39.4418 31.2221 59.1258 19.7402 78.3658 19.7402C97.6058 19.7402 112.438 33.1905 115.94 52.2618L122.964 80.808L113.744 82.0985C113.744 82.0985 113.347 101.43 108.392 106.388C103.437 111.346 84.0845 108.164 84.0845 108.164Z" fill="#FFC727"/>
<g opacity="0.6">
<path d="M84.0845 108.164L85.5645 125.036H42.6445C42.6445 125.036 47.1052 91.3278 47.1052 91.0289C47.1052 90.7299 35.428 80.4084 37.2218 58.4985C39.4418 31.2221 59.1258 19.7402 78.3658 19.7402C97.6058 19.7402 112.438 33.1905 115.94 52.2618L122.964 80.808L113.744 82.0985C113.744 82.0985 113.347 101.43 108.392 106.388C103.437 111.346 84.0845 108.164 84.0845 108.164Z" fill="white"/>
</g>
<path d="M77.46 85.1533C72.0538 85.1563 66.7477 83.696 62.1043 80.9272C57.461 78.1584 53.6537 74.1844 51.0864 69.4268L50.9443 69.1663L51.4653 68.8851L51.6073 69.1456C54.7136 74.9007 59.6515 79.4548 65.6386 82.0864C71.6257 84.718 78.3198 85.2767 84.6602 83.6738C91.0007 82.0709 96.6251 78.3982 100.642 73.2375C104.66 68.0768 106.84 61.7232 106.838 55.1833C106.838 54.7452 106.838 54.2953 106.805 53.8157C106.529 47.4115 104.144 41.2782 100.021 36.3695L99.8317 36.1416L100.288 35.7627L100.477 35.9906C104.683 40.9984 107.116 47.2556 107.397 53.7891C107.418 54.2686 107.43 54.7363 107.43 55.1833C107.432 59.1196 106.659 63.0179 105.153 66.655C103.648 70.2922 101.441 73.597 98.6572 76.3804C95.8737 79.1639 92.569 81.3714 88.9318 82.8767C85.2946 84.382 81.3964 85.1556 77.46 85.1533Z" fill="#FFC727"/>
<path d="M48.452 62.7668L48.3809 62.4708C47.9913 60.9158 47.727 59.332 47.5906 57.7348C47.5196 56.8971 47.4841 56.0357 47.4841 55.1803C47.4843 49.7589 48.955 44.4392 51.7396 39.7876C54.5243 35.1361 58.5185 31.327 63.2968 28.766C68.0751 26.2051 73.4586 24.9882 78.8739 25.2451C84.2891 25.5019 89.5333 27.2228 94.0478 30.2245L94.2965 30.3873L93.9679 30.8787L93.7222 30.7159C89.2965 27.7739 84.1558 26.0873 78.8474 25.8358C73.539 25.5844 68.2618 26.7774 63.5778 29.2878C58.8938 31.7982 54.9784 35.5321 52.2486 40.0917C49.5188 44.6513 48.0767 49.8659 48.0761 55.1803C48.0761 56.018 48.1116 56.8616 48.1826 57.6844C48.3156 59.2516 48.574 60.8057 48.9552 62.3316L49.0262 62.6276L48.452 62.7668Z" fill="#FFC727"/>
<path d="M69.0595 79.7956L68.7813 79.698C63.6592 77.8666 59.233 74.4882 56.1154 70.0306C55.5453 69.2169 55.0244 68.3698 54.5555 67.4939C52.5231 63.7088 51.4594 59.4794 51.4594 55.1832C51.4594 54.4492 51.4919 53.7032 51.5541 52.9632L51.5807 52.6672L52.1727 52.7176L52.149 53.0136C52.0869 53.7358 52.0543 54.4669 52.0543 55.1832C52.0533 59.3814 53.0926 63.5144 55.0794 67.2127C55.5376 68.0683 56.0466 68.8956 56.6038 69.6902C59.6495 74.0475 63.9743 77.3502 68.9796 79.1415L69.2608 79.2392L69.0595 79.7956Z" fill="#FFC727"/>
<path d="M77.46 81.1838H77.164V80.5918H77.46C82.1224 80.595 86.6954 79.3127 90.6764 76.8859C93.8893 74.9202 96.6292 72.2703 98.701 69.1248C99.1771 68.4055 99.6148 67.6615 100.012 66.8959C101.901 63.2815 102.882 59.2614 102.869 55.1832C102.868 52.9347 102.569 50.6962 101.981 48.5262C101.037 45 99.3363 41.7221 96.996 38.921C94.7148 36.1826 91.883 33.9549 88.6845 32.3827C85.486 30.8105 81.9924 29.9289 78.4309 29.7953C78.2829 29.7953 78.1349 29.7953 77.9987 29.7953L77.9691 29.4993V29.7953C77.5902 29.7953 77.2025 29.7953 76.8236 29.7953H76.5276C76.3707 29.7953 76.2316 29.7953 76.0836 29.813C75.8823 29.813 75.687 29.8338 75.4916 29.8515H75.3406C75.1897 29.8515 75.0446 29.8752 74.9114 29.893H74.8463L74.5503 29.9226L74.2543 29.961C74.056 29.9877 73.8843 30.0084 73.7156 30.035L73.5498 30.0617C73.3811 30.0854 73.2331 30.109 73.0822 30.1386C72.7862 30.186 72.5138 30.2422 72.2386 30.3014C71.9159 30.3666 71.5933 30.4406 71.2766 30.5205C69.8454 30.879 68.4488 31.3634 67.103 31.9679C63.7869 33.4569 60.8279 35.6383 58.4247 38.3657C56.0216 41.093 54.23 44.3031 53.1702 47.7802L53.0844 48.0762L52.5161 47.9046L52.6019 47.6234C53.903 43.3297 56.2939 39.4462 59.5416 36.351C62.7893 33.2557 66.7833 31.0543 71.1345 29.961C71.4571 29.8782 71.7857 29.8042 72.1172 29.7361C72.4132 29.6769 72.6885 29.6177 72.9786 29.5703C73.1266 29.5407 73.2746 29.517 73.4462 29.4934L73.612 29.4667C73.8014 29.4371 73.9761 29.4134 74.1507 29.3927L74.4911 29.3483L74.7516 29.3246C74.788 29.3203 74.8247 29.3203 74.8611 29.3246C75.0062 29.3069 75.1571 29.295 75.2903 29.2832H75.4531C75.6485 29.2654 75.8498 29.2536 76.0451 29.2418C76.1961 29.2418 76.3411 29.2418 76.501 29.224H76.797C77.1847 29.224 77.5814 29.224 77.981 29.224H78.0165C78.1674 29.224 78.3125 29.224 78.4664 29.224C82.1099 29.3617 85.6836 30.2643 88.9555 31.8732C92.2274 33.4821 95.1242 35.7613 97.4578 38.5628C100.729 42.4983 102.768 47.3113 103.317 52.3994C103.867 57.4876 102.904 62.6249 100.548 67.1682C100.14 67.952 99.6918 68.7138 99.2042 69.4504C97.0832 72.6682 94.2798 75.3796 90.9931 77.3921C86.9168 79.8769 82.234 81.1889 77.46 81.1838Z" fill="#FFC727"/>
<path d="M56.0414 59.2385L55.7069 58.9957C54.7105 53.3185 55.9713 47.4767 59.2205 42.7157C60.5287 40.8099 62.1267 39.1201 63.9565 37.7074L64.1903 37.5239L64.5514 37.9945L64.3176 38.1751C62.5328 39.552 60.9747 41.2 59.7 43.0591C56.6024 47.6096 55.3642 53.1733 56.2397 58.608L59.7 58.1018C59.5453 57.1366 59.4671 56.1608 59.4661 55.1833C59.4661 53.8846 59.605 52.5896 59.8805 51.3205L59.9457 51.0245L60.5377 51.1488L60.4755 51.4448C59.9744 53.7016 59.9221 56.035 60.3216 58.312L60.0759 58.6583L56.0414 59.2385ZM62.5712 46.1405L62.068 45.8237L62.2249 45.5721C63.3889 43.7303 64.8772 42.1146 66.6175 40.8036L66.8543 40.626L67.2095 41.0966L66.9727 41.2772C65.2909 42.541 63.8535 44.1008 62.731 45.88L62.5712 46.1405ZM68.6362 35.5792L68.2425 35.4282L66.6826 31.8348L66.8336 31.4441C69.3044 30.3382 71.9331 29.6261 74.6243 29.3336C75.5661 29.2323 76.5127 29.1819 77.46 29.1826C77.8152 29.1826 78.1349 29.1826 78.4427 29.2033H78.7387L78.7121 29.7953H78.4161C78.1201 29.7953 77.8093 29.7746 77.4629 29.7746C76.5374 29.7745 75.6126 29.8239 74.6924 29.9226C72.1596 30.1978 69.6829 30.8534 67.3457 31.8673L68.6688 34.928C73.3728 32.894 78.6363 32.553 83.5635 33.963L83.8595 34.0429L83.6937 34.6142L83.3977 34.5313C78.5065 33.1325 73.2783 33.5067 68.6362 35.5881V35.5792Z" fill="#FFC727"/>
<path d="M77.46 77.2559C74.0379 77.2658 70.6614 76.4709 67.6032 74.9353C64.3865 73.325 61.6092 70.9571 59.5105 68.0355C57.5679 65.3481 56.2658 62.2519 55.704 58.9838L55.9526 58.6405L59.7 58.1017C59.5453 57.1366 59.4671 56.1607 59.4661 55.1832C59.4661 53.8845 59.605 52.5895 59.8805 51.3204L59.9457 51.0244L60.5377 51.1487L60.4755 51.4447C59.9744 53.7015 59.9221 56.0349 60.3216 58.3119L60.0759 58.6582L56.3433 59.1999C56.918 62.2686 58.1655 65.1719 59.996 67.701C62.0385 70.546 64.7429 72.8511 67.8755 74.4173C70.6072 75.7785 73.5972 76.543 76.647 76.6599C79.6968 76.7767 82.7366 76.2433 85.5645 75.0951L85.8397 74.9826L86.0617 75.5332L85.7894 75.6427C83.1443 76.7171 80.315 77.2651 77.46 77.2559ZM91.0405 72.588L90.6705 72.1262L90.9013 71.9427C92.1923 70.9074 93.3594 69.7264 94.3793 68.4233C97.3465 64.6437 98.9571 59.9765 98.9525 55.1713C98.9533 52.3492 98.3978 49.5546 97.3179 46.9474C96.2379 44.3401 94.6546 41.9712 92.6585 39.9762C90.6625 37.9813 88.2927 36.3993 85.6849 35.3208C83.077 34.2422 80.2821 33.6883 77.46 33.6906C74.4176 33.6825 71.4088 34.3265 68.6362 35.5791L68.3669 35.7005L68.1241 35.1617L68.3935 35.0404C73.1637 32.9002 78.537 32.5154 83.5635 33.9541C88.1736 35.2735 92.228 38.0598 95.1123 41.8906C97.9966 45.7214 99.5537 50.3879 99.5475 55.1832C99.5533 58.4107 98.8458 61.5997 97.4755 64.522C96.036 67.5951 93.9092 70.2961 91.2595 72.4163L91.0405 72.588ZM62.5712 46.1404L62.068 45.8237L62.2249 45.5721C63.3889 43.7302 64.8772 42.1145 66.6175 40.8035L66.8543 40.6259L67.2095 41.0965L66.9727 41.2771C65.2909 42.5409 63.8535 44.1007 62.731 45.8799L62.5712 46.1404Z" fill="#FFC727"/>
<path d="M77.46 73.189C76.3197 73.1882 75.182 73.0802 74.0619 72.8663C70.4951 72.1793 67.2192 70.4305 64.6637 67.8491C62.1082 65.2677 60.3924 61.9743 59.7414 58.4008C59.3197 56.0551 59.3629 53.6495 59.8687 51.3205L59.9338 51.0245L60.5258 51.1488L60.4637 51.4448C59.9665 53.7024 59.9183 56.0358 60.3216 58.312C60.746 60.6565 61.6532 62.8872 62.9856 64.8625C64.2661 66.7831 65.9158 68.4298 67.8387 69.7068C69.7616 70.9838 71.9193 71.8656 74.1862 72.301C75.2698 72.5016 76.3698 72.6007 77.4718 72.597C81.8529 72.5965 86.0729 70.9449 89.2904 67.9714C92.508 64.998 94.4867 60.9212 94.8322 56.5538C94.8677 56.1038 94.8855 55.6421 94.8855 55.1833C94.8947 52.8246 94.4204 50.489 93.4918 48.3207C92.5632 46.1524 91.2001 44.1975 89.4865 42.5766C88.1749 41.3275 86.677 40.2899 85.0465 39.5012C81.1928 37.6373 76.7878 37.2574 72.672 38.4339C68.5561 39.6104 65.0174 42.261 62.731 45.88L62.5712 46.1316L62.068 45.8238L62.2249 45.5722C63.3889 43.7303 64.8772 42.1146 66.6175 40.8036C69.2627 38.8122 72.405 37.5875 75.7002 37.2638C78.9953 36.9401 82.3159 37.5298 85.2981 38.9684C86.9847 39.7839 88.5345 40.8563 89.892 42.1474C91.6623 43.8222 93.071 45.8418 94.0311 48.0817C94.9912 50.3216 95.4824 52.7344 95.4745 55.1714C95.4745 55.645 95.4568 56.1216 95.4213 56.5863C95.0644 61.1016 93.0178 65.3161 89.69 68.3888C86.3623 71.4614 81.9982 73.166 77.4689 73.1623L77.46 73.189Z" fill="#FFC727"/>
<path d="M77.46 69.1041C75.1656 69.1039 72.9069 68.5363 70.885 67.4518C68.8631 66.3672 67.1408 64.7995 65.8716 62.8881C65.1955 61.8788 64.6569 60.7838 64.2702 59.6321C63.45 57.192 63.3199 54.5727 63.8943 52.0634C64.2178 50.635 64.7684 49.2679 65.5253 48.0141C66.9452 45.6462 69.0377 43.7544 71.5362 42.5795C74.0347 41.4046 76.8263 40.9996 79.5557 41.4163L79.8517 41.4607L79.7629 42.0527L79.4669 42.0083C76.8538 41.6095 74.1812 41.9972 71.7892 43.1221C69.3972 44.2469 67.3939 46.058 66.0344 48.3249C65.3096 49.526 64.781 50.8349 64.4686 52.2025C64.2479 53.1807 64.1377 54.1805 64.14 55.1832C64.1381 56.6327 64.3741 58.0726 64.8386 59.4456C65.2073 60.5491 65.722 61.5984 66.3689 62.5655C68.2753 65.4357 71.2198 67.4554 74.5839 68.2006C77.948 68.9457 81.47 68.3582 84.4101 66.5615C85.7712 65.7339 86.974 64.6704 87.9621 63.4209C89.805 61.0722 90.7983 58.1686 90.78 55.1832C90.7734 52.6471 90.0465 50.165 88.684 48.0259C87.3215 45.8869 85.3795 44.1788 83.084 43.1005L82.8146 42.9762L83.0662 42.4404L83.3326 42.5647C85.7309 43.6898 87.76 45.4733 89.1834 47.7074C90.6067 49.9415 91.3658 52.5342 91.372 55.1832C91.3859 58.3035 90.3425 61.3365 88.412 63.7879C87.1101 65.4484 85.4475 66.791 83.55 67.7141C81.6526 68.6372 79.57 69.1166 77.46 69.1159V69.1041Z" fill="#FFC727"/>
<path d="M77.46 65.3094C75.0893 65.3088 72.7941 64.476 70.9746 62.9562L70.7467 62.7667L71.1256 62.3138L71.3535 62.5033C73.0677 63.9322 75.2283 64.7156 77.46 64.7174C79.196 64.7152 80.8988 64.2404 82.3854 63.3439L82.64 63.19L82.936 63.6991L82.6844 63.8501C81.107 64.8001 79.3014 65.3044 77.46 65.3094Z" fill="#FFC727"/>
<path d="M86.8343 59.0282L86.2808 58.8181L86.3844 58.5428C86.7895 57.4691 86.9961 56.3308 86.9942 55.1832C86.9942 52.6546 85.9897 50.2295 84.2017 48.4415C82.4137 46.6535 79.9886 45.649 77.46 45.649C74.9314 45.649 72.5063 46.6535 70.7183 48.4415C68.9303 50.2295 67.9258 52.6546 67.9258 55.1832C67.9239 56.2283 68.0949 57.2665 68.432 58.2557L68.5267 58.5339L67.9643 58.7263L67.8696 58.4303C67.4169 57.094 67.248 55.6778 67.3738 54.2725C67.4996 52.8672 67.9173 51.5036 68.6001 50.2688C69.2829 49.0341 70.2159 47.9555 71.3393 47.1019C72.4628 46.2483 73.752 45.6385 75.1246 45.3116C75.8902 45.1331 76.6738 45.0428 77.46 45.0422C79.696 45.0424 81.8692 45.7823 83.6408 47.1465C85.4124 48.5107 86.6831 50.4226 87.2546 52.5843C87.7864 54.6235 87.6737 56.7774 86.932 58.75L86.8343 59.0282Z" fill="#FFC727"/>
<path d="M74.3154 41.6087L73.7475 41.776L74.9892 45.9895L75.5571 45.8221L74.3154 41.6087Z" fill="#FFC727"/>
<path d="M89.6607 41.9468L86.5504 45.3757L86.9889 45.7735L90.0992 42.3445L89.6607 41.9468Z" fill="#FFC727"/>
<path d="M88.0952 63.1853L87.7578 63.6718L91.6083 66.3419L91.9456 65.8554L88.0952 63.1853Z" fill="#FFC727"/>
<path d="M74.9866 68.2554L73.7565 72.7859L74.3278 72.941L75.5579 68.4105L74.9866 68.2554Z" fill="#FFC727"/>
<path d="M84.2184 71.2235L83.6744 71.4569L85.5159 75.7494L86.06 75.516L84.2184 71.2235Z" fill="#FFC727"/>
<path d="M60.2855 58.0063L55.6648 58.6886L55.7512 59.2742L60.372 58.5919L60.2855 58.0063Z" fill="#FFC727"/>
<path d="M67.1999 69.2189L64.1279 72.5986L64.5659 72.9968L67.638 69.6171L67.1999 69.2189Z" fill="#FFC727"/>
<path d="M67.1068 31.3205L66.5638 31.5563L68.3592 35.6914L68.9022 35.4556L67.1068 31.3205Z" fill="#FFC727"/>
<path d="M66.1941 62.3234L62.3132 64.9332L62.6435 65.4245L66.5244 62.8147L66.1941 62.3234Z" fill="#FFC727"/>
<path d="M90.8393 55.9157L90.7895 56.5056L95.3818 56.8937L95.4317 56.3038L90.8393 55.9157Z" fill="#FFC727"/>
<path d="M79.2909 64.5255L78.7166 64.6692L79.7837 68.9333L80.358 68.7896L79.2909 64.5255Z" fill="#FFC727"/>
<path d="M56.3142 40.1309L55.9568 40.6028L59.5221 43.3032L59.8796 42.8312L56.3142 40.1309Z" fill="#FFC727"/>
<path d="M63.9377 51.7865L63.8305 52.3687L67.9699 53.1314L68.0772 52.5492L63.9377 51.7865Z" fill="#FFC727"/>
<path d="M90.9345 76.7341L90.4262 77.0376L92.763 80.9514L93.2713 80.648L90.9345 76.7341Z" fill="#FFC727"/>
<path d="M100.141 66.6312L99.876 67.1606L103.956 69.2009L104.22 68.6714L100.141 66.6312Z" fill="#FFC727"/>
<path d="M102.458 48.0716L98.1763 49.5116L98.365 50.0727L102.646 48.6327L102.458 48.0716Z" fill="#FFC727"/>
<path d="M95.6785 66.6281L95.3376 67.1121L99.0255 69.7098L99.3665 69.2258L95.6785 66.6281Z" fill="#FFC727"/>
<path d="M68.6912 79.0443L67.2557 83.3771L67.8177 83.5633L69.2531 79.2305L68.6912 79.0443Z" fill="#FFC727"/>
<path d="M107.376 53.4765L102.935 53.8619L102.986 54.4517L107.427 54.0663L107.376 53.4765Z" fill="#FFC727"/>
<path d="M52.1123 57.0352L47.5695 57.447L47.623 58.0366L52.1657 57.6248L52.1123 57.0352Z" fill="#FFC727"/>
<path d="M102.175 38.2087L98.2816 40.5908L98.5905 41.0958L102.484 38.7137L102.175 38.2087Z" fill="#FFC727"/>
<path d="M87.3834 31.1629L85.7143 35.3582L86.2649 35.5772L87.9339 31.3819L87.3834 31.1629Z" fill="#FFC727"/>
<path d="M77.756 78.8188C75.5196 78.8111 73.2938 78.5126 71.1345 77.9308C60.5081 75.1247 54.6857 65.4988 53.7711 57.7229C53.4899 55.3549 53.851 52.463 54.0049 51.2286C54.0405 50.9652 54.0641 50.755 54.0641 50.6988C53.9813 50.5952 53.0785 50.3554 52.4184 50.1778C51.1515 49.8434 50.6424 49.6835 50.5743 49.4704C50.2487 48.2479 53.4129 36.183 65.3743 30.3666C70.0966 28.0455 75.3725 27.0871 80.6094 27.599C86.2334 28.191 91.6117 30.559 96.1435 34.4958C96.1976 34.5398 96.2603 34.572 96.3276 34.5903C96.3949 34.6087 96.4653 34.6128 96.5342 34.6023C98.3605 34.4721 103.114 28.9783 103.162 28.931L103.233 28.8451L103.401 28.9902L103.33 29.076C103.132 29.3039 98.4671 34.7 96.552 34.8243C96.4533 34.8361 96.3532 34.828 96.2576 34.8006C96.162 34.7731 96.0729 34.7269 95.9955 34.6645C91.5052 30.7632 86.1772 28.3982 80.5946 27.8239C75.2459 27.2928 69.8576 28.3159 65.0757 30.7703C60.2939 33.2248 56.3215 37.0065 53.6349 41.6619C51.2965 45.652 50.6424 48.8695 50.7904 49.4171C50.8762 49.5414 51.8382 49.799 52.4746 49.9677C53.9013 50.3465 54.2861 50.4827 54.2861 50.7017C54.2861 50.7728 54.2654 50.9563 54.2269 51.2612C54.073 52.4866 53.7149 55.3519 53.9901 57.6992C54.8959 65.3952 60.6649 74.9382 71.1937 77.7206C75.321 78.86 79.6772 78.8804 83.8151 77.7798C86.9261 76.9333 88.9359 75.6634 89.3947 75.2846C89.6433 75.0774 89.1165 74.2959 88.6932 73.6684C88.2699 73.0409 87.8525 72.4282 87.9384 72.073C87.9496 72.024 87.9713 71.978 88.002 71.9381C88.0326 71.8983 88.0715 71.8655 88.116 71.8421C91.5318 69.9477 94.2402 66.5141 95.7439 62.1895C97.1854 58.0455 97.3512 53.4309 96.1938 49.5474C93.4706 40.398 84.7623 34.9546 74.5177 36.0054C64.8977 36.991 59.5786 46.5045 59.5786 47.4457C59.5964 47.5789 60.0877 47.9105 62.3314 48.7393L62.7221 48.8843C62.8576 48.7086 62.9822 48.5247 63.0951 48.3337C64.0038 46.9041 66.4221 43.1064 71.1167 40.9337C75.4176 38.9476 79.7806 39.2199 81.1629 39.809C81.3879 39.9037 81.5152 40.0073 81.5537 40.1197C81.6454 40.3861 81.5122 41.0077 81.3583 41.7152C81.1718 42.5854 80.9143 43.7872 81.231 43.9322C81.379 44.0092 81.5477 44.0891 81.7342 44.1809C83.6316 45.0926 87.5802 46.9929 89.0306 52.0959C90.5905 57.5897 87.2783 62.4766 86.2009 62.8289C85.1826 63.1693 82.4653 60.2093 82.1605 59.8689L82.0865 59.786L82.2493 59.635L82.3233 59.7179C83.1284 60.6059 85.378 62.8614 86.1328 62.6157C86.9438 62.3493 90.407 57.7584 88.8175 52.1551C87.3937 47.1468 83.6493 45.3471 81.6395 44.3762C81.4501 44.2874 81.2784 44.2046 81.1304 44.1276C80.6597 43.8908 80.8936 42.8104 81.1304 41.6678C81.2636 41.0433 81.4057 40.398 81.3317 40.1878C81.3317 40.1612 81.2547 40.0931 81.0653 40.0102C79.7569 39.4538 75.385 39.1992 71.1996 41.1321C66.5613 43.2722 64.1696 47.0314 63.2697 48.4433C62.8968 49.0353 62.8109 49.1685 62.6777 49.1004C62.6333 49.0767 62.4676 49.0146 62.2545 48.9376C60.1144 48.1473 59.3566 47.7536 59.3566 47.4369C59.3566 46.4778 64.7468 36.7809 74.497 35.7774C84.857 34.7148 93.6541 40.2174 96.401 49.4763C97.5702 53.4013 97.4045 58.0603 95.9481 62.2546C94.4237 66.6354 91.6798 70.1075 88.2196 72.0226C88.2019 72.0313 88.1864 72.0437 88.1741 72.0591C88.1618 72.0744 88.1531 72.0923 88.1485 72.1114C88.0864 72.3719 88.5037 72.9994 88.8708 73.5322C89.4184 74.3433 89.9364 75.107 89.5279 75.4444C89.4835 75.4977 85.0583 78.8188 77.756 78.8188Z" fill="#263238"/>
<path d="M75.7994 57.3559C75.7917 56.8389 75.8842 56.3252 76.0717 55.8433C76.3107 55.3385 76.7105 54.9272 77.2084 54.6741C77.3771 54.5735 77.5902 54.4551 77.8418 54.3249C78.1008 54.1871 78.3483 54.0287 78.5818 53.8513C78.8188 53.6707 79.0247 53.4527 79.1916 53.206C79.3592 52.9548 79.446 52.6584 79.4402 52.3565C79.4445 52.1373 79.3968 51.9202 79.3011 51.723C79.215 51.5451 79.0931 51.3869 78.9429 51.2583C78.7896 51.1244 78.6102 51.0237 78.4161 50.9623C78.2198 50.9001 78.0152 50.8682 77.8093 50.8676C77.573 50.8647 77.3385 50.909 77.1196 50.9978C76.9203 51.0809 76.7332 51.1904 76.5631 51.3234C76.3969 51.4541 76.2469 51.6042 76.1161 51.7704C75.9952 51.9203 75.8835 52.0775 75.7817 52.241L74.2869 51.2109C74.4298 50.8652 74.6299 50.546 74.8789 50.2667C75.123 49.9932 75.4075 49.7586 75.7225 49.5711C76.0408 49.3803 76.3846 49.2357 76.7437 49.1419C77.1136 49.0442 77.4947 48.9955 77.8773 48.9969C78.3135 48.9964 78.7474 49.0602 79.1649 49.1863C79.5816 49.3051 79.9702 49.5064 80.3075 49.7783C80.6568 50.0651 80.9379 50.4261 81.1304 50.835C81.3545 51.3154 81.4639 51.8413 81.4501 52.3713C81.4549 52.6995 81.411 53.0267 81.3198 53.3421C81.2371 53.6145 81.1123 53.8721 80.9498 54.1058C80.7885 54.3353 80.5985 54.5432 80.3845 54.7245C80.1505 54.9191 79.9033 55.0971 79.6445 55.2573C79.4165 55.3934 79.1886 55.5237 78.9577 55.6509C78.7368 55.7727 78.5269 55.9133 78.3302 56.0713C78.1463 56.2205 77.99 56.4008 77.8685 56.6041C77.7421 56.8265 77.6796 57.0795 77.6879 57.3352L75.7994 57.3559ZM75.832 61.3578V58.9898H77.7382V61.3578H75.832Z" fill="#37474F"/>
<path d="M59.6349 133.632C59.0103 133.833 41.1852 133.603 40.5133 133.162C40.2528 132.999 40.1373 130.4 40.0841 127.256V127.156C40.0841 126.507 40.0633 125.841 40.0604 125.164C40.0604 125.072 40.0604 124.98 40.0604 124.885C40.0367 120.348 40.1077 115.638 40.1077 115.638L52.0336 115.757L51.6695 124.912V125.276L51.5955 127.17V127.366C51.5955 127.366 58.3798 130.506 59.0695 131.069C59.7592 131.631 60.2594 133.434 59.6349 133.632Z" fill="#D3766A"/>
<path d="M54.2802 128.591C54.2329 128.591 54.2092 128.565 54.2062 128.55L54.2802 128.591Z" fill="#FFC727"/>
<path d="M59.6349 133.632C59.0103 133.833 41.1852 133.602 40.5103 133.161C40.2824 133.016 40.164 130.947 40.1018 128.28C43.3578 128.961 56.0266 131.522 56.3818 130.441C56.518 130.015 55.4346 129.278 54.7509 128.864C56.6216 129.752 58.6936 130.776 59.0606 131.075C59.7326 131.634 60.2624 133.431 59.6349 133.632Z" fill="#263238"/>
<path opacity="0.1" d="M48.452 133.602C44.4412 133.508 40.8241 133.354 40.5251 133.161C40.2972 133.016 40.1788 130.947 40.1166 128.28L42.014 128.668L48.452 133.602Z" fill="black"/>
<path d="M36.4462 64.2911C36.4462 64.2911 39.1221 94.4239 39.572 96.712C39.6726 97.2359 39.7348 100.081 39.7762 103.742C39.868 111.734 39.8147 126.126 39.8147 126.126H52.3769C52.3769 126.126 52.004 101.176 51.4505 96.5818C50.8969 91.9879 47.3361 64.2911 47.3361 64.2911H36.4462Z" fill="#455A64"/>
<path d="M51.7997 123.935C49.8373 123.894 50.4026 123.879 48.4401 123.861C47.4811 123.861 41.1763 123.796 40.2794 123.944C40.2739 123.944 40.2686 123.946 40.2648 123.95C40.2609 123.954 40.2587 123.959 40.2587 123.965C40.2587 123.97 40.2609 123.976 40.2648 123.979C40.2686 123.983 40.2739 123.986 40.2794 123.986C41.1674 124.134 47.4811 124.077 48.4401 124.068C50.4026 124.051 49.8373 124.033 51.7997 123.994C51.8076 123.994 51.8151 123.991 51.8207 123.986C51.8262 123.98 51.8293 123.973 51.8293 123.965C51.8293 123.957 51.8262 123.949 51.8207 123.944C51.8151 123.938 51.8076 123.935 51.7997 123.935Z" fill="#263238"/>
<path d="M42.1886 109.674C42.1728 107.851 42.159 106.028 42.1472 104.207C42.1472 102.431 42.1472 100.673 42.0525 98.9114C41.8838 95.3387 41.1645 91.8281 40.6435 88.2998C40.1226 84.7715 39.6993 81.2224 39.3086 77.6734C38.8734 73.704 38.4886 69.7051 38.092 65.712C38.092 65.6824 38.0476 65.6854 38.0506 65.712C38.6426 72.816 39.3026 79.92 40.2883 87.0063C40.533 88.7645 40.8004 90.5198 41.0905 92.2721C41.3865 94.0481 41.6825 95.8241 41.8157 97.6001C41.9489 99.3761 41.9755 101.117 41.9933 102.878L42.0466 108.342C42.085 112.385 42.1265 118.613 42.165 122.659C42.165 122.736 42.2863 122.733 42.2863 122.659C42.236 119.072 42.2153 113.282 42.1886 109.674Z" fill="#263238"/>
<path d="M33.797 64.2911C33.797 64.2911 39.1221 94.4239 39.572 96.712C39.6726 97.2359 39.7348 100.081 39.7762 103.742L45.7554 64.2911H33.797Z" fill="#263238"/>
<path d="M45.045 134.695C44.4057 134.852 26.6427 133.357 26.0034 132.871C25.7577 132.691 25.8228 130.089 26.0034 126.951C26.0034 126.919 26.0034 126.886 26.0034 126.854C26.0359 126.205 26.0744 125.539 26.1218 124.865C26.1218 124.773 26.1218 124.678 26.1395 124.586C26.4355 120.058 26.841 115.366 26.841 115.366L38.7225 116.328L37.7161 125.439L37.6776 125.8L37.4704 127.685L37.4497 127.881C37.4497 127.881 43.9942 131.492 44.6425 132.102C45.2907 132.712 45.6814 134.541 45.045 134.695Z" fill="#D3766A"/>
<path d="M45.0421 134.695C44.4057 134.852 26.6427 133.357 26.0034 132.871C25.7932 132.718 25.808 130.799 25.9264 128.283C28.6762 128.988 41.937 132.321 42.3426 131.226C42.4284 130.995 42.1472 130.651 41.7506 130.314C43.124 131.11 44.3642 131.853 44.6277 132.09C45.2848 132.709 45.6814 134.538 45.0421 134.695Z" fill="#263238"/>
<path d="M37.9825 126.803L25.4291 126.271C25.4291 126.271 28.8568 98.7248 28.916 97.0317C29.0107 94.5157 30.2184 84.1261 31.2337 75.7197C31.2337 75.7197 29.3097 71.1672 32.9061 64.2882H47.3331C47.3331 64.2882 46.3652 70.8328 44.7105 74.9856C43.5995 75.374 42.5265 75.8634 41.5049 76.4479C41.5049 76.4479 40.0693 95.2024 40.0249 97.5408C39.9124 102.158 37.9825 126.803 37.9825 126.803Z" fill="#455A64"/>
<path d="M37.6509 124.503C35.6914 124.379 36.2568 124.388 34.2973 124.284C33.3382 124.234 27.0423 123.914 26.1395 124.024C26.1188 124.024 26.1188 124.059 26.1395 124.062C27.0275 124.249 33.3323 124.462 34.2913 124.495C36.2509 124.557 35.6885 124.518 37.6509 124.56C37.6569 124.558 37.662 124.554 37.6657 124.549C37.6693 124.544 37.6713 124.538 37.6713 124.532C37.6713 124.525 37.6693 124.519 37.6657 124.514C37.662 124.509 37.6569 124.505 37.6509 124.503Z" fill="#263238"/>
<path d="M33.8059 65.2473C33.8296 65.1999 33.7585 65.1585 33.7319 65.2059C32.153 68.1105 31.6968 71.4943 32.4502 74.7134C32.6574 75.6014 33.0156 76.4627 33.0422 77.3774C33.0188 78.3525 32.9198 79.3243 32.7462 80.2841C32.5005 82.2288 32.2667 84.1735 32.024 86.1212C31.5464 89.9929 31.0719 93.8656 30.6002 97.7392C30.1286 101.613 29.657 105.488 29.1854 109.363C28.7206 113.211 28.247 117.077 27.8119 120.94C27.7557 121.431 27.6994 121.922 27.6461 122.42C27.6461 122.452 27.6935 122.467 27.6994 122.42C28.2105 118.574 28.7039 114.726 29.1794 110.876C29.655 107.026 30.1414 103.178 30.6387 99.3317C31.1202 95.4778 31.6007 91.6248 32.0802 87.7729L32.8202 81.992C32.9386 81.03 33.057 80.0651 33.1725 79.1031C33.322 78.2382 33.322 77.3542 33.1725 76.4894C32.983 75.6399 32.6781 74.8288 32.5242 73.9704C32.3744 73.1294 32.304 72.2761 32.3141 71.4219C32.3317 69.7328 32.6484 68.0602 33.2494 66.4816C33.4211 66.0643 33.6046 65.6528 33.8059 65.2473Z" fill="#263238"/>
<path d="M45.2611 74.6956C43.9616 75.1674 42.7057 75.7517 41.5078 76.442C41.4605 76.4686 41.4901 76.5426 41.5404 76.519C42.8073 75.9773 44.0978 75.4563 45.3292 74.8466C45.3483 74.8369 45.3629 74.8203 45.37 74.8002C45.3771 74.7801 45.3762 74.758 45.3674 74.7385C45.3586 74.719 45.3427 74.7037 45.3229 74.6957C45.3031 74.6877 45.281 74.6877 45.2611 74.6956Z" fill="#263238"/>
<path d="M45.6637 66.0079C45.6637 65.9665 45.5837 65.9547 45.5837 66.0079C45.5846 67.4196 45.5135 68.8304 45.3706 70.2348C45.3144 70.886 44.7786 74.4883 43.6597 74.2249C43.4703 74.1805 43.3637 73.994 43.343 73.7099C43.3479 73.337 43.3986 72.9662 43.494 72.6058C43.6183 71.851 43.7189 71.0962 43.79 70.3325C43.9217 68.9149 43.9069 67.4876 43.7456 66.0731C43.7433 66.065 43.7384 66.058 43.7318 66.0529C43.7251 66.0479 43.717 66.0452 43.7086 66.0452C43.7002 66.0452 43.6921 66.0479 43.6854 66.0529C43.6787 66.058 43.6739 66.065 43.6716 66.0731C43.7053 68.0384 43.5905 70.0035 43.3282 71.9516C43.1861 72.8899 42.7155 74.2989 43.6953 74.4439C44.675 74.589 45.3381 72.2269 45.4713 71.5816C45.7764 69.7399 45.8411 67.8663 45.6637 66.0079Z" fill="#263238"/>
<path d="M43.6893 74.3226C43.5878 74.5652 43.5027 74.8144 43.4348 75.0685C43.3629 75.2648 43.3268 75.4723 43.3282 75.6813C43.3307 75.6892 43.3353 75.6963 43.3414 75.7019C43.3475 75.7074 43.355 75.7113 43.3631 75.7131C43.3712 75.7149 43.3796 75.7146 43.3875 75.7121C43.3954 75.7096 43.4025 75.7051 43.4081 75.699C43.5252 75.516 43.614 75.3165 43.6716 75.107C43.7574 74.8761 43.8462 74.6482 43.9261 74.4144C43.9357 74.3836 43.9332 74.3503 43.9192 74.3213C43.9052 74.2923 43.8806 74.2696 43.8506 74.258C43.8205 74.2463 43.7871 74.2465 43.7572 74.2585C43.7273 74.2705 43.703 74.2934 43.6893 74.3226Z" fill="#263238"/>
<path d="M48.3839 48.7837C48.3859 48.8147 48.3765 48.8454 48.3574 48.8699C48.3383 48.8945 48.3109 48.9112 48.2803 48.9169L47.7682 48.9495C47.3094 47.7655 46.8122 46.8005 46.9424 47.1735C47.1376 47.7563 47.2463 48.3647 47.265 48.9791L46.2498 49.0323C45.8502 46.9219 45.3381 45.359 45.3618 45.8415C45.492 47.7891 45.3618 48.4137 45.2404 49.0827C42.7954 49.1981 39.5868 49.3136 37.2662 49.3461C36.9968 48.1828 36.763 46.9189 36.7215 47.0077C36.4297 47.7559 36.2908 48.5551 36.313 49.3579C35.573 49.3579 34.984 49.358 34.6229 49.3313C34.6229 49.3313 34.4512 48.3515 34.4246 48.0289C34.3583 47.2019 34.4467 46.3698 34.685 45.5751C34.9603 44.7795 35.3195 44.0154 35.7566 43.2959V43.2781C36.0221 42.7971 36.2297 42.2864 36.3752 41.7567C36.4725 41.3743 36.5359 40.984 36.5646 40.5904C36.6742 39.1519 37.4822 37.9057 38.835 37.5239C41.3894 35.1144 43.9498 36.1238 44.7224 37.9708C44.7964 38.1484 44.8704 38.3556 44.9414 38.5806C45.2049 39.4123 45.4387 40.4927 45.6548 41.3275C45.7325 41.6552 45.8313 41.9775 45.9508 42.2924C46.6346 43.808 48.1086 44.6486 48.3839 48.7837Z" fill="#263238"/>
<path d="M38.2696 37.9027C37.8406 38.1004 37.4704 38.4063 37.1953 38.7903C36.9203 39.1743 36.7499 39.6233 36.7008 40.0931C36.6607 40.6981 36.5413 41.2952 36.3456 41.8691C36.0864 42.4433 35.7421 42.9752 35.3244 43.4468C34.679 44.1658 34.2735 45.0679 34.1641 46.0279C34.0344 47.122 34.1352 48.2311 34.4601 49.2839C34.1881 48.1713 34.1478 47.0147 34.3417 45.8858C34.5341 44.7462 35.1794 44.0269 35.8394 43.1597C36.3655 42.4851 36.7008 41.6816 36.8103 40.8331C36.8255 40.3071 36.9152 39.7859 37.0767 39.285C37.3526 38.7428 37.7832 38.2947 38.314 37.9974C38.3195 37.9886 38.3228 37.9785 38.3234 37.9682C38.3241 37.9578 38.3221 37.9474 38.3177 37.9379C38.3132 37.9285 38.3065 37.9203 38.2981 37.9142C38.2897 37.908 38.2799 37.9041 38.2696 37.9027Z" fill="#263238"/>
<path d="M47.4752 43.9027C46.8506 43.0887 46.1965 42.3931 45.8294 41.3808C45.495 40.4602 45.3026 39.4834 44.9622 38.5629C44.9622 38.5481 44.9355 38.5629 44.9414 38.5629C45.4654 40.1968 45.569 41.8485 46.6257 43.2219C47.2343 43.9306 47.7477 44.7157 48.153 45.5573C48.5352 46.4979 48.7361 47.5022 48.745 48.5173C48.7436 48.5213 48.7432 48.5256 48.7438 48.5298C48.7444 48.5341 48.746 48.5381 48.7485 48.5415C48.751 48.545 48.7542 48.5478 48.758 48.5498C48.7618 48.5517 48.7659 48.5527 48.7702 48.5527C48.7745 48.5527 48.7786 48.5517 48.7824 48.5498C48.7862 48.5478 48.7895 48.545 48.7919 48.5415C48.7944 48.5381 48.796 48.5341 48.7966 48.5298C48.7972 48.5256 48.7968 48.5213 48.7954 48.5173C48.9491 46.868 48.4779 45.2211 47.4752 43.9027Z" fill="#263238"/>
<path d="M44.2754 49.0443C48.9197 53.6589 54.7982 63.4002 53.7474 65.3982C52.5634 67.6212 45.8768 61.0589 46.0751 60.7303C46.2409 60.4521 43.8314 54.5558 42.0791 50.2431C40.3268 45.9303 43.124 47.9047 44.2754 49.0443Z" fill="#D3766A"/>
<path d="M44.2754 49.0443C48.9197 53.6589 54.7982 63.4002 53.7474 65.3982C52.5634 67.6212 45.8768 61.0589 46.0751 60.7303C46.2409 60.4521 43.8314 54.5558 42.0791 50.2431C40.3268 45.9303 43.124 47.9047 44.2754 49.0443Z" fill="#FFC727"/>
<path d="M50.9443 65.12C48.671 63.7466 45.9389 60.9494 46.0662 60.7392C46.229 60.461 43.8225 54.5647 42.0702 50.2519C41.8985 49.8287 41.7742 49.4646 41.6795 49.1567L50.9443 65.12Z" fill="#263238"/>
<path d="M31.2426 66.7035C31.7724 66.9285 47.5492 65.4278 47.9518 65.2502L45.8146 58.3119C45.8146 58.3119 47.2946 56.3702 46.3918 54.1679C45.8531 52.833 42.4639 48.6505 42.159 48.4078C40.9395 47.428 39.72 47.3303 38.607 47.8158C38.1186 48.02 37.5474 48.2479 37.204 48.7334C33.5662 53.8719 31.2426 66.7035 31.2426 66.7035Z" fill="#FFC727"/>
<path d="M44.1097 50.5479C44.4678 51.0481 44.8556 51.5306 45.2256 52.0279C45.0657 51.6727 44.9059 51.3145 44.7313 50.9653C44.9984 51.383 45.2234 51.8262 45.4032 52.2884C45.6813 52.6655 45.9335 53.0611 46.158 53.4724C46.4358 53.9568 46.628 54.4855 46.7263 55.0353C46.8061 55.591 46.7709 56.1572 46.6227 56.6988C46.4488 57.321 46.2169 57.9255 45.9301 58.5044C45.8945 58.5843 45.788 58.5221 45.8146 58.4452C46.2024 57.421 46.6316 56.3436 46.4984 55.2247C46.3652 54.1058 45.7702 53.1527 45.1901 52.2203C44.8513 51.6563 44.4755 51.1155 44.0653 50.6012C44.0593 50.5509 44.0949 50.5272 44.1097 50.5479Z" fill="#263238"/>
<path d="M39.1724 48.3486C39.2582 48.6268 40.7116 50.3614 41.9933 50.2223C42.4077 50.1749 42.2537 47.8898 42.2537 47.8898L42.2804 47.7181L42.6593 45.3205L39.7703 43.7132L39.3529 43.5031C39.3529 43.5031 39.2937 44.1661 39.2257 44.9831V45.1014C39.2257 45.1488 39.2257 45.1903 39.2109 45.2347C39.2109 45.359 39.1901 45.4833 39.1813 45.6106C39.1724 45.7379 39.1665 45.8 39.1635 45.9066L39.1457 46.2026C39.1071 46.9177 39.116 47.6346 39.1724 48.3486Z" fill="#D3766A"/>
<path d="M39.2257 44.9919C39.5071 45.6404 39.926 46.2201 40.4534 46.6908C40.9808 47.1615 41.6042 47.512 42.2804 47.7181L42.6593 45.3205L39.7703 43.7132L39.353 43.5031C39.353 43.5031 39.2938 44.1661 39.2257 44.9919Z" fill="#263238"/>
<path d="M45.788 41.1055C46.7559 45.2495 44.379 46.3032 43.4822 46.5104C42.6711 46.6999 39.8798 47.2386 38.4886 43.21C37.0974 39.1815 38.7225 37.4203 40.5606 36.8904C42.3988 36.3606 44.8319 36.9556 45.788 41.1055Z" fill="#D3766A"/>
<path d="M45.0687 40.3832C44.9681 40.3832 44.8763 40.3832 44.7727 40.3684C44.6689 40.3775 44.565 40.3526 44.4767 40.2974C44.4529 40.2738 44.4374 40.2432 44.4326 40.2101C44.4278 40.177 44.4339 40.1432 44.45 40.1138C44.4905 40.0605 44.5445 40.0189 44.6064 39.9934C44.6684 39.9679 44.736 39.9594 44.8023 39.9688C44.9391 39.9668 45.0719 40.0153 45.1752 40.105C45.1977 40.1272 45.2132 40.1555 45.2198 40.1863C45.2265 40.2172 45.224 40.2493 45.2127 40.2788C45.2014 40.3083 45.1818 40.3339 45.1562 40.3524C45.1306 40.3709 45.1002 40.3816 45.0687 40.3832Z" fill="#263238"/>
<path d="M42.3337 41.517C42.4343 41.517 42.529 41.517 42.6297 41.4992C42.7342 41.5072 42.8383 41.4801 42.9257 41.4223C42.9501 41.3998 42.9664 41.3698 42.9717 41.3371C42.9771 41.3044 42.9713 41.2708 42.9553 41.2417C42.9144 41.1881 42.8598 41.1467 42.7973 41.1216C42.7347 41.0966 42.6666 41.089 42.6001 41.0996C42.4631 41.0976 42.3305 41.1485 42.2301 41.2417C42.2074 41.2633 42.1916 41.2912 42.1846 41.3217C42.1777 41.3523 42.1798 41.3842 42.1909 41.4136C42.2019 41.4429 42.2213 41.4684 42.2467 41.4867C42.2721 41.5051 42.3024 41.5156 42.3337 41.517Z" fill="#263238"/>
<path d="M43.0233 41.9194C43.0233 41.9194 43.0026 41.9372 43.0056 41.9461C43.0648 42.2421 43.0885 42.5677 42.8487 42.7098C42.8487 42.7098 42.8487 42.7275 42.8487 42.7246C43.1595 42.6239 43.124 42.177 43.0233 41.9194Z" fill="#263238"/>
<path d="M42.7125 41.6679C42.2478 41.7182 42.381 42.6447 42.8102 42.5973C43.2394 42.5499 43.1033 41.6264 42.7125 41.6679Z" fill="#263238"/>
<path d="M42.532 41.736C42.458 41.8011 42.3929 41.9047 42.2952 41.9284C42.1975 41.9521 42.085 41.8722 41.9992 41.7893C41.9992 41.7893 41.9814 41.7893 41.9844 41.7893C42.0051 41.9669 42.0998 42.1386 42.2952 42.1386C42.4905 42.1386 42.5734 41.9639 42.5912 41.7774C42.603 41.7626 42.5675 41.7153 42.532 41.736Z" fill="#263238"/>
<path d="M44.5655 41.588C44.5655 41.588 44.5892 41.588 44.5921 41.6087C44.6217 41.9047 44.7046 42.2244 44.9769 42.2836V42.3014C44.6543 42.2984 44.5477 41.8663 44.5655 41.588Z" fill="#263238"/>
<path d="M44.7816 41.2505C45.2404 41.1528 45.4032 42.0764 44.9769 42.1681C44.5507 42.2599 44.3997 41.3334 44.7816 41.2505Z" fill="#263238"/>
<path d="M44.9858 41.2801C45.0658 41.3157 45.1546 41.3897 45.2434 41.3808C45.3322 41.3719 45.4002 41.2565 45.4476 41.1499C45.4476 41.1499 45.4624 41.1499 45.4654 41.1499C45.5009 41.3245 45.4654 41.5169 45.3114 41.5821C45.1575 41.6472 45.0154 41.5081 44.9503 41.3393C44.9355 41.3186 44.9533 41.2653 44.9858 41.2801Z" fill="#263238"/>
<path d="M44.3672 43.1567C44.43 43.3611 44.4824 43.5686 44.5241 43.7783C44.5241 43.7961 44.4797 43.8139 44.4116 43.8287C44.2434 43.8874 44.0622 43.8989 43.8879 43.8619C43.7136 43.8248 43.5527 43.7406 43.423 43.6185C43.4182 43.6154 43.415 43.6105 43.4139 43.6049C43.4128 43.5994 43.4139 43.5936 43.417 43.5889C43.4202 43.5842 43.4251 43.5809 43.4306 43.5798C43.4362 43.5787 43.4419 43.5798 43.4466 43.583C43.7323 43.7185 44.0539 43.7589 44.3642 43.6984C44.3642 43.6392 44.1245 42.988 44.1541 42.9821C44.3137 42.9717 44.4739 42.9826 44.6306 43.0147C44.3938 42.1267 44.0179 41.2979 43.793 40.4187C43.793 40.3862 43.8314 40.3684 43.8433 40.398C44.2753 41.28 44.6174 42.2032 44.8645 43.1538C44.9 43.2662 44.453 43.1804 44.3672 43.1567Z" fill="#263238"/>
<path d="M38.533 43.438C38.796 43.2838 39.0142 43.0638 39.1663 42.7996C39.3183 42.5354 39.399 42.2362 39.4003 41.9314C40.1183 41.5437 40.7209 40.9728 41.1467 40.2767C41.123 40.3655 40.9691 41.0167 40.8803 41.3453C43.5443 40.623 44.2103 38.4889 44.2103 38.4889C44.7665 38.9204 45.217 39.4732 45.5275 40.105C45.5275 40.105 45.4121 38.4474 44.4708 37.4055C44.1646 37.0403 43.7662 36.7639 43.3169 36.6051C42.8676 36.4463 42.3839 36.411 41.9163 36.5027C41.2359 36.3964 40.5394 36.4746 39.8995 36.7292C39.2596 36.9838 38.6998 37.4054 38.2785 37.9502C36.6771 40.0044 38.533 43.438 38.533 43.438Z" fill="#263238"/>
<path d="M42.899 40.7325C42.4837 41.0059 42.0297 41.2155 41.5522 41.3541C42.2944 41.0847 42.9472 40.6143 43.4377 39.9955C43.6457 39.73 43.8197 39.4397 43.9557 39.1312C44.1174 38.7999 44.2111 38.4396 44.231 38.0715C44.231 38.066 44.2332 38.0607 44.2371 38.0568C44.241 38.053 44.2462 38.0508 44.2517 38.0508C44.2572 38.0508 44.2625 38.053 44.2664 38.0568C44.2703 38.0607 44.2725 38.066 44.2725 38.0715C44.2909 38.4362 44.2479 38.8015 44.1452 39.1519C44.029 39.4963 43.8504 39.8164 43.6183 40.0961C43.4089 40.3411 43.1669 40.5563 42.899 40.7355" fill="#263238"/>
<path d="M39.2316 43.3758C39.2316 43.3758 38.1245 42.1918 37.574 42.6032C37.0234 43.0146 37.9884 44.8262 38.7254 44.9712C38.8187 44.9988 38.9167 45.0073 39.0133 44.996C39.1099 44.9847 39.2033 44.9539 39.2877 44.9054C39.3721 44.857 39.4458 44.792 39.5043 44.7142C39.5629 44.6365 39.605 44.5477 39.6282 44.4532L39.2316 43.3758Z" fill="#D3766A"/>
<path d="M37.8641 43.1153V43.1331C38.1055 43.2141 38.3275 43.3443 38.516 43.5155C38.7045 43.6867 38.8554 43.8952 38.9593 44.1277C38.9233 44.085 38.8788 44.0504 38.8286 44.026C38.7784 44.0016 38.7236 43.988 38.6679 43.986C38.6121 43.9841 38.5565 43.9938 38.5048 44.0146C38.453 44.0355 38.4062 44.0669 38.3673 44.1069C38.3673 44.1069 38.3673 44.1365 38.385 44.1306C38.4677 44.0908 38.5606 44.0774 38.6512 44.0922C38.7417 44.1071 38.8255 44.1494 38.8912 44.2135C39.002 44.3223 39.1012 44.4423 39.1872 44.5717C39.2168 44.6131 39.2908 44.5717 39.2671 44.5302C39.1576 43.8909 38.5449 43.0828 37.8641 43.1153Z" fill="#263238"/>
<path d="M38.758 37.592C39.1605 37.441 39.5424 35.1884 38.0624 34.114C36.5824 33.0395 34.6821 34.2679 35.4783 36.1149C35.9815 37.2782 37.9025 37.9087 38.758 37.592Z" fill="#263238"/>
<path d="M35.9904 33.9778C35.5515 34.3437 35.2499 34.8478 35.135 35.4075C35.0761 35.6679 35.0867 35.9392 35.1656 36.1943C35.2446 36.4493 35.3892 36.6792 35.5849 36.8608C36.004 37.2302 36.5155 37.4788 37.0649 37.5801C37.3434 37.6397 37.6267 37.6744 37.9114 37.6837C38.2 37.7055 38.4901 37.6734 38.7669 37.589C38.5058 37.7346 38.2157 37.8206 37.9174 37.8406C37.6224 37.8756 37.3243 37.8756 37.0294 37.8406C36.4157 37.7741 35.8382 37.5174 35.3777 37.1065C35.1449 36.8861 34.9762 36.6069 34.8893 36.2984C34.8115 35.9907 34.8176 35.6677 34.907 35.3631C34.9845 35.0709 35.1205 34.7975 35.3067 34.5594C35.4929 34.3213 35.7255 34.1234 35.9904 33.9778Z" fill="#263238"/>
<path d="M53.7356 65.4308C52.5871 66.8249 49.7573 66.8871 42.6474 67.7129C41.6647 67.8254 38.9918 61.1003 40.0337 60.9257C41.3509 60.7037 46.5043 60.1264 46.8861 60.1324C50.1096 60.1797 54.5111 64.4836 53.7356 65.4308Z" fill="#D3766A"/>
<path d="M41.5493 60.7184C41.5493 60.7184 38.5478 60.9374 37.0057 61.5383C35.4197 62.2074 34.0185 63.2492 32.9209 64.5753C31.7369 66.0049 29.8543 70.2821 30.991 71.0369C32.0181 71.7237 33.723 67.2541 33.723 67.2541C33.723 67.2541 31.2337 71.5253 32.6249 72.1203C34.0161 72.7153 35.6974 67.4198 35.6974 67.4198C35.6974 67.4198 33.2406 71.8598 34.7709 72.2535C35.9282 72.5495 37.7309 67.8313 37.7309 67.8313C37.7309 67.8313 35.6589 71.6793 36.8222 72.0197C38.1246 72.4104 40.0515 68.1717 40.0515 68.1717C43.198 68.5683 44.8556 67.4701 45.9419 66.5466C46.1965 66.3039 41.5493 60.7184 41.5493 60.7184Z" fill="#D3766A"/>
<path d="M34.4009 65.7119C34.1049 66.2033 33.7704 66.6976 33.5129 67.2156C33.2554 67.7336 32.9978 68.2575 32.7818 68.7962C32.4851 69.4955 32.2696 70.2265 32.1394 70.9748C32.468 69.6635 33.3915 67.7987 33.655 67.2837C33.9184 66.7686 34.1611 66.2388 34.4246 65.7208C34.4275 65.7119 34.4068 65.7119 34.4009 65.7119Z" fill="#263238"/>
<path d="M36.2834 66.6444C35.9134 67.2867 35.5227 67.9143 35.1823 68.5743C34.8419 69.2344 34.5903 69.8856 34.2943 70.5635C34.2736 70.6167 34.2943 70.6108 34.3328 70.5635C34.6525 69.8945 34.9988 69.3025 35.3274 68.6424C35.6559 67.9823 35.9578 67.3015 36.3071 66.6533C36.316 66.6415 36.2894 66.6355 36.2834 66.6444Z" fill="#263238"/>
<path d="M38.0417 67.1476C37.4528 68.1226 36.9648 69.155 36.5853 70.229C36.5646 70.2793 36.612 70.2674 36.6357 70.229C37.1004 69.1959 37.4556 68.3819 38.0772 67.1802C38.092 67.1506 38.0565 67.1269 38.0417 67.1476Z" fill="#263238"/>
<path d="M40.5784 60.6593L46.0307 67.9764C46.0307 67.9764 53.191 66.9137 53.8155 65.3124C54.4401 63.711 49.7218 59.9637 46.895 60.1087C44.0682 60.2537 40.5784 60.6593 40.5784 60.6593Z" fill="#FFC727"/>
<path d="M47.3124 66.7213C46.525 65.8007 43.4437 61.9142 42.8339 61.0292C42.7925 60.967 42.8191 60.9256 42.8724 60.9848C45.2966 63.6873 46.6198 65.7474 47.345 66.6887C47.3657 66.7124 47.3302 66.745 47.3124 66.7213Z" fill="#263238"/>
<path d="M35.2119 50.684C32.3792 54.1946 29.2919 59.4071 28.7384 63.6636C28.469 65.7356 31.8582 68.0414 33.2405 67.556C36.4965 66.4164 41.1704 63.483 43.1151 61.4229C43.7989 60.6947 38.018 54.6297 37.4437 55.5295C36.8695 56.4294 36.5143 56.9592 36.0022 57.273C35.7536 57.4269 37.0649 55.2838 38.1897 51.4329C39.7229 46.1759 36.239 49.4112 35.2119 50.684Z" fill="#D3766A"/>
<path d="M43.5206 46.9308C43.5206 46.9308 42.6593 45.581 43.6272 45.0689C44.5951 44.5569 45.2285 46.028 45.2285 46.028L43.5206 46.9308Z" fill="#FF85BF"/>
<path d="M45.203 45.971L43.4948 46.8755L48.7636 56.8265L50.4718 55.9221L45.203 45.971Z" fill="#FFC727"/>
<path opacity="0.2" d="M45.203 45.971L43.4948 46.8755L48.7636 56.8265L50.4718 55.9221L45.203 45.971Z" fill="black"/>
<path d="M45.3152 45.8422L43.3219 46.8976L43.531 47.2926L45.5244 46.2372L45.3152 45.8422Z" fill="#37474F"/>
<path d="M45.5453 46.2786L43.5519 47.334L43.7611 47.729L45.7544 46.6736L45.5453 46.2786Z" fill="#37474F"/>
<path d="M50.4677 55.9233V57.4921V58.0071L50.0385 57.7111L48.748 56.832L48.7894 56.4946L49.0854 56.6515L49.1269 56.314L49.4229 56.4709L49.4613 56.1335L49.7573 56.2903L49.7958 55.9529L50.0918 56.1098L50.1303 55.7723L50.4677 55.9233Z" fill="white"/>
<path d="M50.4766 57.4891L50.4825 58.0071L50.0533 57.7141L50.4766 57.4891Z" fill="#37474F"/>
<path d="M47.9221 48.9347C48.4017 49.7843 46.2024 50.7936 46.2024 50.7936C46.623 50.8251 47.0197 51.002 47.3242 51.2939C47.8333 51.8355 47.2088 52.8715 47.2088 52.8715C47.6382 52.9951 48.0207 53.2447 48.3069 53.5879C48.745 54.1562 48.2655 55.2928 48.2655 55.2928C48.5972 55.6237 48.7989 56.0629 48.8338 56.5301C48.8753 57.7822 47.2029 58.7412 46.2853 59.5404C45.3025 60.3959 43.4821 61.1151 42.7333 61.7338L37.1773 56.0003C37.1773 56.0003 39.6963 51.2465 41.567 50.098C42.6119 49.4616 47.1851 47.6323 47.9221 48.9347Z" fill="#D3766A"/>
<path d="M46.1728 50.7788C44.8734 51.0748 43.6509 51.6875 42.4787 52.2854C42.4521 52.3002 42.4787 52.3416 42.4994 52.3268C43.6598 51.7171 45.0125 51.4004 46.1935 50.8468C46.2025 50.8441 46.2101 50.8379 46.2146 50.8295C46.219 50.8212 46.2199 50.8115 46.2172 50.8024C46.2144 50.7934 46.2082 50.7858 46.1999 50.7814C46.1916 50.777 46.1818 50.776 46.1728 50.7788Z" fill="#263238"/>
<path d="M47.1318 52.8034C46.8436 52.8999 46.569 53.0332 46.3149 53.2C46.0366 53.3599 45.7613 53.5256 45.489 53.6973C44.9404 54.0347 44.4017 54.387 43.8729 54.754C43.8492 54.7718 43.8729 54.8103 43.8936 54.7955C44.4412 54.458 44.9917 54.1295 45.5512 53.8157C45.8294 53.6588 46.1106 53.5019 46.3948 53.351C46.6697 53.223 46.9298 53.0651 47.1703 52.8803C47.1778 52.8739 47.1829 52.8651 47.1848 52.8555C47.1867 52.8458 47.1854 52.8357 47.181 52.8269C47.1765 52.8181 47.1693 52.811 47.1604 52.8067C47.1515 52.8025 47.1415 52.8013 47.1318 52.8034Z" fill="#263238"/>
<path d="M48.2418 55.3046C47.9823 55.3953 47.7401 55.5295 47.5255 55.7012C47.2798 55.8611 47.0341 56.0209 46.7855 56.1778C46.2882 56.4916 45.7939 56.8053 45.2877 57.1013C45.2641 57.1191 45.2877 57.1576 45.3085 57.1428C45.8235 56.8468 46.3445 56.5508 46.8565 56.2548C47.1111 56.1068 47.3597 55.9588 47.6113 55.8048C47.8531 55.6882 48.0717 55.5288 48.2566 55.3342C48.2586 55.3332 48.2603 55.3319 48.2617 55.3302C48.2632 55.3286 48.2642 55.3267 48.2649 55.3246C48.2656 55.3226 48.2659 55.3204 48.2657 55.3182C48.2656 55.3161 48.265 55.3139 48.264 55.312C48.2631 55.3101 48.2617 55.3083 48.2601 55.3069C48.2584 55.3055 48.2565 55.3044 48.2545 55.3037C48.2524 55.303 48.2502 55.3027 48.2481 55.3029C48.2459 55.3031 48.2438 55.3036 48.2418 55.3046Z" fill="#263238"/>
<path d="M41.203 50.3613C41.739 49.8339 42.424 49.4836 43.1654 49.3579C43.198 49.3579 43.195 49.3579 43.1654 49.3816C42.474 49.6261 41.8173 49.9594 41.2118 50.3732C41.2118 50.3732 41.1941 50.3702 41.203 50.3613Z" fill="#263238"/>
<path d="M43.2898 62.5803L37.3698 55.278L36.1473 57.0037C36.1473 57.0037 37.7634 53.5878 38.4028 51.3797C39.0422 49.1715 39.2701 46.5578 36.0585 49.6037C32.912 52.5637 28.4868 61.1092 28.401 63.5808C28.3151 66.0524 31.284 67.8965 32.8735 67.784C34.463 67.6715 43.2898 62.5803 43.2898 62.5803Z" fill="#FFC727"/>
<path d="M41.4723 63.0924C40.6435 62.1037 37.3905 57.9449 36.7363 56.9977C36.6919 56.9326 36.7363 56.8882 36.7777 56.9504C39.3381 59.8452 40.7353 62.0475 41.5137 63.0568C41.5285 63.0835 41.493 63.116 41.4723 63.0924Z" fill="#263238"/>
<path d="M30.6417 63.1102C31.0709 62.5182 31.5563 61.9765 32.021 61.42C32.4858 60.8635 32.9564 60.3041 33.4448 59.7624C33.9332 59.2207 34.4512 58.6938 34.9662 58.167L35.9786 57.125C36.2331 56.8675 36.2509 56.9356 36.0052 57.2227C35.7595 57.5098 35.2859 58.0278 35.0491 58.3031C34.5844 58.8478 34.1256 59.3983 33.6461 59.9341C33.1666 60.4698 32.6722 60.9967 32.1661 61.5266C31.6599 62.0564 31.1893 62.6188 30.6683 63.1368C30.6624 63.1575 30.621 63.1338 30.6417 63.1102Z" fill="#263238"/>
<path d="M36.9287 55.0294C37.2247 54.3811 37.5888 53.7388 37.8463 53.0669C37.8463 53.0403 37.8996 53.0669 37.8877 53.0817C37.7042 53.5227 37.5444 53.9697 37.3757 54.4255L37.4141 54.3723C37.5414 54.2065 37.6628 54.0378 37.7812 53.8661C37.7989 53.8424 37.8315 53.8661 37.8167 53.8927C37.7042 54.0664 37.5947 54.244 37.4881 54.4255C37.4082 54.5718 37.3151 54.7106 37.2099 54.8399C37.1714 54.9376 37.1329 55.0353 37.0885 55.1359C36.8046 55.793 36.4742 56.4291 36.0999 57.0392C36.0948 57.0476 36.0868 57.0536 36.0774 57.0563C36.0679 57.0589 36.0579 57.0578 36.0492 57.0533C36.0406 57.0488 36.034 57.0411 36.0307 57.0319C36.0275 57.0227 36.0279 57.0126 36.0318 57.0037C36.316 56.3347 36.612 55.6776 36.9287 55.0294Z" fill="#263238"/>
<path d="M37.3224 55.2336C37.349 55.201 37.4941 55.3905 37.5621 55.4911C37.5621 55.5059 37.5621 55.5118 37.5355 55.4911C37.5089 55.4704 37.4289 55.4141 37.3816 55.3668C37.1921 55.6628 36.1621 57.0303 36.094 57.0865C36.0259 57.1428 36.0407 57.0865 36.0585 57.0451C36.1265 56.8941 37.0945 55.5325 37.3224 55.2336Z" fill="#263238"/>
<path d="M35.1853 66.896C37.2573 65.712 39.3737 64.5724 41.5197 63.5156C42.1117 63.2196 42.6682 62.9059 43.2483 62.598C43.1921 62.5507 42.7155 61.9172 42.7007 61.8936H42.7185C42.7747 61.9498 43.4022 62.5892 43.4437 62.6572C43.4851 62.7253 41.274 63.862 40.235 64.4332C39.1961 65.0045 38.1127 65.5403 37.0412 66.0701C36.4314 66.372 35.8187 66.668 35.203 66.9581C35.1948 66.9605 35.186 66.9595 35.1785 66.9553C35.171 66.9511 35.1654 66.9442 35.1631 66.9359C35.1607 66.9277 35.1617 66.9188 35.1659 66.9113C35.1701 66.9038 35.177 66.8983 35.1853 66.896Z" fill="#263238"/>
<path d="M118.663 21.3268C118.154 25.6277 115.389 26.415 114.928 27.5635C114.689 28.2848 114.491 29.0191 114.336 29.7628H109.842C109.695 29.0189 109.503 28.2845 109.268 27.5635C108.836 26.4091 106.057 25.6158 105.562 21.312C105.234 18.4852 107.362 14.0245 112.119 14.0304C116.875 14.0363 118.992 18.5 118.663 21.3268Z" fill="#FFC727"/>
<path d="M109.813 22.8696L109.525 22.9231L110.852 30.0738L111.14 30.0203L109.813 22.8696Z" fill="white"/>
<path d="M114.407 22.8815L113.064 30.0292L113.352 30.0833L114.695 22.9356L114.407 22.8815Z" fill="white"/>
<path d="M112.107 25.2991C111.686 25.2991 111.322 24.9202 111.065 24.4496C111.018 24.5068 110.96 24.554 110.894 24.5881C110.829 24.6221 110.757 24.6425 110.683 24.6479C109.996 24.6479 109.727 23.2478 109.715 23.1886L109.86 23.162C109.931 23.5349 110.215 24.5029 110.686 24.5029C110.749 24.4942 110.809 24.4722 110.862 24.4386C110.916 24.4049 110.962 24.3602 110.997 24.3075C110.8 23.9139 110.687 23.4834 110.665 23.0436C110.665 22.644 110.816 22.4161 111.083 22.4161C111.161 22.4138 111.238 22.4331 111.306 22.4717C111.374 22.5103 111.43 22.5669 111.467 22.6351C111.681 23.0021 111.524 23.7303 111.254 24.1921C111.225 24.2394 111.195 24.2868 111.166 24.3282C111.405 24.787 111.758 25.1511 112.11 25.1511C112.441 25.1511 112.731 24.8551 112.942 24.4496C112.667 24.1078 112.521 23.6803 112.53 23.2419C112.53 22.7328 112.725 22.4161 113.036 22.4161C113.288 22.4161 113.436 22.6677 113.433 23.1028C113.418 23.5604 113.308 24.01 113.11 24.4229C113.227 24.5337 113.381 24.5961 113.542 24.5976C113.945 24.5976 114.306 23.6237 114.41 23.2478L114.552 23.2893C114.51 23.4373 114.128 24.7456 113.542 24.7456C113.359 24.7444 113.182 24.6759 113.045 24.5532C112.817 24.9765 112.498 25.2991 112.107 25.2991ZM113.033 22.5641C112.77 22.5641 112.675 22.9311 112.675 23.2419C112.672 23.6238 112.788 23.9972 113.007 24.3105C113.185 23.9317 113.286 23.5211 113.303 23.1028C113.303 22.94 113.279 22.5641 113.048 22.5641H113.033ZM111.08 22.5641C110.855 22.5641 110.807 22.8245 110.807 23.0436C110.823 23.4366 110.919 23.8224 111.089 24.1773L111.124 24.1181C111.367 23.6977 111.515 23.0169 111.337 22.7091C111.313 22.6629 111.275 22.6248 111.23 22.5991C111.184 22.5734 111.132 22.5613 111.08 22.5641Z" fill="white"/>
<path d="M114.876 29.5748L109.329 29.569L109.328 30.6523L114.875 30.6581L114.876 29.5748Z" fill="#455A64"/>
<path d="M114.875 30.8356L109.328 30.8298L109.326 31.9132L114.873 31.919L114.875 30.8356Z" fill="#455A64"/>
<path d="M114.873 32.0937L109.326 32.0879L109.325 33.1712L114.872 33.1771L114.873 32.0937Z" fill="#455A64"/>
<path d="M112.092 12.1182C112.026 11.7351 111.995 11.3467 112 10.9579C111.996 10.5692 112.026 10.1808 112.092 9.79761C112.156 10.1789 112.186 10.5653 112.181 10.952C112.185 11.3426 112.156 11.7329 112.092 12.1182Z" fill="#263238"/>
<path d="M107.895 13.2193C107.646 12.9205 107.425 12.5995 107.235 12.2603C107.037 11.9258 106.869 11.5741 106.734 11.2095C106.983 11.5088 107.204 11.8298 107.394 12.1685C107.591 12.5036 107.759 12.8552 107.895 13.2193Z" fill="#263238"/>
<path d="M104.813 16.2799C104.449 16.144 104.098 15.9766 103.763 15.7797C103.423 15.5895 103.102 15.3686 102.804 15.1196C103.168 15.2544 103.52 15.4219 103.854 15.6199C104.194 15.81 104.515 16.031 104.813 16.2799Z" fill="#263238"/>
<path d="M103.671 20.4536C102.902 20.5759 102.119 20.5759 101.35 20.4536C102.119 20.3312 102.902 20.3312 103.671 20.4536Z" fill="#263238"/>
<path d="M104.772 24.6479C104.47 24.8973 104.146 25.1183 103.804 25.308C103.469 25.506 103.118 25.6735 102.753 25.8083C103.055 25.563 103.379 25.346 103.721 25.16C104.056 24.9591 104.407 24.7877 104.772 24.6479Z" fill="#263238"/>
<path d="M119.282 24.719C120.009 24.9969 120.687 25.3886 121.292 25.8793C120.927 25.7458 120.575 25.5783 120.241 25.3791C119.902 25.1889 119.581 24.9679 119.282 24.719Z" fill="#263238"/>
<path d="M120.424 20.5365C121.193 20.4141 121.976 20.4141 122.745 20.5365C121.976 20.6588 121.193 20.6588 120.424 20.5365Z" fill="#263238"/>
<path d="M119.323 16.3421C119.624 16.0972 119.945 15.8783 120.282 15.688C120.617 15.49 120.969 15.3226 121.333 15.1877C121.035 15.4336 120.716 15.6525 120.38 15.8419C120.044 16.0403 119.69 16.2077 119.323 16.3421Z" fill="#263238"/>
<path d="M116.272 13.2608C116.408 12.8967 116.575 12.5452 116.772 12.21C116.959 11.8707 117.176 11.5488 117.42 11.248C117.285 11.6126 117.118 11.9643 116.92 12.2988C116.733 12.6386 116.517 12.9606 116.272 13.2608Z" fill="#263238"/>
</svg>
