<svg width="40" height="40" viewBox="0 0 40 40" fill="none" xmlns="http://www.w3.org/2000/svg">
<path d="M16.4316 21.1928C16.4316 21.1928 15.4053 21.79 17.1631 21.9919C19.2925 22.235 20.3809 22.2 22.7272 21.7565C22.7272 21.7565 23.3456 22.1431 24.2069 22.4781C18.9456 24.7322 12.2994 22.3475 16.4316 21.1928ZM15.7881 18.2506C15.7881 18.2506 14.6369 19.1034 16.3959 19.2853C18.6709 19.52 20.4669 19.5394 23.5769 18.9406C23.5769 18.9406 24.0059 19.3769 24.6819 19.6147C18.3219 21.4753 11.2378 19.7612 15.7881 18.2506Z" fill="#0074BD"/>
<path d="M21.2078 13.2597C22.505 14.7528 20.8678 16.0953 20.8678 16.0953C20.8678 16.0953 24.1594 14.3962 22.6478 12.2678C21.2356 10.2837 20.1534 9.29841 26.0137 5.89966C26.0137 5.89966 16.8144 8.19653 21.2078 13.2597Z" fill="#EA2D2E"/>
<path d="M28.1662 23.3691C28.1662 23.3691 28.9262 23.9956 27.3294 24.48C24.2931 25.3997 14.6906 25.6772 12.0234 24.5166C11.0653 24.0994 12.8631 23.5206 13.4284 23.3991C14.0181 23.2712 14.355 23.2947 14.355 23.2947C13.2887 22.5437 7.46281 24.7694 11.3959 25.4078C22.1222 27.1462 30.9481 24.6247 28.1662 23.3691ZM16.9256 15.2022C16.9256 15.2022 12.0416 16.3625 15.1962 16.7844C16.5287 16.9625 19.1831 16.9216 21.6575 16.7141C23.6791 16.5444 25.7078 16.1816 25.7078 16.1816C25.7078 16.1816 24.9956 16.4872 24.4797 16.8391C19.5191 18.1437 9.93812 17.5359 12.6966 16.2022C15.0287 15.0737 16.9256 15.2022 16.9256 15.2022ZM25.6875 20.0991C30.7297 17.4797 28.3981 14.9622 26.7709 15.3012C26.3731 15.3844 26.1944 15.4562 26.1944 15.4562C26.1944 15.4562 26.3428 15.2237 26.625 15.1241C29.8444 13.9928 32.3197 18.4619 25.5869 20.2319C25.5869 20.2319 25.6641 20.1619 25.6875 20.0991Z" fill="#0074BD"/>
<path d="M22.6481 0.410339C22.6481 0.410339 25.4403 3.20378 19.9994 7.49846C15.6363 10.9444 19.0044 12.9088 19.9975 15.1541C17.4506 12.856 15.5825 10.8328 16.8356 8.95034C18.6759 6.18721 23.7744 4.8469 22.6481 0.410339Z" fill="#EA2D2E"/>
<path d="M17.4216 27.1997C22.2603 27.509 29.6931 27.0275 29.8691 24.7378C29.8691 24.7378 29.5309 25.6056 25.8694 26.2944C21.7387 27.0719 16.6434 26.9815 13.6222 26.4828C13.6222 26.4828 14.2409 26.9953 17.4216 27.1997Z" fill="#0074BD"/>
<path d="M29.6456 31.3066H29.4981V31.2241H29.895V31.3066H29.7481V31.7181H29.6453L29.6456 31.3066ZM30.4378 31.3272H30.4359L30.2897 31.7181H30.2222L30.0769 31.3272H30.0753V31.7181H29.9778V31.2241H30.1206L30.2553 31.5738L30.3903 31.2241H30.5322V31.7181H30.4378V31.3272ZM16.6284 35.9491C16.1722 36.3447 15.6897 36.5672 15.2562 36.5672C14.6394 36.5672 14.3047 36.1966 14.3047 35.6031C14.3047 34.9609 14.6628 34.4906 16.0978 34.4906H16.6281L16.6284 35.9491ZM17.8881 37.3703V32.9713C17.8881 31.8466 17.2466 31.1047 15.7016 31.1047C14.7997 31.1047 14.0091 31.3278 13.3662 31.6116L13.5512 32.3906C14.0575 32.2047 14.7122 32.0322 15.3547 32.0322C16.2453 32.0322 16.6281 32.3906 16.6281 33.1325V33.6884H16.1831C14.0203 33.6884 13.0444 34.5275 13.0444 35.7894C13.0444 36.8766 13.6875 37.4944 14.8984 37.4944C15.6766 37.4944 16.2581 37.1731 16.8009 36.7028L16.8997 37.3706L17.8881 37.3703ZM22.0919 37.3703H20.5209L18.63 31.2175H20.0022L21.1759 34.9984L21.4369 36.1344C22.0294 34.4913 22.4494 32.8231 22.6594 31.2178H23.9941C23.6369 33.2431 22.9931 35.4672 22.0919 37.3703ZM28.1194 35.9491C27.6616 36.3447 27.1787 36.5672 26.7469 36.5672C26.1294 36.5672 25.795 36.1966 25.795 35.6031C25.795 34.9609 26.1541 34.4906 27.5875 34.4906H28.1191L28.1194 35.9491ZM29.3797 37.3703V32.9713C29.3797 31.8466 28.7362 31.1047 27.1925 31.1047C26.2897 31.1047 25.4994 31.3278 24.8566 31.6116L25.0419 32.3906C25.5481 32.2047 26.2037 32.0322 26.8462 32.0322C27.7356 32.0322 28.1194 32.3906 28.1194 33.1325V33.6884H27.6744C25.5109 33.6884 24.5353 34.5275 24.5353 35.7894C24.5353 36.8766 25.1778 37.4944 26.3884 37.4944C27.1669 37.4944 27.7475 37.1731 28.2919 36.7028L28.3912 37.3706L29.3797 37.3703ZM11.6631 38.4159C11.3047 38.9406 10.7241 39.3559 10.0891 39.59L9.4675 38.8572C9.95094 38.6091 10.365 38.2088 10.5578 37.8356C10.7241 37.5034 10.7931 37.0763 10.7931 36.0541V29.0284H12.1319V35.9575C12.1319 37.3247 12.0231 37.8775 11.6631 38.4159Z" fill="#EA2D2E"/>
</svg>
