<svg width="40" height="40" viewBox="0 0 40 40" fill="none" xmlns="http://www.w3.org/2000/svg">
<path d="M2.5 2.5H37.5V37.5H2.5V2.5Z" fill="#F5DE19"/>
<path d="M26.0112 29.8438C26.3099 30.4491 26.7734 30.9579 27.3483 31.3117C27.9232 31.6655 28.5862 31.8499 29.2612 31.8438C30.6237 31.8438 31.495 31.1625 31.495 30.2188C31.495 29.0938 30.6 28.6913 29.1 28.035L28.2775 27.6825C25.9025 26.6713 24.3275 25.405 24.3275 22.7275C24.3275 20.2613 26.2025 18.3825 29.1437 18.3825C30.0959 18.3139 31.0471 18.5271 31.8789 18.9954C32.7106 19.4638 33.3862 20.1666 33.8212 21.0163L31.25 22.66C31.0824 22.2388 30.7907 21.8784 30.4137 21.6266C30.0367 21.3748 29.5921 21.2435 29.1387 21.25C28.9409 21.2302 28.7412 21.2518 28.5522 21.3135C28.3632 21.3751 28.1892 21.4755 28.0411 21.6082C27.8931 21.7408 27.7743 21.9028 27.6923 22.0839C27.6103 22.265 27.567 22.4612 27.565 22.66C27.565 23.6463 28.1762 24.0463 29.5875 24.66L30.41 25.0125C33.205 26.2113 34.785 27.4325 34.785 30.1788C34.785 33.14 32.4587 34.7625 29.335 34.7625C28.118 34.8393 26.9048 34.5626 25.8414 33.9658C24.778 33.369 23.9097 32.4775 23.3412 31.3988L26.0112 29.8438ZM14.3925 30.1288C14.9087 31.045 15.3787 31.82 16.5087 31.82C17.5887 31.82 18.2712 31.3975 18.2712 29.7538V18.57H21.56V29.7975C21.56 33.2025 19.56 34.7525 16.6487 34.7525C15.6197 34.8088 14.5977 34.5523 13.7171 34.0169C12.8365 33.4814 12.1386 32.692 11.715 31.7525L14.3925 30.1288Z" fill="black"/>
</svg>
