<svg width="40" height="40" viewBox="0 0 40 40" fill="none" xmlns="http://www.w3.org/2000/svg">
<g clip-path="url(#clip0_252_302)">
<path d="M30.625 0H9.375C4.19733 0 0 4.19733 0 9.375V30.625C0 35.8027 4.19733 40 9.375 40H30.625C35.8027 40 40 35.8027 40 30.625V9.375C40 4.19733 35.8027 0 30.625 0Z" fill="#242938"/>
<path fill-rule="evenodd" clip-rule="evenodd" d="M33.7259 12.2365C33.736 12.2747 33.7411 12.3136 33.7413 12.3533V18.4781C33.7413 18.5567 33.7208 18.6339 33.682 18.7018C33.6434 18.7697 33.5875 18.8261 33.52 18.8654L28.4503 21.8251V27.6915C28.4506 27.7697 28.4304 27.8466 28.3918 27.9146C28.3532 27.9825 28.2974 28.0392 28.2302 28.079L17.6477 34.2564C17.6234 34.2703 17.597 34.2792 17.5706 34.2887C17.5606 34.2922 17.5514 34.2983 17.5409 34.3011C17.467 34.3208 17.3891 34.3208 17.3152 34.3011C17.3031 34.2976 17.292 34.2909 17.2805 34.2865C17.2563 34.2776 17.2309 34.2698 17.2078 34.2564L6.6275 28.079C6.56014 28.0396 6.50432 27.9832 6.46563 27.9154C6.42677 27.8472 6.40631 27.7701 6.40625 27.6915V9.317C6.40646 9.27669 6.41161 9.23763 6.42172 9.19981C6.42484 9.18685 6.43266 9.17513 6.43703 9.16231C6.44531 9.13888 6.45297 9.11497 6.46516 9.0931C6.47344 9.07856 6.48547 9.06685 6.49547 9.05356C6.50797 9.0356 6.51969 9.01716 6.53453 9.00153C6.54703 8.98872 6.56375 8.97919 6.57797 8.9681C6.59391 8.95466 6.60828 8.94013 6.62641 8.9295H6.62703L11.9172 5.84091C11.984 5.80196 12.06 5.78143 12.1374 5.78143C12.2148 5.78143 12.2908 5.80196 12.3577 5.84091L17.6481 8.9295H17.6492C17.6667 8.94075 17.6817 8.95466 17.6977 8.96747C17.7119 8.97872 17.7278 8.98872 17.7405 9.00106C17.7559 9.01716 17.767 9.0356 17.7802 9.05356C17.7895 9.06685 17.8022 9.07856 17.8098 9.0931C17.8225 9.11544 17.8297 9.13888 17.8386 9.16231C17.843 9.17513 17.8506 9.18685 17.8539 9.20028C17.864 9.23851 17.8692 9.27742 17.8694 9.317V20.7936L22.2778 18.2197V12.3525C22.2778 12.3134 22.2833 12.2739 22.2933 12.2365C22.2972 12.2231 22.3042 12.2114 22.3088 12.1986C22.3175 12.1751 22.3252 12.1511 22.3373 12.1293C22.3456 12.1148 22.3577 12.1031 22.367 12.0897C22.3803 12.0718 22.3912 12.0534 22.4067 12.0378C22.4194 12.025 22.4353 12.0154 22.4497 12.0042C22.4661 11.9909 22.4805 11.9764 22.4981 11.9658H22.4988L27.7897 8.877C27.8565 8.83792 27.9325 8.81733 28.0098 8.81733C28.0872 8.81733 28.1632 8.83792 28.23 8.877L33.5205 11.9658C33.5392 11.977 33.5534 11.9908 33.57 12.0037C33.5838 12.0148 33.5997 12.025 33.6123 12.0372C33.6278 12.0534 33.6388 12.0718 33.652 12.0897C33.6619 12.1031 33.6741 12.1147 33.6817 12.1293C33.6944 12.1512 33.7016 12.1751 33.7103 12.1986C33.7153 12.2114 33.7227 12.2231 33.7259 12.2365ZM32.8592 18.2197V13.1264L31.0078 14.207L28.4502 15.7003V20.7936L32.8597 18.2197H32.8592ZM27.5688 27.4331V22.3365L25.053 23.7936L17.8688 27.9512V33.0958L27.5688 27.4331ZM7.28813 10.0901V27.4331L16.987 33.0953V27.9517L11.9202 25.0439L11.9186 25.0428L11.9162 25.0417C11.8992 25.0317 11.885 25.0172 11.8689 25.0048C11.8552 24.9937 11.8392 24.9848 11.8272 24.9725L11.8261 24.9709C11.8117 24.9568 11.8017 24.9397 11.7897 24.9239C11.7788 24.9089 11.7655 24.8961 11.7567 24.8804L11.7561 24.8787C11.7461 24.862 11.74 24.8418 11.733 24.8229C11.7258 24.8062 11.7164 24.7906 11.712 24.7726V24.772C11.7066 24.7509 11.7055 24.7286 11.7031 24.7067C11.7009 24.69 11.6966 24.6733 11.6966 24.6565V12.6642L9.13953 11.1703L7.28813 10.0906V10.0901ZM12.1381 6.74403L7.73031 9.31716L12.137 11.89L16.5444 9.31653L12.137 6.74419L12.1381 6.74403ZM14.4305 22.8009L16.9877 21.3083V10.0901L15.1361 11.1709L12.5786 12.664V23.8823L14.4305 22.8009ZM28.01 9.78028L23.6025 12.3533L28.01 14.9261L32.4167 12.3526L28.01 9.78028ZM27.5689 15.7003L25.0113 14.207L23.16 13.1264V18.2197L25.717 19.7123L27.5689 20.7936V15.7003ZM17.4275 27.1781L23.892 23.4356L27.1236 21.5656L22.7195 18.9943L17.6488 21.9547L13.0272 24.6526L17.4275 27.1781Z" fill="#FF2D20"/>
</g>
<defs>
<clipPath id="clip0_252_302">
<rect width="40" height="40" fill="white"/>
</clipPath>
</defs>
</svg>
