<svg width="100" height="100" viewBox="0 0 100 100" fill="none" xmlns="http://www.w3.org/2000/svg">
<path d="M83.0732 29.4072C83.4929 29.9861 83.7576 30.8327 83.8673 31.9468C84.0595 33.0294 84.1187 34.2554 84.0449 35.625C83.9964 36.9386 83.8117 38.3277 83.4907 39.7921C83.195 41.2006 82.7817 42.4924 82.2509 43.6673C81.6948 44.8983 80.6953 46.5075 79.2524 48.495C77.892 50.4508 76.4332 52.3982 74.8761 54.337C73.3189 56.2758 71.8915 58.003 70.5937 59.5186C69.2959 61.0341 68.4855 61.9233 68.1625 62.186C67.2383 63.3269 66.3642 64.0555 65.5401 64.3718C64.7665 64.5761 63.8436 64.5834 62.7712 64.3937C61.7813 64.1723 60.7881 63.8829 59.7915 63.5253C58.795 63.1677 57.8524 62.7663 56.9635 62.3211C56.1 61.82 55.449 61.3761 55.0107 60.9893C54.9535 60.965 54.7788 60.8239 54.4866 60.566C53.4755 62.8041 52.4106 65.0859 51.2918 67.4115C50.3247 69.4014 49.2438 71.6431 48.0492 74.1366C46.8799 76.5741 45.6979 79.0396 44.5033 81.5331C44.1616 81.988 43.6676 82.4782 43.0215 83.0036C42.4325 83.5534 41.7831 84.0108 41.0733 84.3757C40.3382 84.7965 39.6251 85.0933 38.934 85.266C38.3 85.4631 37.8083 85.4205 37.4589 85.1384C37.2557 84.9851 37.4409 83.8965 38.0147 81.8725C38.6203 79.9288 39.4754 77.3575 40.58 74.1586C41.7164 71.0399 43.0265 67.4615 44.5103 63.4233C45.994 59.3851 47.5442 55.2751 49.1609 51.0934C50.7777 46.9116 52.385 42.826 53.983 38.8364C55.6634 34.8153 57.1416 31.2417 58.4176 28.1157C59.776 24.9582 60.9261 22.4124 61.8679 20.4784C62.8351 18.4885 63.4708 17.4583 63.7751 17.3877C64.0224 17.2928 64.3525 17.4668 64.7656 17.9095C65.204 18.2963 65.6236 18.8753 66.0246 19.6464C66.5079 20.3859 66.9281 21.2653 67.2851 22.2846C67.7245 23.2722 68.0402 24.3073 68.2324 25.3898C71.588 25.3509 74.6364 25.6148 77.3777 26.1816C80.119 26.7483 82.0175 27.8235 83.0732 29.4072ZM73.9003 40.2119C74.3047 39.3166 74.5537 38.3886 74.6472 37.4277C74.8231 36.4352 74.8501 35.546 74.7282 34.7603C74.6316 33.9186 74.4306 33.2326 74.1253 32.7023C73.9023 32.1404 73.5941 31.8424 73.2008 31.8083C71.6208 31.5359 70.2441 31.4167 69.0706 31.4508C68.4553 31.4556 67.9131 31.525 67.4439 31.6588C66.7493 33.4979 65.6943 35.984 64.2787 39.1173C62.9456 42.2189 61.4449 45.6161 59.7766 49.3089C59.0436 50.9315 58.6078 52.0469 58.4693 52.655C57.9198 54.0222 57.8455 55.0913 58.2465 55.8625C58.342 56.1033 58.5106 56.4086 58.7523 56.7783C59.0193 57.0922 59.3148 57.4181 59.6389 57.7563C59.9883 58.0384 60.3503 58.2926 60.7249 58.5189C61.1248 58.6892 61.5182 58.7232 61.905 58.621C61.9874 58.5894 62.3291 58.1345 62.9302 57.2563C63.6138 56.3465 64.3857 55.2408 65.2462 53.9394C66.1319 52.5819 67.0556 51.1406 68.0171 49.6153C69.0611 48.0584 69.9848 46.6171 70.7881 45.2913C71.6738 43.9338 72.4013 42.7759 72.9706 41.8174C73.5398 40.859 73.8497 40.3238 73.9003 40.2119Z" fill="#4EEEBB"/>
<path d="M52.9375 28.5C53.0208 29.4167 52.8542 30.8333 52.4375 32.75C52.1042 34.6667 51.5625 36.5833 50.8125 38.5C50.1458 40.4167 49.2292 42.0833 48.0625 43.5C46.9792 44.9167 45.7292 45.625 44.3125 45.625C43.3125 45.625 42.4792 44.8333 41.8125 43.25C41.2292 41.6667 40.7708 39.8333 40.4375 37.75C40.1875 35.5833 39.9792 33.4583 39.8125 31.375C39.6458 29.2917 39.4792 27.8333 39.3125 27C39.0625 26.5833 38.5625 26.2083 37.8125 25.875C37.1458 25.4583 36.4792 25.25 35.8125 25.25C35.1458 25.25 34.3958 25.7917 33.5625 26.875C32.7292 27.9583 31.8958 29.2083 31.0625 30.625C30.3125 32.0417 29.6458 33.4583 29.0625 34.875C28.5625 36.2917 28.3542 37.3333 28.4375 38C28.4375 38.5 28.9792 39.375 30.0625 40.625C31.1458 41.875 32.4792 43.375 34.0625 45.125C35.7292 46.7917 37.4792 48.625 39.3125 50.625C41.2292 52.5417 42.9792 54.5 44.5625 56.5C46.1458 58.4167 47.4792 60.25 48.5625 62C49.7292 63.75 50.3542 65.25 50.4375 66.5C50.5208 68 50.1042 69.9167 49.1875 72.25C48.3542 74.5833 47.2708 76.8333 45.9375 79C44.6042 81.1667 43.1875 83.0417 41.6875 84.625C40.1875 86.2083 38.8542 87.0417 37.6875 87.125C36.5208 87.2083 34.8125 86.5833 32.5625 85.25C30.3958 83.8333 28.1875 82.2083 25.9375 80.375C23.7708 78.4583 21.8125 76.5833 20.0625 74.75C18.3958 72.9167 17.4375 71.5833 17.1875 70.75C16.9375 70 16.7708 69 16.6875 67.75C16.6875 66.5 16.7292 65.25 16.8125 64C16.9792 62.75 17.2292 61.7083 17.5625 60.875C17.8958 59.9583 18.3125 59.5 18.8125 59.5C19.3125 59.5 20.3125 60.375 21.8125 62.125C23.3125 63.7917 24.9375 65.7083 26.6875 67.875C28.4375 69.9583 30.1458 71.875 31.8125 73.625C33.4792 75.2917 34.6875 76.125 35.4375 76.125C35.8542 76.125 36.3125 75.8333 36.8125 75.25C37.3125 74.5833 37.7708 73.8333 38.1875 73C38.6042 72.1667 38.9375 71.3333 39.1875 70.5C39.5208 69.5833 39.6875 68.875 39.6875 68.375C39.6042 67.625 38.9375 66.5417 37.6875 65.125C36.4375 63.7083 34.8542 62.125 32.9375 60.375C31.0208 58.625 28.9375 56.7917 26.6875 54.875C24.4375 52.875 22.3542 51 20.4375 49.25C18.5208 47.5 16.9375 45.9167 15.6875 44.5C14.4375 43.0833 13.7708 42 13.6875 41.25C13.6042 40.5 13.8542 39.3333 14.4375 37.75C15.0208 36.0833 15.7708 34.2917 16.6875 32.375C17.6042 30.375 18.6458 28.3333 19.8125 26.25C21.0625 24.1667 22.3125 22.25 23.5625 20.5C24.8125 18.75 26.0208 17.3333 27.1875 16.25C28.4375 15.0833 29.5208 14.5 30.4375 14.5C32.2708 14.5 34.4375 15 36.9375 16C39.5208 17 41.9792 18.25 44.3125 19.75C46.6458 21.1667 48.6458 22.6667 50.3125 24.25C51.9792 25.8333 52.8542 27.25 52.9375 28.5Z" fill="#4EEEBB"/>
</svg>
