<svg width="40" height="40" viewBox="0 0 40 40" fill="none" xmlns="http://www.w3.org/2000/svg">
<path d="M20 29.2063C29.665 29.2063 37.5 25.0845 37.5 20C37.5 14.9155 29.665 10.7938 20 10.7938C10.335 10.7938 2.5 14.9155 2.5 20C2.5 25.0845 10.335 29.2063 20 29.2063Z" fill="url(#paint0_radial_114_2420)"/>
<path d="M20 28.5225C29.2874 28.5225 36.8162 24.7068 36.8162 20C36.8162 15.2931 29.2874 11.4775 20 11.4775C10.7126 11.4775 3.18375 15.2931 3.18375 20C3.18375 24.7068 10.7126 28.5225 20 28.5225Z" fill="#6280B6"/>
<path d="M23.4062 22.75L24.24 18.4575C24.359 18.0902 24.3787 17.6979 24.297 17.3205C24.2154 16.9431 24.0353 16.594 23.775 16.3088C23.0491 15.7935 22.1604 15.5602 21.275 15.6525H19.8337L20.2475 13.5275C20.2548 13.488 20.2534 13.4473 20.2433 13.4084C20.2332 13.3695 20.2146 13.3332 20.189 13.3023C20.1634 13.2713 20.1313 13.2463 20.095 13.229C20.0586 13.2118 20.019 13.2028 19.9788 13.2025H17.9788C17.9153 13.2027 17.8539 13.2249 17.8049 13.2652C17.7559 13.3055 17.7224 13.3615 17.71 13.4238L16.8238 17.9813C16.7556 17.494 16.5486 17.0366 16.2275 16.6638C15.8702 16.3056 15.439 16.0297 14.964 15.8555C14.489 15.6812 13.9817 15.6128 13.4775 15.655H9.625C9.56156 15.6552 9.50014 15.6774 9.45116 15.7177C9.40218 15.758 9.36865 15.814 9.35625 15.8763L7.56375 25.1013C7.55644 25.1408 7.55789 25.1815 7.56799 25.2204C7.5781 25.2593 7.59661 25.2955 7.62224 25.3265C7.64786 25.3575 7.67997 25.3825 7.7163 25.3997C7.75263 25.417 7.79229 25.426 7.8325 25.4263H9.83625C9.89969 25.426 9.96111 25.4039 10.0101 25.3636C10.0591 25.3233 10.0926 25.2672 10.105 25.205L10.5388 22.9738H12.0388C12.701 22.9908 13.362 22.9065 13.9988 22.7238C14.535 22.545 15.0256 22.251 15.4363 21.8625C15.7726 21.5571 16.0594 21.2012 16.2863 20.8075L15.9275 22.6513C15.9202 22.6908 15.9216 22.7315 15.9317 22.7704C15.9418 22.8093 15.9604 22.8455 15.986 22.8765C16.0116 22.9075 16.0437 22.9325 16.08 22.9497C16.1164 22.967 16.156 22.976 16.1962 22.9763H18.1962C18.2597 22.976 18.3211 22.9539 18.3701 22.9136C18.4191 22.8733 18.4526 22.8172 18.465 22.755L19.4487 17.6913H20.8162C21.3988 17.6913 21.5662 17.8075 21.6162 17.8575C21.6662 17.9075 21.7413 18.0638 21.6475 18.5688L20.8538 22.65C20.8464 22.6896 20.8479 22.7302 20.858 22.7691C20.8681 22.8081 20.8866 22.8443 20.9122 22.8753C20.9379 22.9063 20.97 22.9312 21.0063 22.9485C21.0426 22.9657 21.0823 22.9748 21.1225 22.975H23.1475C23.2097 22.9724 23.2692 22.9487 23.3162 22.9078C23.3632 22.8669 23.395 22.8113 23.4062 22.75ZM14.1625 19.2075C14.1013 19.7323 13.8522 20.2171 13.4613 20.5725C12.9701 20.8781 12.3942 21.0187 11.8175 20.9738H10.9275L11.5713 17.66H12.7225C13.5688 17.66 13.9088 17.8413 14.0463 17.9925C14.1512 18.175 14.2159 18.3779 14.2359 18.5874C14.256 18.797 14.231 19.0084 14.1625 19.2075ZM31.9325 16.665C31.5752 16.3068 31.144 16.031 30.669 15.8567C30.194 15.6825 29.6867 15.6141 29.1825 15.6563H25.3187C25.2553 15.6565 25.1939 15.6786 25.1449 15.719C25.0959 15.7593 25.0624 15.8153 25.05 15.8775L23.2575 25.1025C23.2502 25.1421 23.2516 25.1827 23.2617 25.2216C23.2718 25.2606 23.2904 25.2968 23.316 25.3278C23.3416 25.3588 23.3737 25.3837 23.41 25.401C23.4464 25.4182 23.486 25.4273 23.5262 25.4275H25.5363C25.5997 25.4273 25.6611 25.4051 25.7101 25.3648C25.7591 25.3245 25.7926 25.2685 25.805 25.2063L26.2387 22.975H27.7388C28.401 22.992 29.062 22.9077 29.6988 22.725C30.235 22.5462 30.7256 22.2523 31.1362 21.8638C31.8377 21.231 32.3105 20.3842 32.4813 19.455C32.6159 18.9796 32.6364 18.4791 32.5411 17.9943C32.4457 17.5095 32.2372 17.054 31.9325 16.665ZM29.8487 19.2075C29.7875 19.7323 29.5384 20.2171 29.1475 20.5725C28.6552 20.8785 28.0778 21.0186 27.5 20.9725H26.6125L27.2563 17.6588H28.4075C29.2537 17.6588 29.5938 17.84 29.7313 17.9913C29.8366 18.1738 29.9016 18.3768 29.9219 18.5866C29.9421 18.7965 29.9172 19.0082 29.8487 19.2075Z" fill="white"/>
<path d="M12.7225 17.385C12.9922 17.3514 13.2659 17.3714 13.5278 17.4439C13.7897 17.5164 14.0347 17.64 14.2487 17.8075C14.3867 18.0199 14.4747 18.2609 14.5061 18.5123C14.5375 18.7636 14.5115 19.0189 14.43 19.2587C14.358 19.8492 14.0726 20.3929 13.6275 20.7875C13.0902 21.1337 12.455 21.296 11.8175 21.25H10.595L11.345 17.3887L12.7225 17.385ZM7.82625 25.155H9.83625L10.3125 22.7025H12.0337C12.6672 22.7184 13.2995 22.6379 13.9087 22.4637C14.4086 22.2987 14.8654 22.0246 15.2462 21.6612C15.906 21.0687 16.3501 20.2737 16.5087 19.4012C16.6349 18.9675 16.6571 18.5101 16.5734 18.0662C16.4898 17.6223 16.3028 17.2044 16.0275 16.8462C15.6955 16.518 15.2959 16.2662 14.8566 16.1081C14.4172 15.9501 13.9488 15.8897 13.4837 15.9312H9.625L7.82625 25.155ZM17.9837 13.4775H19.9837L19.5 15.93H21.2762C22.092 15.8449 22.9115 16.0522 23.5887 16.515C23.8126 16.7698 23.9657 17.079 24.0326 17.4115C24.0995 17.7441 24.0779 18.0884 23.97 18.41L23.1362 22.7025H21.1125L21.9062 18.6212C21.9612 18.4654 21.9807 18.2993 21.9634 18.1349C21.9461 17.9706 21.8924 17.8122 21.8062 17.6712C21.5168 17.4638 21.1592 17.3744 20.8062 17.4212H19.2125L18.185 22.7062H16.185L17.9837 13.4775ZM28.4087 17.385C28.6784 17.3514 28.9521 17.3714 29.214 17.4439C29.476 17.5164 29.721 17.64 29.935 17.8075C30.073 18.0199 30.161 18.2609 30.1924 18.5123C30.2238 18.7636 30.1977 19.0189 30.1162 19.2587C30.0442 19.8492 29.7588 20.3929 29.3137 20.7875C28.7754 21.1344 28.1388 21.2968 27.5 21.25H26.2775L27.0275 17.3887L28.4087 17.385ZM23.5125 25.155H25.5225L25.9987 22.7025H27.72C28.3535 22.7184 28.9857 22.6379 29.595 22.4637C30.0948 22.2987 30.5517 22.0246 30.9325 21.6612C31.5922 21.0687 32.0363 20.2737 32.195 19.4012C32.3211 18.9675 32.3433 18.5101 32.2597 18.0662C32.1761 17.6223 31.989 17.2044 31.7137 16.8462C31.3817 16.518 30.9821 16.2662 30.5428 16.1081C30.1035 15.9501 29.635 15.8897 29.17 15.9312H25.305L23.5125 25.155Z" fill="#000004"/>
<defs>
<radialGradient id="paint0_radial_114_2420" cx="0" cy="0" r="1" gradientUnits="userSpaceOnUse" gradientTransform="translate(13.0075 14.0313) scale(22.98 22.98)">
<stop stop-color="white"/>
<stop offset="0.5" stop-color="#4C6B96"/>
<stop offset="1" stop-color="#231F20"/>
</radialGradient>
</defs>
</svg>
