<svg width="40" height="40" viewBox="0 0 40 40" fill="none" xmlns="http://www.w3.org/2000/svg">
<path d="M19.8563 2.62499C10.9813 2.62499 11.5425 6.46249 11.5425 6.46249V10.45H19.9825V11.7H8.18125C8.18125 11.7 2.5 11 2.5 20.0062C2.5 29.0125 7.51625 28.6462 7.51625 28.6462H10.4125V24.445C10.4125 24.445 10.25 19.4287 15.2875 19.4287H23.74C23.74 19.4287 28.455 19.5037 28.455 14.8637V7.24999C28.455 7.24999 29.17 2.60999 19.9025 2.60999L19.8563 2.62499ZM15.1912 5.29624C15.4913 5.28867 15.7869 5.37024 16.0405 5.53065C16.2942 5.69106 16.4946 5.9231 16.6164 6.19742C16.7383 6.47174 16.776 6.77602 16.7248 7.07178C16.6737 7.36753 16.536 7.64149 16.3292 7.85899C16.1223 8.07649 15.8557 8.22777 15.5628 8.29369C15.27 8.35962 14.9642 8.33723 14.6841 8.22936C14.4041 8.12149 14.1622 7.93298 13.9893 7.68768C13.8163 7.44237 13.72 7.15129 13.7125 6.85124V6.82624C13.7125 6.42377 13.8724 6.03779 14.157 5.7532C14.4416 5.46861 14.8275 5.30874 15.23 5.30874L15.1912 5.29624Z" fill="url(#paint0_linear_114_2402)"/>
<path d="M20.1062 37.3875C28.9812 37.3875 28.42 33.5375 28.42 33.5375V29.5625H19.9812V28.3125H31.8187C31.8187 28.3125 37.5 28.9475 37.5 19.9938C37.5 11.04 32.4837 11.3538 32.4837 11.3538H29.55V15.5C29.55 15.5 29.7125 20.5163 24.675 20.5163H16.2187C16.2187 20.5163 11.5 20.445 11.5 25.085V32.75C11.5 32.75 10.785 37.39 20.0525 37.39H20.1025L20.1062 37.3875ZM24.7712 34.7038C24.4712 34.7113 24.1756 34.6298 23.922 34.4693C23.6683 34.3089 23.4679 34.0769 23.3461 33.8026C23.2242 33.5283 23.1865 33.224 23.2377 32.9282C23.2888 32.6325 23.4265 32.3585 23.6333 32.141C23.8402 31.9235 24.1068 31.7722 24.3997 31.7063C24.6925 31.6404 24.9983 31.6628 25.2784 31.7706C25.5584 31.8785 25.8003 32.067 25.9732 32.3123C26.1462 32.5576 26.2425 32.8487 26.25 33.1488V33.1863C26.25 33.5887 26.0901 33.9747 25.8055 34.2593C25.5209 34.5439 25.135 34.7038 24.7325 34.7038H24.7712Z" fill="url(#paint1_linear_114_2402)"/>
<defs>
<linearGradient id="paint0_linear_114_2402" x1="5.95895" y1="6.02861" x2="22.5673" y2="22.5993" gradientUnits="userSpaceOnUse">
<stop stop-color="#387EB8"/>
<stop offset="1" stop-color="#366994"/>
</linearGradient>
<linearGradient id="paint1_linear_114_2402" x1="15.7844" y1="16.8232" x2="34.7596" y2="33.3889" gradientUnits="userSpaceOnUse">
<stop stop-color="#FFE052"/>
<stop offset="1" stop-color="#FFC331"/>
</linearGradient>
</defs>
</svg>
