<svg width="40" height="40" viewBox="0 0 40 40" fill="none" xmlns="http://www.w3.org/2000/svg">
<g clip-path="url(#clip0_252_280)">
<path d="M30.625 0H9.375C4.19733 0 0 4.19733 0 9.375V30.625C0 35.8027 4.19733 40 9.375 40H30.625C35.8027 40 40 35.8027 40 30.625V9.375C40 4.19733 35.8027 0 30.625 0Z" fill="#242938"/>
<path d="M20.0002 22.9611C21.6102 22.9611 22.9152 21.6559 22.9152 20.0461C22.9152 18.4363 21.6102 17.1311 20.0002 17.1311C18.3902 17.1311 17.0852 18.4363 17.0852 20.0461C17.0852 21.6559 18.3903 22.9611 20.0002 22.9611Z" fill="#00D8FF"/>
<path d="M20.0003 14.1192C23.9141 14.1192 27.5498 14.6808 30.2912 15.6247C33.5942 16.7617 35.625 18.4853 35.625 20.0461C35.625 21.6725 33.4728 23.5036 29.9258 24.6787C27.2442 25.5672 23.7155 26.0309 20.0003 26.0309C16.1912 26.0309 12.5842 25.5956 9.87234 24.6689C6.44141 23.4962 4.375 21.6415 4.375 20.0461C4.375 18.498 6.31406 16.7876 9.57062 15.6523C12.3222 14.693 16.0477 14.1192 19.9997 14.1192H20.0003Z" stroke="#00D8FF" stroke-width="1.39234"/>
<path d="M14.8408 17.0997C16.7961 13.7094 19.0988 10.8403 21.2859 8.93719C23.9209 6.6439 26.4288 5.74578 27.7806 6.52531C29.1895 7.33781 29.7006 10.1172 28.9467 13.7769C28.3772 16.5436 27.0156 19.832 25.1595 23.0505C23.2566 26.3502 21.0777 29.2573 18.9203 31.143C16.1905 33.5292 13.5513 34.3928 12.1692 33.5958C10.8281 32.823 10.3153 30.2884 10.9588 26.9002C11.5023 24.0372 12.8666 20.5233 14.8402 17.0997H14.8408Z" stroke="#00D8FF" stroke-width="1.39234"/>
<path d="M14.8456 23.0591C12.8848 19.6725 11.5498 16.2441 10.9927 13.3988C10.3219 9.9705 10.7961 7.3494 12.1469 6.56753C13.5545 5.75253 16.2175 6.69784 19.0116 9.17878C21.1241 11.0544 23.2933 13.8758 25.1547 17.0911C27.0631 20.3877 28.4934 23.7275 29.0498 26.5382C29.7539 30.095 29.1841 32.8127 27.8033 33.6119C26.4636 34.3875 24.0119 33.5664 21.3977 31.3167C19.1889 29.4161 16.8258 26.4794 14.8456 23.0591Z" stroke="#00D8FF" stroke-width="1.39234"/>
</g>
<defs>
<clipPath id="clip0_252_280">
<rect width="40" height="40" fill="white"/>
</clipPath>
</defs>
</svg>
