<svg width="40" height="40" viewBox="0 0 40 40" fill="none" xmlns="http://www.w3.org/2000/svg">
<g clip-path="url(#clip0_252_293)">
<path d="M6.08476 5.60604C13.9879 -2.05005 26.6244 -1.84427 34.2805 6.09995C35.1449 4.94745 35.8859 3.67151 36.421 2.35433C38.9319 10.0104 40.4549 16.4317 39.8785 21.4121C39.5904 25.6106 37.944 29.6445 35.2273 32.8551C28.1476 41.2521 15.5519 42.3223 7.15492 35.2426L6.99429 35.0996L6.9857 35.094C6.95945 35.0757 6.93351 35.0566 6.90789 35.0367C6.83132 34.977 6.76174 34.9124 6.69914 34.8429L6.67664 34.8173L6.41414 34.584C6.15789 34.3645 5.90179 34.145 5.67461 33.8965L5.59086 33.8018C-2.06539 25.8987 -1.81821 13.2621 6.08476 5.60604ZM9.0482 32.4025C8.30726 31.8262 7.23711 31.9084 6.6607 32.6493C6.15414 33.3009 6.15664 34.207 6.66836 34.8079L6.67664 34.8173L6.99429 35.0996L7.02539 35.1209C7.74476 35.594 8.71289 35.4962 9.26492 34.8275L9.29523 34.7898C9.87148 34.0489 9.74804 32.9787 9.04836 32.4023M36.2154 4.41229C34.1571 8.73433 29.0529 12.0273 24.6487 13.0564C20.4913 14.0442 16.869 13.221 13.041 14.7028C4.31476 18.037 4.47945 28.4096 9.25414 30.7559L9.54226 30.9206C9.54226 30.9206 12.9913 30.2348 16.4019 29.3292L16.6941 29.251C18.0563 28.8839 19.3965 28.4839 20.4913 28.0804C26.1716 25.9812 32.4284 20.7948 34.4863 14.7851C33.4162 21.0417 28.024 27.0925 22.6316 29.8504C19.7504 31.3321 17.5277 31.6614 12.7941 33.3079C12.2179 33.5137 11.7651 33.7196 11.7651 33.7196L11.9382 33.6962L12.0532 33.6814L12.1677 33.667C13.213 33.5373 14.1524 33.4726 14.1524 33.4726C20.8618 33.1432 31.3993 35.366 36.2976 28.8214C41.3193 22.1531 38.5204 11.3687 36.2154 4.41229Z" fill="#6DB33F"/>
<path d="M9.04859 32.4025C9.74844 32.9788 9.87188 34.0489 9.29547 34.7899C8.71938 35.5308 7.64906 35.6131 6.90813 35.0367C6.16719 34.4603 6.085 33.3903 6.66125 32.6494C7.2375 31.9084 8.3075 31.8263 9.04859 32.4025ZM36.2156 4.41235C38.5206 11.3688 41.3197 22.1531 36.298 28.8214C31.3995 35.3661 20.8622 33.1433 14.1528 33.4727C14.1528 33.4727 13.2134 33.5375 12.1681 33.667L12.0536 33.6814C11.9579 33.6936 11.8618 33.7064 11.7655 33.7197C11.7655 33.7197 12.2183 33.5138 12.7945 33.308C17.5281 31.6616 19.7508 31.3322 22.632 29.8505C28.0244 27.0927 33.4166 21.0417 34.4867 14.7852C32.4288 20.7949 26.172 25.9813 20.4917 28.0805C16.5814 29.5211 9.54266 30.9206 9.54266 30.9206L9.25453 30.7559C4.47984 28.4097 4.31516 18.037 13.0414 14.7028C16.8695 13.2211 20.4917 14.0442 24.6492 13.0564C29.0534 12.0274 34.1575 8.73454 36.2156 4.41235Z" fill="white"/>
</g>
<defs>
<clipPath id="clip0_252_293">
<rect width="40" height="40" fill="white"/>
</clipPath>
</defs>
</svg>
