<svg width="59" height="59" viewBox="0 0 59 59" fill="none" xmlns="http://www.w3.org/2000/svg">
<g clip-path="url(#clip0_114_1370)">
<path d="M1.73772 28.8766C1.73636 33.7878 3.01961 38.5833 5.45969 42.81L1.50436 57.2516L16.2835 53.3764C20.3712 55.6017 24.9512 56.7677 29.6054 56.7681H29.6176C44.9819 56.7681 57.4889 44.2657 57.4954 28.8986C57.4984 21.4522 54.6011 14.45 49.3372 9.18201C44.0741 3.91444 37.0745 1.01194 29.6165 1.00854C14.2503 1.00854 1.74429 13.5103 1.73795 28.8766" fill="url(#paint0_linear_114_1370)"/>
<path d="M0.742422 28.8677C0.740836 33.9556 2.07008 38.9225 4.59716 43.3006L0.5 58.2599L15.8091 54.2459C20.0272 56.5457 24.7764 57.7583 29.609 57.7601H29.6214C45.537 57.7601 58.4932 44.8079 58.5 28.8908C58.5027 21.1768 55.5012 13.9229 50.0492 8.46619C44.5965 3.01011 37.3465 0.00317188 29.6214 0C13.7032 0 0.748766 12.9503 0.742422 28.8677ZM9.85952 42.5466L9.28791 41.6392C6.88498 37.8185 5.61669 33.4032 5.6185 28.8695C5.62348 15.6394 16.3906 4.87563 29.6305 4.87563C36.0422 4.87834 42.0679 7.37778 46.6 11.9127C51.132 16.448 53.6257 22.4768 53.6241 28.889C53.6183 42.1191 42.8509 52.8842 29.6214 52.8842H29.6119C25.3043 52.882 21.0796 51.7251 17.3952 49.539L16.5184 49.0191L7.43372 51.4009L9.85952 42.5466Z" fill="url(#paint1_linear_114_1370)"/>
<path d="M22.4036 16.7992C21.863 15.5977 21.2941 15.5735 20.7801 15.5524C20.3591 15.5343 19.8779 15.5357 19.3971 15.5357C18.9159 15.5357 18.1341 15.7167 17.4732 16.4383C16.8116 17.1606 14.9474 18.906 14.9474 22.456C14.9474 26.006 17.5332 29.4371 17.8937 29.919C18.2546 30.4 22.8855 37.9182 30.2198 40.8105C36.3152 43.2141 37.5557 42.7361 38.8786 42.6155C40.2017 42.4955 43.1479 40.8706 43.749 39.1856C44.3505 37.5009 44.3505 36.0568 44.1702 35.755C43.9898 35.4544 43.5086 35.2738 42.787 34.9131C42.0654 34.5524 38.5177 32.8065 37.8563 32.5657C37.1948 32.3251 36.7138 32.205 36.2325 32.9275C35.7513 33.6489 34.3695 35.2738 33.9483 35.755C33.5276 36.2374 33.1064 36.2974 32.3851 35.9365C31.663 35.5744 29.3392 34.8134 26.5821 32.3554C24.437 30.4428 22.9888 28.0809 22.5679 27.3584C22.1469 26.637 22.5228 26.246 22.8846 25.8864C23.2088 25.5631 23.6064 25.0438 23.9676 24.6226C24.3274 24.2012 24.4474 23.9006 24.6881 23.4194C24.9289 22.9377 24.8084 22.5163 24.6282 22.1554C24.4474 21.7945 23.0452 18.2259 22.4036 16.7992Z" fill="white"/>
</g>
<defs>
<linearGradient id="paint0_linear_114_1370" x1="2801.06" y1="5625.31" x2="2801.06" y2="1.00854" gradientUnits="userSpaceOnUse">
<stop stop-color="#1FAF38"/>
<stop offset="1" stop-color="#60D669"/>
</linearGradient>
<linearGradient id="paint1_linear_114_1370" x1="2900.5" y1="5825.99" x2="2900.5" y2="0" gradientUnits="userSpaceOnUse">
<stop stop-color="#F9F9F9"/>
<stop offset="1" stop-color="white"/>
</linearGradient>
<clipPath id="clip0_114_1370">
<rect width="58" height="58.4531" fill="white" transform="translate(0.5)"/>
</clipPath>
</defs>
</svg>
